<svg id="e69SjdNGI3h1" xmlns="http://www.w3.org/2000/svg" xmlns:xlink="http://www.w3.org/1999/xlink" viewBox="0 0 470 373" shape-rendering="geometricPrecision" text-rendering="geometricPrecision" width="470" height="373"><defs><linearGradient id="e69SjdNGI3h4-fill" x1="235.389" y1="209.034" x2="235.389" y2="401.361" spreadMethod="pad" gradientUnits="userSpaceOnUse" gradientTransform="translate(0 0)"><stop id="e69SjdNGI3h4-fill-0" offset="0%" stop-color="#fafdff"/><stop id="e69SjdNGI3h4-fill-1" offset="100%" stop-color="#b3e8ff"/></linearGradient><filter id="e69SjdNGI3h6-filter" x="-150%" width="400%" y="-150%" height="400%"><feGaussianBlur id="e69SjdNGI3h6-filter-blur-0" stdDeviation="7,7" result="result"/></filter><linearGradient id="e69SjdNGI3h7-fill" x1="239.296" y1="231.726" x2="239.296" y2="389.181" spreadMethod="pad" gradientUnits="userSpaceOnUse" gradientTransform="translate(0 0)"><stop id="e69SjdNGI3h7-fill-0" offset="0%" stop-color="#1b2d4b"/><stop id="e69SjdNGI3h7-fill-1" offset="100%" stop-color="#0040a0"/></linearGradient><linearGradient id="e69SjdNGI3h9-fill" x1="235.623" y1="210.468" x2="235.623" y2="266.58" spreadMethod="pad" gradientUnits="userSpaceOnUse" gradientTransform="translate(0 0)"><stop id="e69SjdNGI3h9-fill-0" offset="0%" stop-color="#6b96af"/><stop id="e69SjdNGI3h9-fill-1" offset="100%" stop-color="#bcd9eb"/></linearGradient><radialGradient id="e69SjdNGI3h10-fill" cx="0" cy="0" r="1" spreadMethod="pad" gradientUnits="userSpaceOnUse" gradientTransform="matrix(29.927 -32.3319 29.312101 27.1318 225.381 146.964)"><stop id="e69SjdNGI3h10-fill-0" offset="0%" stop-color="#2a65c9"/><stop id="e69SjdNGI3h10-fill-1" offset="100%" stop-color="#174ba5"/></radialGradient><radialGradient id="e69SjdNGI3h12-fill" cx="0" cy="0" r="1" spreadMethod="pad" gradientUnits="userSpaceOnUse" gradientTransform="matrix(4.6972 1.25861 -1.25861 4.6972 247.712 354.386)"><stop id="e69SjdNGI3h12-fill-0" offset="29.1667%" stop-color="#9dfff9"/><stop id="e69SjdNGI3h12-fill-1" offset="100%" stop-color="rgba(162,199,255,0)"/></radialGradient><radialGradient id="e69SjdNGI3h15-fill" cx="0" cy="0" r="1" spreadMethod="pad" gradientUnits="userSpaceOnUse" gradientTransform="matrix(2.74494 0.735504 -0.735504 2.74494 233.406 292.357)"><stop id="e69SjdNGI3h15-fill-0" offset="29.1667%" stop-color="#9dfff9"/><stop id="e69SjdNGI3h15-fill-1" offset="100%" stop-color="rgba(162,199,255,0)"/></radialGradient><radialGradient id="e69SjdNGI3h18-fill" cx="0" cy="0" r="1" spreadMethod="pad" gradientUnits="userSpaceOnUse" gradientTransform="matrix(2.74494 0.735504 -0.735504 2.74494 312.821 273.621)"><stop id="e69SjdNGI3h18-fill-0" offset="29.1667%" stop-color="#9dfff9"/><stop id="e69SjdNGI3h18-fill-1" offset="100%" stop-color="rgba(162,199,255,0)"/></radialGradient><radialGradient id="e69SjdNGI3h21-fill" cx="0" cy="0" r="1" spreadMethod="pad" gradientUnits="userSpaceOnUse" gradientTransform="matrix(2.74494 0.735504 -0.735504 2.74494 191.321 331.019)"><stop id="e69SjdNGI3h21-fill-0" offset="29.1667%" stop-color="#9dfff9"/><stop id="e69SjdNGI3h21-fill-1" offset="100%" stop-color="rgba(162,199,255,0)"/></radialGradient><radialGradient id="e69SjdNGI3h24-fill" cx="0" cy="0" r="1" spreadMethod="pad" gradientUnits="userSpaceOnUse" gradientTransform="matrix(6.04257 1.6191 -1.6191 6.04257 183.826 323.422)"><stop id="e69SjdNGI3h24-fill-0" offset="29.1667%" stop-color="#9dfff9"/><stop id="e69SjdNGI3h24-fill-1" offset="100%" stop-color="rgba(162,199,255,0)"/></radialGradient><filter id="e69SjdNGI3h28-filter" x="-150%" width="400%" y="-150%" height="400%"><feGaussianBlur id="e69SjdNGI3h28-filter-blur-0" stdDeviation="4,0" result="result"/></filter><filter id="e69SjdNGI3h31-filter" x="-150%" width="400%" y="-150%" height="400%"><feGaussianBlur id="e69SjdNGI3h31-filter-blur-0" stdDeviation="4,0" result="result"/></filter><filter id="e69SjdNGI3h36-filter" x="-150%" width="400%" y="-150%" height="400%"><feGaussianBlur id="e69SjdNGI3h36-filter-blur-0" stdDeviation="4,0" result="result"/></filter><filter id="e69SjdNGI3h39-filter" x="-150%" width="400%" y="-150%" height="400%"><feGaussianBlur id="e69SjdNGI3h39-filter-blur-0" stdDeviation="4,0" result="result"/></filter><filter id="e69SjdNGI3h48-filter" x="-150%" width="400%" y="-150%" height="400%"><feGaussianBlur id="e69SjdNGI3h48-filter-blur-0" stdDeviation="4,0" result="result"/></filter><radialGradient id="e69SjdNGI3h48-fill" cx="0" cy="0" r="1" spreadMethod="pad" gradientUnits="userSpaceOnUse" gradientTransform="matrix(7.27451 28.0193 -19.8847 5.16256 86.4516 265.5)"><stop id="e69SjdNGI3h48-fill-0" offset="0%" stop-color="#369fab"/><stop id="e69SjdNGI3h48-fill-1" offset="100%" stop-color="#369fab"/></radialGradient><radialGradient id="e69SjdNGI3h49-fill" cx="0" cy="0" r="1" spreadMethod="pad" gradientUnits="userSpaceOnUse" gradientTransform="matrix(7.27451 28.0193 -19.8847 5.16256 86.4516 265.5)"><stop id="e69SjdNGI3h49-fill-0" offset="0%" stop-color="#369fab"/><stop id="e69SjdNGI3h49-fill-1" offset="100%" stop-color="#369fab"/></radialGradient><filter id="e69SjdNGI3h53-filter" x="-150%" width="400%" y="-150%" height="400%"><feGaussianBlur id="e69SjdNGI3h53-filter-blur-0" stdDeviation="4,2" result="result"/></filter><filter id="e69SjdNGI3h59-filter" x="-150%" width="400%" y="-150%" height="400%"><feGaussianBlur id="e69SjdNGI3h59-filter-blur-0" stdDeviation="3,0" result="result"/></filter><filter id="e69SjdNGI3h62-filter" x="-150%" width="400%" y="-150%" height="400%"><feGaussianBlur id="e69SjdNGI3h62-filter-blur-0" stdDeviation="4,0" result="result"/></filter><filter id="e69SjdNGI3h75-filter" x="-150%" width="400%" y="-150%" height="400%"><feGaussianBlur id="e69SjdNGI3h75-filter-blur-0" stdDeviation="4,0" result="result"/></filter><linearGradient id="e69SjdNGI3h87-fill" x1="310.34" y1="138.075" x2="360.314" y2="138.075" spreadMethod="pad" gradientUnits="userSpaceOnUse" gradientTransform="translate(0 0)"><stop id="e69SjdNGI3h87-fill-0" offset="0%" stop-color="#7ea5bd"/><stop id="e69SjdNGI3h87-fill-1" offset="100%" stop-color="#cddeec"/></linearGradient><linearGradient id="e69SjdNGI3h88-fill" x1="314.865" y1="136.534" x2="352.346" y2="136.534" spreadMethod="pad" gradientUnits="userSpaceOnUse" gradientTransform="translate(0 0)"><stop id="e69SjdNGI3h88-fill-0" offset="0%" stop-color="#4c7792"/><stop id="e69SjdNGI3h88-fill-1" offset="100%" stop-color="rgba(126,165,189,0)"/></linearGradient><linearGradient id="e69SjdNGI3h90-fill" x1="169.109" y1="138.075" x2="119.135" y2="138.075" spreadMethod="pad" gradientUnits="userSpaceOnUse" gradientTransform="translate(0 0)"><stop id="e69SjdNGI3h90-fill-0" offset="0%" stop-color="#7ea5bd"/><stop id="e69SjdNGI3h90-fill-1" offset="100%" stop-color="#cddeec"/></linearGradient><linearGradient id="e69SjdNGI3h91-fill" x1="162.053" y1="136.534" x2="124.572" y2="136.534" spreadMethod="pad" gradientUnits="userSpaceOnUse" gradientTransform="translate(0 0)"><stop id="e69SjdNGI3h91-fill-0" offset="0%" stop-color="#4c7792"/><stop id="e69SjdNGI3h91-fill-1" offset="100%" stop-color="rgba(126,165,189,0)"/></linearGradient><filter id="e69SjdNGI3h92-filter" x="-150%" width="400%" y="-150%" height="400%"><feGaussianBlur id="e69SjdNGI3h92-filter-blur-0" stdDeviation="0,0" result="result"/></filter><linearGradient id="e69SjdNGI3h92-fill" x1="239.247" y1="202.5445" x2="239.247" y2="216.531" spreadMethod="pad" gradientUnits="userSpaceOnUse" gradientTransform="translate(0 0)"><stop id="e69SjdNGI3h92-fill-0" offset="0%" stop-color="#d1dcef"/><stop id="e69SjdNGI3h92-fill-1" offset="100%" stop-color="#bbefff"/></linearGradient><radialGradient id="e69SjdNGI3h96-fill" cx="0" cy="0" r="1" spreadMethod="pad" gradientUnits="userSpaceOnUse" gradientTransform="matrix(-9.38631 43.8019 -49.1011 -10.5219 258.594 54.4007)"><stop id="e69SjdNGI3h96-fill-0" offset="0%" stop-color="#84e9ff"/><stop id="e69SjdNGI3h96-fill-1" offset="100%" stop-color="rgba(218,239,249,0.22)"/></radialGradient><linearGradient id="e69SjdNGI3h99-fill" x1="240.139" y1="96.4663" x2="240.139" y2="182.7" spreadMethod="pad" gradientUnits="userSpaceOnUse" gradientTransform="translate(0 0)"><stop id="e69SjdNGI3h99-fill-0" offset="0%" stop-color="#00a8dd"/><stop id="e69SjdNGI3h99-fill-1" offset="100%" stop-color="#83e2fe"/></linearGradient><linearGradient id="e69SjdNGI3h101-fill" x1="238.057" y1="101.718" x2="238.016" y2="135.975" spreadMethod="pad" gradientUnits="userSpaceOnUse" gradientTransform="translate(0 0)"><stop id="e69SjdNGI3h101-fill-0" offset="0%" stop-color="#17e1d5"/><stop id="e69SjdNGI3h101-fill-1" offset="100%" stop-color="rgba(23,225,213,0)"/></linearGradient><filter id="e69SjdNGI3h114-filter" x="-150%" width="400%" y="-150%" height="400%"><feGaussianBlur id="e69SjdNGI3h114-filter-blur-0" stdDeviation="3,3" result="result"/></filter><linearGradient id="e69SjdNGI3h114-fill" x1="240.584" y1="164.263" x2="239.244" y2="216.798" spreadMethod="pad" gradientUnits="userSpaceOnUse" gradientTransform="translate(0 0)"><stop id="e69SjdNGI3h114-fill-0" offset="0%" stop-color="rgba(0,240,255,0)"/><stop id="e69SjdNGI3h114-fill-1" offset="100%" stop-color="#00f0ff"/></linearGradient><filter id="e69SjdNGI3h115-filter" x="-150%" width="400%" y="-150%" height="400%"><feGaussianBlur id="e69SjdNGI3h115-filter-blur-0" stdDeviation="10,10" result="result"/></filter></defs><g clip-path="url(#e69SjdNGI3h118)"><g><path d="M56.3596,443.906C57.4487,327.907,107.817,236.897,239.1,236.897c127.908,0,176.493,96.056,176.493,206.758c0,33.706-359.5551,34.525-359.2334.251Z" fill="url(#e69SjdNGI3h4-fill)"/><g><path d="M71.7854,446.626c.9955-103.559,47.0376-184.809,167.0456-184.809c116.923,0,161.334,85.755,161.334,184.586.001,30.09-328.6739,30.822-328.3796.223Z" filter="url(#e69SjdNGI3h6-filter)" fill="#b3e9ff"/></g><path d="M344.73,267.331c-25.767,37.793-40.499,65.539-58.792,111.873-2.423,6.137-7.96,10.55-14.514,11.303-25.551,2.933-43.275,2.901-68.12.02-6.577-.762-12.12-5.216-14.517-11.388-17.45-44.956-31.361-72.287-56.654-113.446c32.621-22.316,80.307-33.092,112.434-33.09c31.233,0,69.186,13.091,100.163,34.728Z" fill="url(#e69SjdNGI3h7-fill)"/><path d="M235.631,272.229c32.787,0,59.367-8.656,59.367-19.334s-26.58-19.334-59.367-19.334c-32.786,0-59.365,8.656-59.365,19.334s26.579,19.334,59.365,19.334Z" fill="#f7f8ff"/><path d="M221.625,194.277c0-14.558,32.06-15.634,32.06,0c0,15.633,3.229,24.809,14.387,35.969c11.16,11.158,26.982,12.631,26.982,21.949s-25.9,18.023-56.8,18.051c-37.612.057-62.041-9.635-62.041-18.614c0-9.006,18.477-12.805,31.052-23.171s14.36-19.598,14.36-34.184Z" fill="url(#e69SjdNGI3h9-fill)"/><path d="M201.012,167.025c0,17.939,19.732,18.629,40.81,18.629s33.202-3.219,33.202-18.629c0-15.409-15.209-24.139-36.65-24.139-21.443,0-37.362,6.2-37.362,24.139Z" fill="url(#e69SjdNGI3h10-fill)"/></g><clipPath id="e69SjdNGI3h118"><rect width="470" height="373" rx="0" ry="0" fill="#fff"/></clipPath></g></svg>