<svg xmlns="http://www.w3.org/2000/svg" id="ey6f5Gsnrpe1" shape-rendering="geometricPrecision" text-rendering="geometricPrecision" viewBox="0 0 470 373"><style>@keyframes ey6f5Gsnrpe11_to__to{0%{transform:translate(247.680001px,354.504501px);animation-timing-function:cubic-bezier(.445,.05,.55,.95)}56.666667%{transform:translate(247.680001px,334.504501px);animation-timing-function:cubic-bezier(.445,.05,.55,.95)}to{transform:translate(247.680001px,354.504501px)}}@keyframes ey6f5Gsnrpe14_to__to{0%{transform:translate(233.387794px,292.426209px);animation-timing-function:cubic-bezier(.445,.05,.55,.95)}53.333333%{transform:translate(233.387794px,242.426209px);animation-timing-function:cubic-bezier(.445,.05,.55,.95)}to{transform:translate(233.387794px,292.426209px)}}@keyframes ey6f5Gsnrpe17_to__to{0%{transform:translate(312.801956px,273.691208px);animation-timing-function:cubic-bezier(.445,.05,.55,.95)}50.833333%{transform:translate(312.801956px,253.691208px);animation-timing-function:cubic-bezier(.445,.05,.55,.95)}to{transform:translate(312.801956px,273.691208px)}}@keyframes ey6f5Gsnrpe20_to__to{0%{transform:translate(191.301964px,331.088959px);animation-timing-function:cubic-bezier(.445,.05,.55,.95)}58.333333%{transform:translate(191.301964px,301.088959px);animation-timing-function:cubic-bezier(.445,.05,.55,.95)}to{transform:translate(191.301964px,331.088959px)}}@keyframes ey6f5Gsnrpe23_to__to{0%{transform:translate(183.783501px,323.575501px);animation-timing-function:cubic-bezier(.445,.05,.55,.95)}50%{transform:translate(183.783501px,313.575501px);animation-timing-function:cubic-bezier(.445,.05,.55,.95)}to{transform:translate(183.783501px,323.575501px)}}@keyframes ey6f5Gsnrpe26_to__to{0%{transform:translate(389px,152.500038px);animation-timing-function:cubic-bezier(.445,.05,.55,.95)}50%{transform:translate(389px,120.07859px);animation-timing-function:cubic-bezier(.445,.05,.55,.95)}to{transform:translate(389px,152.500038px)}}@keyframes ey6f5Gsnrpe26_ts__ts{0%,44.166667%,to{transform:scale(0,0)}6.666667%{transform:scale(0,0);animation-timing-function:cubic-bezier(.175,.885,.32,1.275)}11.666667%{transform:scale(1,1);animation-timing-function:cubic-bezier(.175,.885,.32,1.275)}39.166667%{transform:scale(1,1);animation-timing-function:cubic-bezier(.6,-.28,.735,.045)}}@keyframes ey6f5Gsnrpe30_to__to{0%{transform:translate(39.999981px,201.000145px);animation-timing-function:cubic-bezier(.445,.05,.55,.95)}46.666667%{transform:translate(39.999981px,178.578697px);animation-timing-function:cubic-bezier(.445,.05,.55,.95)}to{transform:translate(39.999981px,201.000145px)}}@keyframes ey6f5Gsnrpe30_ts__ts{0%,73.333333%,to{transform:scale(0,0)}29.166667%{transform:scale(0,0);animation-timing-function:cubic-bezier(.175,.885,.32,1.275)}33.333333%{transform:scale(1.029628,1.029628);animation-timing-function:cubic-bezier(.175,.885,.32,1.275)}69.166667%{transform:scale(1.029628,1.029628);animation-timing-function:cubic-bezier(.6,-.28,.735,.045)}}@keyframes ey6f5Gsnrpe34_to__to{0%{transform:translate(386.999954px,269.000076px);animation-timing-function:cubic-bezier(.445,.05,.55,.95)}38.333333%{transform:translate(386.999954px,234.578628px);animation-timing-function:cubic-bezier(.445,.05,.55,.95)}to{transform:translate(386.999954px,269.000076px)}}@keyframes ey6f5Gsnrpe34_ts__ts{0%{transform:scale(0,0);animation-timing-function:cubic-bezier(.175,.885,.32,1.275)}4.166667%{transform:scale(1,1);animation-timing-function:cubic-bezier(.175,.885,.32,1.275)}50.833333%{transform:scale(1,1);animation-timing-function:cubic-bezier(.6,-.28,.735,.045)}55%,to{transform:scale(0,0)}}@keyframes ey6f5Gsnrpe38_to__to{0%{transform:translate(435.520493px,202.543999px);animation-timing-function:cubic-bezier(.445,.05,.55,.95)}25%{transform:translate(435.520493px,180.122551px);animation-timing-function:cubic-bezier(.445,.05,.55,.95)}to{transform:translate(435.520493px,202.543999px)}}@keyframes ey6f5Gsnrpe38_ts__ts{0%{transform:scale(1,1);animation-timing-function:cubic-bezier(.6,-.28,.735,.045)}4.166667%{transform:scale(0,0)}38.333333%{transform:scale(0,0);animation-timing-function:cubic-bezier(.175,.885,.32,1.275)}43.333333%,to{transform:scale(1,1)}}@keyframes ey6f5Gsnrpe47_to__to{0%{transform:translate(86.451405px,265.499931px);animation-timing-function:cubic-bezier(.445,.05,.55,.95)}20%{transform:translate(86.451405px,239.078483px);animation-timing-function:cubic-bezier(.445,.05,.55,.95)}to{transform:translate(86.451405px,265.499931px)}}@keyframes ey6f5Gsnrpe47_ts__ts{0%,75%,to{transform:scale(0,0)}26.666667%{transform:scale(0,0);animation-timing-function:cubic-bezier(.175,.885,.32,1.275)}31.666667%{transform:scale(1,1);animation-timing-function:cubic-bezier(.175,.885,.32,1.275)}70%{transform:scale(1,1);animation-timing-function:cubic-bezier(.6,-.28,.735,.045)}}@keyframes ey6f5Gsnrpe51_to__to{0%{transform:translate(236px,321.5px);animation-timing-function:cubic-bezier(.445,.05,.55,.95)}25%{transform:translate(236px,286.078552px);animation-timing-function:cubic-bezier(.445,.05,.55,.95)}to{transform:translate(236px,321.5px)}}@keyframes ey6f5Gsnrpe55_to__to{0%{transform:translate(85px,147.5px);animation-timing-function:cubic-bezier(.445,.05,.55,.95)}55%{transform:translate(85px,112.078552px);animation-timing-function:cubic-bezier(.445,.05,.55,.95)}to{transform:translate(85px,147.5px)}}@keyframes ey6f5Gsnrpe55_ts__ts{0%,71.666667%,to{transform:scale(1,1)}35.5%{transform:scale(1,1);animation-timing-function:cubic-bezier(.6,-.28,.735,.045)}40%{transform:scale(0,0)}66.666667%{transform:scale(0,0);animation-timing-function:cubic-bezier(.175,.885,.32,1.275)}}@keyframes ey6f5Gsnrpe61_to__to{0%{transform:translate(324.654053px,300.5px);animation-timing-function:cubic-bezier(.445,.05,.55,.95)}36.666667%{transform:translate(324.654053px,252.895002px);animation-timing-function:cubic-bezier(.445,.05,.55,.95)}to{transform:translate(324.654053px,300.5px)}}@keyframes ey6f5Gsnrpe61_ts__ts{0%,to{transform:scale(0,0)}47.5%{transform:scale(0,0);animation-timing-function:cubic-bezier(.175,.885,.32,1.275)}51.666667%{transform:scale(1,1);animation-timing-function:cubic-bezier(.175,.885,.32,1.275)}96.666667%{transform:scale(1,1);animation-timing-function:cubic-bezier(.6,-.28,.735,.045)}}@keyframes ey6f5Gsnrpe74_to__to{0%{transform:translate(145.341995px,300.500001px);animation-timing-function:cubic-bezier(.445,.05,.55,.95)}47.5%{transform:translate(145.341988px,261.817px);animation-timing-function:cubic-bezier(.445,.05,.55,.95)}to{transform:translate(145.341995px,300.5px)}}@keyframes ey6f5Gsnrpe74_ts__ts{0%,61.666667%,to{transform:scale(1,1)}35%{transform:scale(1,1);animation-timing-function:cubic-bezier(.6,-.28,.735,.045)}38.333333%{transform:scale(0,0)}57.5%{transform:scale(0,0);animation-timing-function:cubic-bezier(.175,.885,.32,1.275)}}@keyframes ey6f5Gsnrpe86_to__to{0%,95.833333%{transform:translate(328.445999px,131.918003px);animation-timing-function:cubic-bezier(.455,.03,.515,.955)}30.833333%,35%{transform:translate(322.627914px,124.708px);animation-timing-function:cubic-bezier(.455,.03,.515,.955)}64.166667%,68.333333%{transform:translate(335.133469px,139.741773px);animation-timing-function:cubic-bezier(.455,.03,.515,.955)}to{transform:translate(328.445999px,131.918003px)}}@keyframes ey6f5Gsnrpe86_ts__ts{0%,30.833333%,35%,64.166667%,68.333333%{transform:scale(1,1);animation-timing-function:cubic-bezier(.455,.03,.515,.955)}to{transform:scale(1,1)}}@keyframes ey6f5Gsnrpe89_to__to{0%,95.833333%{transform:translate(151.002499px,131.918003px);animation-timing-function:cubic-bezier(.455,.03,.515,.955)}30.833333%,35%{transform:translate(144.345503px,127.708078px);animation-timing-function:cubic-bezier(.455,.03,.515,.955)}64.166667%,68.333333%{transform:translate(161.002499px,138.918003px);animation-timing-function:cubic-bezier(.455,.03,.515,.955)}to{transform:translate(151.002499px,131.918003px)}}@keyframes ey6f5Gsnrpe89_ts__ts{0%,30.833333%,35%,64.166667%,68.333333%{transform:scale(1,1);animation-timing-function:cubic-bezier(.455,.03,.515,.955)}to{transform:scale(1,1)}}@keyframes ey6f5Gsnrpe97_to__to{0%,95.833333%{transform:translate(240.139519px,140.552159px);animation-timing-function:cubic-bezier(.455,.03,.515,.955)}30.833333%,35%{transform:translate(246.389779px,148.843857px);animation-timing-function:cubic-bezier(.455,.03,.515,.955)}64.166667%,68.333333%{transform:translate(230.614685px,142.414142px);animation-timing-function:cubic-bezier(.455,.03,.515,.955)}to{transform:translate(240.139519px,140.552159px)}}@keyframes ey6f5Gsnrpe100_to__to{0%,64.166667%{transform:translate(239.424225px,114.686531px);animation-timing-function:cubic-bezier(.455,.03,.515,.955)}30.833333%,35%{transform:translate(239.424225px,108.686531px);animation-timing-function:cubic-bezier(.455,.03,.515,.955)}95.833333%,to{transform:translate(239.424225px,114.686531px)}}@keyframes ey6f5Gsnrpe100_ts__ts{0%{transform:scale(1,1);animation-timing-function:cubic-bezier(.455,.03,.515,.955)}30.833333%,35%{transform:scale(1,.8);animation-timing-function:cubic-bezier(.455,.03,.515,.955)}64.166667%,68.333333%{transform:scale(1,1.3);animation-timing-function:cubic-bezier(.455,.03,.515,.955)}95.833333%,to{transform:scale(1,1)}}@keyframes ey6f5Gsnrpe102_to__to{0%,95.833333%{transform:translate(237.086998px,157.912003px);animation-timing-function:cubic-bezier(.455,.03,.515,.955)}30.833333%,35%{transform:translate(242.610297px,156.578903px);animation-timing-function:cubic-bezier(.455,.03,.515,.955)}64.166667%,68.333333%{transform:translate(229.349038px,153.83479px);animation-timing-function:cubic-bezier(.455,.03,.515,.955)}to{transform:translate(237.086998px,157.912003px)}}#ey6f5Gsnrpe11_to{animation:ey6f5Gsnrpe11_to__to 12000ms linear infinite normal forwards}#ey6f5Gsnrpe14_to{animation:ey6f5Gsnrpe14_to__to 12000ms linear infinite normal forwards}#ey6f5Gsnrpe17_to{animation:ey6f5Gsnrpe17_to__to 12000ms linear infinite normal forwards}#ey6f5Gsnrpe20_to{animation:ey6f5Gsnrpe20_to__to 12000ms linear infinite normal forwards}#ey6f5Gsnrpe23_to{animation:ey6f5Gsnrpe23_to__to 12000ms linear infinite normal forwards}#ey6f5Gsnrpe26_to{animation:ey6f5Gsnrpe26_to__to 12000ms linear infinite normal forwards}#ey6f5Gsnrpe26_ts{animation:ey6f5Gsnrpe26_ts__ts 12000ms linear infinite normal forwards}#ey6f5Gsnrpe30_to{animation:ey6f5Gsnrpe30_to__to 12000ms linear infinite normal forwards}#ey6f5Gsnrpe30_ts{animation:ey6f5Gsnrpe30_ts__ts 12000ms linear infinite normal forwards}#ey6f5Gsnrpe34_to{animation:ey6f5Gsnrpe34_to__to 12000ms linear infinite normal forwards}#ey6f5Gsnrpe34_ts{animation:ey6f5Gsnrpe34_ts__ts 12000ms linear infinite normal forwards}#ey6f5Gsnrpe38_to{animation:ey6f5Gsnrpe38_to__to 12000ms linear infinite normal forwards}#ey6f5Gsnrpe38_ts{animation:ey6f5Gsnrpe38_ts__ts 12000ms linear infinite normal forwards}#ey6f5Gsnrpe47_to{animation:ey6f5Gsnrpe47_to__to 12000ms linear infinite normal forwards}#ey6f5Gsnrpe47_ts{animation:ey6f5Gsnrpe47_ts__ts 12000ms linear infinite normal forwards}#ey6f5Gsnrpe51_to{animation:ey6f5Gsnrpe51_to__to 12000ms linear infinite normal forwards}#ey6f5Gsnrpe55_to{animation:ey6f5Gsnrpe55_to__to 12000ms linear infinite normal forwards}#ey6f5Gsnrpe55_ts{animation:ey6f5Gsnrpe55_ts__ts 12000ms linear infinite normal forwards}#ey6f5Gsnrpe61_to{animation:ey6f5Gsnrpe61_to__to 12000ms linear infinite normal forwards}#ey6f5Gsnrpe61_ts{animation:ey6f5Gsnrpe61_ts__ts 12000ms linear infinite normal forwards}#ey6f5Gsnrpe74_to{animation:ey6f5Gsnrpe74_to__to 12000ms linear infinite normal forwards}#ey6f5Gsnrpe74_ts{animation:ey6f5Gsnrpe74_ts__ts 12000ms linear infinite normal forwards}#ey6f5Gsnrpe86_to{animation:ey6f5Gsnrpe86_to__to 12000ms linear infinite normal forwards}#ey6f5Gsnrpe86_ts{animation:ey6f5Gsnrpe86_ts__ts 12000ms linear infinite normal forwards}#ey6f5Gsnrpe89_to{animation:ey6f5Gsnrpe89_to__to 12000ms linear infinite normal forwards}#ey6f5Gsnrpe89_ts{animation:ey6f5Gsnrpe89_ts__ts 12000ms linear infinite normal forwards}#ey6f5Gsnrpe97_to{animation:ey6f5Gsnrpe97_to__to 12000ms linear infinite normal forwards}#ey6f5Gsnrpe100_to{animation:ey6f5Gsnrpe100_to__to 12000ms linear infinite normal forwards}#ey6f5Gsnrpe100_ts{animation:ey6f5Gsnrpe100_ts__ts 12000ms linear infinite normal forwards}#ey6f5Gsnrpe102_to{animation:ey6f5Gsnrpe102_to__to 12000ms linear infinite normal forwards}</style><defs><filter id="ey6f5Gsnrpe6-filter" width="400%" height="400%" x="-150%" y="-150%"><feGaussianBlur id="ey6f5Gsnrpe6-filter-blur-0" result="result" stdDeviation="7,7"/></filter><filter id="ey6f5Gsnrpe28-filter" width="400%" height="400%" x="-150%" y="-150%"><feGaussianBlur id="ey6f5Gsnrpe28-filter-blur-0" result="result" stdDeviation="4,0"/></filter><filter id="ey6f5Gsnrpe31-filter" width="400%" height="400%" x="-150%" y="-150%"><feGaussianBlur id="ey6f5Gsnrpe31-filter-blur-0" result="result" stdDeviation="4,0"/></filter><filter id="ey6f5Gsnrpe36-filter" width="400%" height="400%" x="-150%" y="-150%"><feGaussianBlur id="ey6f5Gsnrpe36-filter-blur-0" result="result" stdDeviation="4,0"/></filter><filter id="ey6f5Gsnrpe39-filter" width="400%" height="400%" x="-150%" y="-150%"><feGaussianBlur id="ey6f5Gsnrpe39-filter-blur-0" result="result" stdDeviation="4,0"/></filter><filter id="ey6f5Gsnrpe48-filter" width="400%" height="400%" x="-150%" y="-150%"><feGaussianBlur id="ey6f5Gsnrpe48-filter-blur-0" result="result" stdDeviation="4,0"/></filter><filter id="ey6f5Gsnrpe53-filter" width="400%" height="400%" x="-150%" y="-150%"><feGaussianBlur id="ey6f5Gsnrpe53-filter-blur-0" result="result" stdDeviation="4,2"/></filter><filter id="ey6f5Gsnrpe59-filter" width="400%" height="400%" x="-150%" y="-150%"><feGaussianBlur id="ey6f5Gsnrpe59-filter-blur-0" result="result" stdDeviation="3,0"/></filter><filter id="ey6f5Gsnrpe62-filter" width="400%" height="400%" x="-150%" y="-150%"><feGaussianBlur id="ey6f5Gsnrpe62-filter-blur-0" result="result" stdDeviation="4,0"/></filter><filter id="ey6f5Gsnrpe75-filter" width="400%" height="400%" x="-150%" y="-150%"><feGaussianBlur id="ey6f5Gsnrpe75-filter-blur-0" result="result" stdDeviation="4,0"/></filter><filter id="ey6f5Gsnrpe92-filter" width="400%" height="400%" x="-150%" y="-150%"><feGaussianBlur id="ey6f5Gsnrpe92-filter-blur-0" result="result" stdDeviation="0,0"/></filter><filter id="ey6f5Gsnrpe114-filter" width="400%" height="400%" x="-150%" y="-150%"><feGaussianBlur id="ey6f5Gsnrpe114-filter-blur-0" result="result" stdDeviation="3,3"/></filter><filter id="ey6f5Gsnrpe115-filter" width="400%" height="400%" x="-150%" y="-150%"><feGaussianBlur id="ey6f5Gsnrpe115-filter-blur-0" result="result" stdDeviation="10,10"/></filter><linearGradient id="ey6f5Gsnrpe4-fill" x1="235.389" x2="235.389" y1="209.034" y2="401.361" gradientUnits="userSpaceOnUse" spreadMethod="pad"><stop id="ey6f5Gsnrpe4-fill-0" offset="0%" stop-color="#fafdff"/><stop id="ey6f5Gsnrpe4-fill-1" offset="100%" stop-color="#b3e8ff"/></linearGradient><linearGradient id="ey6f5Gsnrpe7-fill" x1="239.296" x2="239.296" y1="231.726" y2="389.181" gradientUnits="userSpaceOnUse" spreadMethod="pad"><stop id="ey6f5Gsnrpe7-fill-0" offset="0%" stop-color="#1b2d4b"/><stop id="ey6f5Gsnrpe7-fill-1" offset="100%" stop-color="#0040a0"/></linearGradient><linearGradient id="ey6f5Gsnrpe9-fill" x1="235.623" x2="235.623" y1="210.468" y2="266.58" gradientUnits="userSpaceOnUse" spreadMethod="pad"><stop id="ey6f5Gsnrpe9-fill-0" offset="0%" stop-color="#6b96af"/><stop id="ey6f5Gsnrpe9-fill-1" offset="100%" stop-color="#bcd9eb"/></linearGradient><linearGradient id="ey6f5Gsnrpe87-fill" x1="310.34" x2="360.314" y1="138.075" y2="138.075" gradientUnits="userSpaceOnUse" spreadMethod="pad"><stop id="ey6f5Gsnrpe87-fill-0" offset="0%" stop-color="#7ea5bd"/><stop id="ey6f5Gsnrpe87-fill-1" offset="100%" stop-color="#cddeec"/></linearGradient><linearGradient id="ey6f5Gsnrpe88-fill" x1="314.865" x2="352.346" y1="136.534" y2="136.534" gradientUnits="userSpaceOnUse" spreadMethod="pad"><stop id="ey6f5Gsnrpe88-fill-0" offset="0%" stop-color="#4c7792"/><stop id="ey6f5Gsnrpe88-fill-1" offset="100%" stop-color="rgba(126,165,189,0)"/></linearGradient><linearGradient id="ey6f5Gsnrpe90-fill" x1="169.109" x2="119.135" y1="138.075" y2="138.075" gradientUnits="userSpaceOnUse" spreadMethod="pad"><stop id="ey6f5Gsnrpe90-fill-0" offset="0%" stop-color="#7ea5bd"/><stop id="ey6f5Gsnrpe90-fill-1" offset="100%" stop-color="#cddeec"/></linearGradient><linearGradient id="ey6f5Gsnrpe91-fill" x1="162.053" x2="124.572" y1="136.534" y2="136.534" gradientUnits="userSpaceOnUse" spreadMethod="pad"><stop id="ey6f5Gsnrpe91-fill-0" offset="0%" stop-color="#4c7792"/><stop id="ey6f5Gsnrpe91-fill-1" offset="100%" stop-color="rgba(126,165,189,0)"/></linearGradient><linearGradient id="ey6f5Gsnrpe92-fill" x1="239.247" x2="239.247" y1="202.544" y2="216.531" gradientUnits="userSpaceOnUse" spreadMethod="pad"><stop id="ey6f5Gsnrpe92-fill-0" offset="0%" stop-color="#d1dcef"/><stop id="ey6f5Gsnrpe92-fill-1" offset="100%" stop-color="#bbefff"/></linearGradient><linearGradient id="ey6f5Gsnrpe99-fill" x1="240.139" x2="240.139" y1="96.466" y2="182.7" gradientUnits="userSpaceOnUse" spreadMethod="pad"><stop id="ey6f5Gsnrpe99-fill-0" offset="0%" stop-color="#00a8dd"/><stop id="ey6f5Gsnrpe99-fill-1" offset="100%" stop-color="#83e2fe"/></linearGradient><linearGradient id="ey6f5Gsnrpe101-fill" x1="238.057" x2="238.016" y1="101.718" y2="135.975" gradientUnits="userSpaceOnUse" spreadMethod="pad"><stop id="ey6f5Gsnrpe101-fill-0" offset="0%" stop-color="#17e1d5"/><stop id="ey6f5Gsnrpe101-fill-1" offset="100%" stop-color="rgba(23,225,213,0)"/></linearGradient><linearGradient id="ey6f5Gsnrpe114-fill" x1="240.584" x2="239.244" y1="164.263" y2="216.798" gradientUnits="userSpaceOnUse" spreadMethod="pad"><stop id="ey6f5Gsnrpe114-fill-0" offset="0%" stop-color="rgba(0,240,255,0)"/><stop id="ey6f5Gsnrpe114-fill-1" offset="100%" stop-color="#00f0ff"/></linearGradient><radialGradient id="ey6f5Gsnrpe10-fill" cx="0" cy="0" r="1" gradientTransform="matrix(29.927 -32.3319 29.3121 27.1318 225.381 146.964)" gradientUnits="userSpaceOnUse" spreadMethod="pad"><stop id="ey6f5Gsnrpe10-fill-0" offset="0%" stop-color="#2a65c9"/><stop id="ey6f5Gsnrpe10-fill-1" offset="100%" stop-color="#174ba5"/></radialGradient><radialGradient id="ey6f5Gsnrpe12-fill" cx="0" cy="0" r="1" gradientTransform="rotate(15 -1222.059 1117.974) scale(4.8629)" gradientUnits="userSpaceOnUse" spreadMethod="pad"><stop id="ey6f5Gsnrpe12-fill-0" offset="29.167%" stop-color="#9dfff9"/><stop id="ey6f5Gsnrpe12-fill-1" offset="100%" stop-color="rgba(162,199,255,0)"/></radialGradient><radialGradient id="ey6f5Gsnrpe15-fill" cx="0" cy="0" r="1" gradientTransform="rotate(15 -993.635 1032.625) scale(2.84177)" gradientUnits="userSpaceOnUse" spreadMethod="pad"><stop id="ey6f5Gsnrpe15-fill-0" offset="29.167%" stop-color="#9dfff9"/><stop id="ey6f5Gsnrpe15-fill-1" offset="100%" stop-color="rgba(162,199,255,0)"/></radialGradient><radialGradient id="ey6f5Gsnrpe18-fill" cx="0" cy="0" r="1" gradientTransform="rotate(15 -882.77 1324.866) scale(2.84177)" gradientUnits="userSpaceOnUse" spreadMethod="pad"><stop id="ey6f5Gsnrpe18-fill-0" offset="29.167%" stop-color="#9dfff9"/><stop id="ey6f5Gsnrpe18-fill-1" offset="100%" stop-color="rgba(162,199,255,0)"/></radialGradient><radialGradient id="ey6f5Gsnrpe21-fill" cx="0" cy="0" r="1" gradientTransform="rotate(15 -1161.51 892.122) scale(2.84177)" gradientUnits="userSpaceOnUse" spreadMethod="pad"><stop id="ey6f5Gsnrpe21-fill-0" offset="29.167%" stop-color="#9dfff9"/><stop id="ey6f5Gsnrpe21-fill-1" offset="100%" stop-color="rgba(162,199,255,0)"/></radialGradient><radialGradient id="ey6f5Gsnrpe24-fill" cx="0" cy="0" r="1" gradientTransform="rotate(15 -1136.405 859.862) scale(6.25573)" gradientUnits="userSpaceOnUse" spreadMethod="pad"><stop id="ey6f5Gsnrpe24-fill-0" offset="29.167%" stop-color="#9dfff9"/><stop id="ey6f5Gsnrpe24-fill-1" offset="100%" stop-color="rgba(162,199,255,0)"/></radialGradient><radialGradient id="ey6f5Gsnrpe48-fill" cx="0" cy="0" r="1" gradientTransform="matrix(7.27451 28.0193 -19.8847 5.16256 86.452 265.5)" gradientUnits="userSpaceOnUse" spreadMethod="pad"><stop id="ey6f5Gsnrpe48-fill-0" offset="0%" stop-color="#369fab"/><stop id="ey6f5Gsnrpe48-fill-1" offset="100%" stop-color="#369fab"/></radialGradient><radialGradient id="ey6f5Gsnrpe49-fill" cx="0" cy="0" r="1" gradientTransform="matrix(7.27451 28.0193 -19.8847 5.16256 86.452 265.5)" gradientUnits="userSpaceOnUse" spreadMethod="pad"><stop id="ey6f5Gsnrpe49-fill-0" offset="0%" stop-color="#369fab"/><stop id="ey6f5Gsnrpe49-fill-1" offset="100%" stop-color="#369fab"/></radialGradient><radialGradient id="ey6f5Gsnrpe96-fill" cx="0" cy="0" r="1" gradientTransform="matrix(-9.38631 43.8019 -49.1011 -10.5219 258.594 54.4)" gradientUnits="userSpaceOnUse" spreadMethod="pad"><stop id="ey6f5Gsnrpe96-fill-0" offset="0%" stop-color="#84e9ff"/><stop id="ey6f5Gsnrpe96-fill-1" offset="100%" stop-color="rgba(218,239,249,0.22)"/></radialGradient></defs><g clip-path="url(#ey6f5Gsnrpe118)"><g><path fill="url(#ey6f5Gsnrpe4-fill)" d="M56.36 443.906c1.089-115.999 51.457-207.009 182.74-207.009 127.908 0 176.493 96.056 176.493 206.758 0 33.706-359.555 34.525-359.233.251Z"/><g><path fill="#b3e9ff" d="M71.785 446.626c.996-103.559 47.038-184.809 167.046-184.809 116.923 0 161.334 85.755 161.334 184.586.001 30.09-328.674 30.822-328.38.223Z" filter="url(#ey6f5Gsnrpe6-filter)"/></g><path fill="url(#ey6f5Gsnrpe7-fill)" d="M344.73 267.331c-25.767 37.793-40.499 65.539-58.792 111.873-2.423 6.137-7.96 10.55-14.514 11.303-25.551 2.933-43.275 2.901-68.12.02-6.577-.762-12.12-5.216-14.517-11.388-17.45-44.956-31.361-72.287-56.654-113.446 32.621-22.316 80.307-33.092 112.434-33.09 31.233 0 69.186 13.091 100.163 34.728Z"/><path fill="#f7f8ff" d="M235.631 272.229c32.787 0 59.367-8.656 59.367-19.334s-26.58-19.334-59.367-19.334c-32.786 0-59.365 8.656-59.365 19.334s26.579 19.334 59.365 19.334Z"/><path fill="url(#ey6f5Gsnrpe9-fill)" d="M221.625 194.277c0-14.558 32.06-15.634 32.06 0 0 15.633 3.229 24.809 14.387 35.969 11.16 11.158 26.982 12.631 26.982 21.949s-25.9 18.023-56.8 18.051c-37.612.057-62.041-9.635-62.041-18.614 0-9.006 18.477-12.805 31.052-23.171s14.36-19.598 14.36-34.184Z"/><path fill="url(#ey6f5Gsnrpe10-fill)" d="M201.012 167.025c0 17.939 19.732 18.629 40.81 18.629s33.202-3.219 33.202-18.629c0-15.409-15.209-24.139-36.65-24.139-21.443 0-37.362 6.2-37.362 24.139Z"/><g id="ey6f5Gsnrpe11_to" transform="translate(247.68 354.505)"><g transform="translate(-247.68 -354.505)"><path fill="url(#ey6f5Gsnrpe12-fill)" d="M252.263 355.733a4.745 4.745 0 1 0-9.167-2.456 4.745 4.745 0 0 0 9.167 2.456Z"/><path fill="#fff" d="M248.528 355.969a1.692 1.692 0 1 0-1.693-2.93 1.692 1.692 0 0 0 1.693 2.93Z"/></g></g><g id="ey6f5Gsnrpe14_to" transform="translate(233.388 292.426)"><g transform="translate(-233.388 -292.426)"><path fill="url(#ey6f5Gsnrpe15-fill)" d="M236.066 293.144a2.772 2.772 0 1 0-5.356-1.436 2.772 2.772 0 0 0 5.356 1.436Z"/><path fill="#fff" d="M233.882 293.282a.989.989 0 1 0-.99-1.712.989.989 0 0 0 .99 1.712Z"/></g></g><g id="ey6f5Gsnrpe17_to" transform="translate(312.802 273.691)"><g transform="translate(-312.802 -273.691)"><path fill="url(#ey6f5Gsnrpe18-fill)" d="M315.48 274.409a2.772 2.772 0 1 0-5.356-1.436 2.772 2.772 0 0 0 5.356 1.436Z"/><path fill="#fff" d="M313.296 274.547a.988.988 0 1 0-.989-1.712.99.99 0 1 0 .989 1.712Z"/></g></g><g id="ey6f5Gsnrpe20_to" transform="translate(191.302 331.089)"><g transform="translate(-191.302 -331.089)"><path fill="url(#ey6f5Gsnrpe21-fill)" d="M193.98 331.806a2.772 2.772 0 1 0-5.356-1.434 2.772 2.772 0 0 0 5.356 1.434Z"/><path fill="#fff" d="M191.796 331.946a.988.988 0 1 0-.988-1.712.988.988 0 0 0 .988 1.712Z"/></g></g><g id="ey6f5Gsnrpe23_to" transform="translate(183.784 323.576)"><g transform="translate(-183.784 -323.575)"><path fill="url(#ey6f5Gsnrpe24-fill)" d="M189.679 325.155a6.104 6.104 0 1 0-11.792-3.158 6.104 6.104 0 0 0 11.792 3.158Z"/><path fill="#fff" d="M184.873 325.462a2.176 2.176 0 1 0-2.175-3.77 2.176 2.176 0 0 0 2.175 3.77Z"/></g></g><g id="ey6f5Gsnrpe26_to" transform="translate(389 152.5)"><g id="ey6f5Gsnrpe26_ts" transform="scale(0)"><g fill-rule="evenodd" clip-rule="evenodd" transform="translate(-389 -152.5)"><path fill="#369fab" stroke="#47ecff" d="M392.188 145.208c0-.817-.735-1.476-1.499-1.94.136-.171.281-.329.437-.468.479-.412 1.062-.618 1.667-.782.041 0 .083-.021.125-.041.25-.145.333-.474.187-.721s-.479-.329-.729-.185c-.334.165-.625.37-.917.597a3.431 3.431 0 0 0-.75.803 5.62 5.62 0 0 0-.333.618 8.52 8.52 0 0 0-.637-.311 1.765 1.765 0 0 0-1.469.023c-.22.103-.472.231-.728.381a3.067 3.067 0 0 0-.376-.711 3.431 3.431 0 0 0-.75-.803 8.563 8.563 0 0 0-.917-.597.324.324 0 0 0-.062-.021c-.021-.005-.042-.01-.063-.02-.292-.083-.563.082-.646.37s.083.556.375.638c.605.165 1.188.371 1.667.782.175.158.338.339.489.535-.736.474-1.426 1.115-1.426 1.853 0 .871.47 1.648 1.201 2.154-.343.193-.65.436-.914.721a1.22 1.22 0 0 0-.058-.014c-3.626-.803-8.94-1.75-12.087-2.244-1.125-.164-1.792.494-1.938 1.215-.166.823.23 1.873 1.063 2.84a6.92 6.92 0 0 0 3.522 2.1c.234.061.477.111.727.151a1.814 1.814 0 0 0-.06.507c.021 1.503 1.563 2.532 2.917 2.532 2.253 0 4.078-1.386 5.251-2.593.142.308.322.592.534.847-.59.927-.909 2.143-.909 3.516 0 2.943 1.501 7.06 3.939 7.06s3.938-4.117 3.897-7.06c0-1.362-.313-2.564-.893-3.485.212-.249.393-.527.537-.829 1.174 1.202 2.984 2.544 5.211 2.544 1.355 0 2.897-1.05 2.917-2.532 0-.169-.022-.339-.069-.505.259-.04.512-.091.757-.153a6.92 6.92 0 0 0 3.522-2.1c.833-.946 1.229-2.017 1.063-2.84-.146-.741-.813-1.4-1.938-1.214-3.147.494-8.44 1.44-12.087 2.243l-.024.006a3.76 3.76 0 0 0-.912-.716c.731-.509 1.198-1.29 1.186-2.151Zm-1.464 9.229a4.065 4.065 0 0 1-1.703.363 4.048 4.048 0 0 1-1.745-.383c-.334.583-.526 1.35-.562 2.22l.077.046c.234.138.462.273.709.381.208.121.423.22.646.303.125.046.119.229-.013.25a4.884 4.884 0 0 1-.779.064c-.206.01-.411.006-.614-.001.059.689.196 1.366.381 1.982.147.086.292.168.441.242.2.111.407.207.622.289.122.046.117.222-.011.245a5.985 5.985 0 0 1-.736.083l-.01.001c.463 1.112 1.07 1.873 1.573 1.873.501 0 1.105-.754 1.567-1.859a8.293 8.293 0 0 1-.677-.096c-.129-.024-.134-.201-.011-.246a6.53 6.53 0 0 0 .979-.463c.196-.633.34-1.334.402-2.049a7.232 7.232 0 0 1-.551-.001c-.263 0-.526-.022-.78-.062-.132-.021-.136-.202-.01-.246.232-.081.452-.178.665-.289.226-.118.452-.245.683-.374l.021-.012c-.03-.885-.225-1.661-.564-2.261Zm-1.331-10.216a1.011 1.011 0 0 0-.74.013c-.462.188-1.195.552-1.195.953 0 .587.708 1.153 1.563 1.153.833 0 1.563-.462 1.563-1.153.012-.443-.725-.79-1.191-.966Zm-.372 4.26c-1.355 0-2.292.967-2.292 2.346s.937 2.347 2.292 2.347c1.354 0 2.292-.968 2.292-2.347s-.938-2.346-2.292-2.346Zm11.919 1.77c-2.5.597-6.23-.165-7.981-.577 3.418-.72 8.232-1.584 11.232-2.058-.166.659-1.208 2.141-3.251 2.635Zm-6.459 1.708c.875.741 2.021 1.42 3.292 1.42.479 0 .813-.247.979-.473.125-.165.125-.288.125-.329-.02-.021-.166-.124-.562-.144-1.188-.021-2.438-.186-3.834-.474Zm-20.693-4.343c.146.659 1.188 2.141 3.251 2.635 2.479.597 6.23-.165 7.981-.577-3.418-.72-8.231-1.584-11.232-2.058Zm5.876 4.816a22.661 22.661 0 0 0 3.835-.473c-.876.762-2.022 1.42-3.293 1.42a1.24 1.24 0 0 1-.979-.473c-.125-.185-.125-.309-.125-.329.021-.042.166-.124.562-.145Z"/><path fill="#369fab" d="M392.188 145.208c0-.817-.735-1.476-1.499-1.94.136-.171.281-.329.437-.468.479-.412 1.062-.618 1.667-.782.041 0 .083-.021.125-.041.25-.145.333-.474.187-.721s-.479-.329-.729-.185c-.334.165-.625.37-.917.597a3.431 3.431 0 0 0-.75.803 5.62 5.62 0 0 0-.333.618 8.52 8.52 0 0 0-.637-.311 1.765 1.765 0 0 0-1.469.023c-.22.103-.472.231-.728.381a3.067 3.067 0 0 0-.376-.711 3.431 3.431 0 0 0-.75-.803 8.563 8.563 0 0 0-.917-.597.324.324 0 0 0-.062-.021c-.021-.005-.042-.01-.063-.02-.292-.083-.563.082-.646.37s.083.556.375.638c.605.165 1.188.371 1.667.782.175.158.338.339.489.535-.736.474-1.426 1.115-1.426 1.853 0 .871.47 1.648 1.201 2.154-.343.193-.65.436-.914.721a1.22 1.22 0 0 0-.058-.014c-3.626-.803-8.94-1.75-12.087-2.244-1.125-.164-1.792.494-1.938 1.215-.166.823.23 1.873 1.063 2.84a6.92 6.92 0 0 0 3.522 2.1c.234.061.477.111.727.151a1.814 1.814 0 0 0-.06.507c.021 1.503 1.563 2.532 2.917 2.532 2.253 0 4.078-1.386 5.251-2.593.142.308.322.592.534.847-.59.927-.909 2.143-.909 3.516 0 2.943 1.501 7.06 3.939 7.06s3.938-4.117 3.897-7.06c0-1.362-.313-2.564-.893-3.485.212-.249.393-.527.537-.829 1.174 1.202 2.984 2.544 5.211 2.544 1.355 0 2.897-1.05 2.917-2.532 0-.169-.022-.339-.069-.505.259-.04.512-.091.757-.153a6.92 6.92 0 0 0 3.522-2.1c.833-.946 1.229-2.017 1.063-2.84-.146-.741-.813-1.4-1.938-1.214-3.147.494-8.44 1.44-12.087 2.243l-.024.006a3.76 3.76 0 0 0-.912-.716c.731-.509 1.198-1.29 1.186-2.151Zm-1.464 9.229a4.065 4.065 0 0 1-1.703.363 4.048 4.048 0 0 1-1.745-.383c-.334.583-.526 1.35-.562 2.22l.077.046c.234.138.462.273.709.381.208.121.423.22.646.303.125.046.119.229-.013.25a4.884 4.884 0 0 1-.779.064c-.206.01-.411.006-.614-.001.059.689.196 1.366.381 1.982.147.086.292.168.441.242.2.111.407.207.622.289.122.046.117.222-.011.245a5.985 5.985 0 0 1-.736.083l-.01.001c.463 1.112 1.07 1.873 1.573 1.873.501 0 1.105-.754 1.567-1.859a8.293 8.293 0 0 1-.677-.096c-.129-.024-.134-.201-.011-.246a6.53 6.53 0 0 0 .979-.463c.196-.633.34-1.334.402-2.049a7.232 7.232 0 0 1-.551-.001c-.263 0-.526-.022-.78-.062-.132-.021-.136-.202-.01-.246.232-.081.452-.178.665-.289.226-.118.452-.245.683-.374l.021-.012c-.03-.885-.225-1.661-.564-2.261Zm-1.331-10.216a1.011 1.011 0 0 0-.74.013c-.462.188-1.195.552-1.195.953 0 .587.708 1.153 1.563 1.153.833 0 1.563-.462 1.563-1.153.012-.443-.725-.79-1.191-.966Zm-.372 4.26c-1.355 0-2.292.967-2.292 2.346s.937 2.347 2.292 2.347c1.354 0 2.292-.968 2.292-2.347s-.938-2.346-2.292-2.346Zm11.919 1.77c-2.5.597-6.23-.165-7.981-.577 3.418-.72 8.232-1.584 11.232-2.058-.166.659-1.208 2.141-3.251 2.635Zm-6.459 1.708c.875.741 2.021 1.42 3.292 1.42.479 0 .813-.247.979-.473.125-.165.125-.288.125-.329-.02-.021-.166-.124-.562-.144-1.188-.021-2.438-.186-3.834-.474Zm-20.693-4.343c.146.659 1.188 2.141 3.251 2.635 2.479.597 6.23-.165 7.981-.577-3.418-.72-8.231-1.584-11.232-2.058Zm5.876 4.816a22.661 22.661 0 0 0 3.835-.473c-.876.762-2.022 1.42-3.293 1.42a1.24 1.24 0 0 1-.979-.473c-.125-.185-.125-.309-.125-.329.021-.042.166-.124.562-.145Z" filter="url(#ey6f5Gsnrpe28-filter)"/><path fill="none" stroke="#47ecff" stroke-width=".5" d="M392.188 145.208c0-.817-.735-1.476-1.499-1.94.136-.171.281-.329.437-.468.479-.412 1.062-.618 1.667-.782.041 0 .083-.021.125-.041.25-.145.333-.474.187-.721s-.479-.329-.729-.185c-.334.165-.625.37-.917.597a3.431 3.431 0 0 0-.75.803 5.62 5.62 0 0 0-.333.618 8.52 8.52 0 0 0-.637-.311 1.765 1.765 0 0 0-1.469.023c-.22.103-.472.231-.728.381a3.067 3.067 0 0 0-.376-.711 3.431 3.431 0 0 0-.75-.803 8.563 8.563 0 0 0-.917-.597.324.324 0 0 0-.062-.021c-.021-.005-.042-.01-.063-.02-.292-.083-.563.082-.646.37s.083.556.375.638c.605.165 1.188.371 1.667.782.175.158.338.339.489.535-.736.474-1.426 1.115-1.426 1.853 0 .871.47 1.648 1.201 2.154-.343.193-.65.436-.914.721a1.22 1.22 0 0 0-.058-.014c-3.626-.803-8.94-1.75-12.087-2.244-1.125-.164-1.792.494-1.938 1.215-.166.823.23 1.873 1.063 2.84a6.92 6.92 0 0 0 3.522 2.1c.234.061.477.111.727.151a1.814 1.814 0 0 0-.06.507c.021 1.503 1.563 2.532 2.917 2.532 2.253 0 4.078-1.386 5.251-2.593.142.308.322.592.534.847-.59.927-.909 2.143-.909 3.516 0 2.943 1.501 7.06 3.939 7.06s3.938-4.117 3.897-7.06c0-1.362-.313-2.564-.893-3.485.212-.249.393-.527.537-.829 1.174 1.202 2.984 2.544 5.211 2.544 1.355 0 2.897-1.05 2.917-2.532 0-.169-.022-.339-.069-.505.259-.04.512-.091.757-.153a6.92 6.92 0 0 0 3.522-2.1c.833-.946 1.229-2.017 1.063-2.84-.146-.741-.813-1.4-1.938-1.214-3.147.494-8.44 1.44-12.087 2.243l-.024.006a3.76 3.76 0 0 0-.912-.716c.731-.509 1.198-1.29 1.186-2.151Zm-1.464 9.229a4.065 4.065 0 0 1-1.703.363 4.048 4.048 0 0 1-1.745-.383c-.334.583-.526 1.35-.562 2.22l.077.046c.234.138.462.273.709.381.208.121.423.22.646.303.125.046.119.229-.013.25a4.884 4.884 0 0 1-.779.064c-.206.01-.411.006-.614-.001.059.689.196 1.366.381 1.982.147.086.292.168.441.242.2.111.407.207.622.289.122.046.117.222-.011.245a5.985 5.985 0 0 1-.736.083l-.01.001c.463 1.112 1.07 1.873 1.573 1.873.501 0 1.105-.754 1.567-1.859a8.293 8.293 0 0 1-.677-.096c-.129-.024-.134-.201-.011-.246a6.53 6.53 0 0 0 .979-.463c.196-.633.34-1.334.402-2.049a7.232 7.232 0 0 1-.551-.001c-.263 0-.526-.022-.78-.062-.132-.021-.136-.202-.01-.246.232-.081.452-.178.665-.289.226-.118.452-.245.683-.374l.021-.012c-.03-.885-.225-1.661-.564-2.261Zm-1.331-10.216a1.011 1.011 0 0 0-.74.013c-.462.188-1.195.552-1.195.953 0 .587.708 1.153 1.563 1.153.833 0 1.563-.462 1.563-1.153.012-.443-.725-.79-1.191-.966Zm-.372 4.26c-1.355 0-2.292.967-2.292 2.346s.937 2.347 2.292 2.347c1.354 0 2.292-.968 2.292-2.347s-.938-2.346-2.292-2.346Zm11.919 1.77c-2.5.597-6.23-.165-7.981-.577 3.418-.72 8.232-1.584 11.232-2.058-.166.659-1.208 2.141-3.251 2.635Zm-6.459 1.708c.875.741 2.021 1.42 3.292 1.42.479 0 .813-.247.979-.473.125-.165.125-.288.125-.329-.02-.021-.166-.124-.562-.144-1.188-.021-2.438-.186-3.834-.474Zm-20.693-4.343c.146.659 1.188 2.141 3.251 2.635 2.479.597 6.23-.165 7.981-.577-3.418-.72-8.231-1.584-11.232-2.058Zm5.876 4.816a22.661 22.661 0 0 0 3.835-.473c-.876.762-2.022 1.42-3.293 1.42a1.24 1.24 0 0 1-.979-.473c-.125-.185-.125-.309-.125-.329.021-.042.166-.124.562-.145Z"/></g></g></g><g id="ey6f5Gsnrpe30_to" transform="translate(40 201)"><g id="ey6f5Gsnrpe30_ts" transform="scale(0)"><g transform="translate(-40 -201)"><path fill="#7adffd" d="M49.248 197.44c2.436-1.563 4-4.086 4.55-7.279.391-2.367.093-4.265.093-4.354-.046-.335-.276-.603-.598-.737s-.69-.067-.942.134l-14.779 11.097c.253-.982.07-1.987-.528-2.791-.965-1.25-2.597-1.474-3.884-.982l-.184-.112c-.943-.603-1.93-.737-2.92-.38-1.907.693-3.4 3.149-4.044 5.27a.377.377 0 0 0 .23.447.355.355 0 0 0 .16.022.381.381 0 0 0 .345-.201c1.012-1.987 2.69-3.707 3.907-3.997.345-.089.644-.045.897.112l.069.044c-.644.782-1.035 1.787-1.172 2.97-.138 1.228.046 2.568.46 3.483.16.358.505.559.896.559.092 0 .206-.023.298-.045.897-.29 2.345-.849 3.54-1.719-.161.335-.253.692-.276 1.071-.069.871.207 1.72.782 2.39a3.366 3.366 0 0 0 2.298 1.161c.092 0 .207.022.299.022h.092c-.828 1.139-1.127 2.746-.345 4.51 1.7 3.796-.437 6.32-1.954 7.213-.345.201-.528.603-.413.982.114.38.46.648.873.67h.414c5.47 0 7.883-2.612 8.848-4.198 1.54-2.545 1.471-5.828-.184-8.552-.85-1.407-2.505-2.568-4.366-2.322.23-.402.367-.826.413-1.295a2.937 2.937 0 0 0-.23-1.474c.437.045.874.067 1.333.067 1.862-.067 4-.469 6.022-1.786Zm-16.824 1.094a5.683 5.683 0 0 1-.069-1.675c.092-.781.368-1.831 1.241-2.433.207-.157.529-.246.85-.246.368 0 .76.134 1.012.469.46.625.253 1.451-.16 1.987-.553.692-1.564 1.384-2.874 1.898Zm6.16 3.148c-.391-.022-.736-.201-.989-.491s-.367-.647-.344-1.027.206-.714.505-.96c.253-.223.598-.335.92-.335h.115c.39.022.735.201.988.491s.368.648.345 1.027c-.023.38-.207.715-.506.96-.276.246-.644.358-1.034.335Zm3.631 1.943c.598 0 1.241.246 1.816.871a.208.208 0 0 1 .046.223c-.345.715-1.08 1.585-1.793 2.032a.282.282 0 0 0-.115.335c.046.134.207.201.345.179.574-.112 1.402-.425 2.091-.849.07-.045.115-.067.184-.112.115-.089.3-.022.345.112.299.826.437 1.675.414 2.501a.216.216 0 0 1-.161.201c-.736.246-1.609.379-2.298.268-.161-.022-.322.022-.368.178-.07.157.023.291.16.38a7.77 7.77 0 0 0 2.07.782c.137.022.229.178.16.29a5.59 5.59 0 0 1-.414.826 5.526 5.526 0 0 1-.896 1.139.249.249 0 0 1-.276.044 5.366 5.366 0 0 1-.965-.602.226.226 0 0 0-.322 0c-.092.067-.138.223-.069.335.115.223.322.513.552.826.069.111.046.245-.046.312a8.57 8.57 0 0 1-2.505 1.005c-.207.045-.345-.156-.253-.335 1.402-2.21 1.264-5.002.299-7.167-.759-1.697 0-3.015 1.034-3.506.23-.179.574-.268.965-.268Zm-2.16-6.788 11.997-9.021c-.023 2.188-.598 5.94-3.884 8.061-2.896 1.853-6.206 1.451-8.113.96Z" filter="url(#ey6f5Gsnrpe31-filter)"/><path fill="#10a299" d="M48.248 197.44c2.436-1.563 4-4.086 4.55-7.279.391-2.367.093-4.265.093-4.354-.046-.335-.276-.603-.598-.737s-.69-.067-.942.134l-14.779 11.097c.253-.982.07-1.987-.528-2.791-.965-1.25-2.597-1.474-3.884-.982l-.184-.112c-.943-.603-1.93-.737-2.92-.38-1.907.693-3.4 3.149-4.044 5.27a.377.377 0 0 0 .23.447.355.355 0 0 0 .16.022.381.381 0 0 0 .345-.201c1.012-1.987 2.69-3.707 3.907-3.997.345-.089.644-.045.897.112l.069.044c-.644.782-1.035 1.787-1.172 2.97-.138 1.228.046 2.568.46 3.483.16.358.505.559.896.559.092 0 .206-.023.298-.045.897-.29 2.345-.849 3.54-1.719-.161.335-.253.692-.276 1.071-.069.871.207 1.72.782 2.39a3.366 3.366 0 0 0 2.298 1.161c.092 0 .207.022.299.022h.092c-.828 1.139-1.127 2.746-.345 4.51 1.7 3.796-.437 6.32-1.954 7.213-.345.201-.528.603-.413.982.114.38.46.648.873.67h.414c5.47 0 7.883-2.612 8.848-4.198 1.54-2.545 1.471-5.828-.184-8.552-.85-1.407-2.505-2.568-4.367-2.322.23-.402.368-.826.414-1.295a2.937 2.937 0 0 0-.23-1.474c.437.045.874.067 1.333.067 1.862-.067 4-.469 6.022-1.786Zm-16.824 1.094a5.683 5.683 0 0 1-.069-1.675c.092-.781.368-1.831 1.241-2.433.207-.157.529-.246.85-.246.368 0 .76.134 1.012.469.46.625.253 1.451-.16 1.987-.553.692-1.564 1.384-2.874 1.898Zm6.16 3.148c-.391-.022-.736-.201-.989-.491s-.367-.647-.344-1.027.206-.714.505-.96c.253-.223.598-.335.92-.335h.115c.39.022.735.201.988.491s.368.648.345 1.027c-.023.38-.207.715-.506.96-.276.246-.644.358-1.034.335Zm3.631 1.943c.598 0 1.241.246 1.816.871a.208.208 0 0 1 .046.223c-.345.715-1.08 1.585-1.793 2.032a.282.282 0 0 0-.115.335c.046.134.207.201.345.179.574-.112 1.402-.425 2.091-.849.07-.045.115-.067.184-.112.115-.089.3-.022.345.112.299.826.437 1.675.414 2.501a.216.216 0 0 1-.161.201c-.736.246-1.609.379-2.298.268-.161-.022-.322.022-.368.178-.07.157.023.291.16.38a7.77 7.77 0 0 0 2.07.782c.137.022.229.178.16.29a5.59 5.59 0 0 1-.414.826 5.526 5.526 0 0 1-.896 1.139.249.249 0 0 1-.276.044 5.366 5.366 0 0 1-.965-.602.226.226 0 0 0-.322 0c-.092.067-.138.223-.069.335.115.223.322.513.552.826.069.111.046.245-.046.312a8.57 8.57 0 0 1-2.505 1.005c-.207.045-.345-.156-.253-.335 1.402-2.21 1.264-5.002.299-7.167-.759-1.697 0-3.015 1.034-3.506.23-.179.574-.268.965-.268Zm-2.16-6.788 11.997-9.021c-.023 2.188-.598 5.94-3.884 8.061-2.896 1.853-6.206 1.451-8.113.96Z"/><path fill="none" stroke="#7adffd" d="M49.248 197.44c2.436-1.563 4-4.086 4.55-7.279.391-2.367.093-4.265.093-4.354-.046-.335-.276-.603-.598-.737s-.69-.067-.942.134l-14.779 11.097c.253-.982.07-1.987-.528-2.791-.965-1.25-2.597-1.474-3.884-.982l-.184-.112c-.943-.603-1.93-.737-2.92-.38-1.907.693-3.4 3.149-4.044 5.27a.377.377 0 0 0 .23.447.355.355 0 0 0 .16.022.381.381 0 0 0 .345-.201c1.012-1.987 2.69-3.707 3.907-3.997.345-.089.644-.045.897.112l.069.044c-.644.782-1.035 1.787-1.172 2.97-.138 1.228.046 2.568.46 3.483.16.358.505.559.896.559.092 0 .206-.023.298-.045.897-.29 2.345-.849 3.54-1.719-.161.335-.253.692-.276 1.071-.069.871.207 1.72.782 2.39a3.366 3.366 0 0 0 2.298 1.161c.092 0 .207.022.299.022h.092c-.828 1.139-1.127 2.746-.345 4.51 1.7 3.796-.437 6.32-1.954 7.213-.345.201-.528.603-.413.982.114.38.46.648.873.67h.414c5.47 0 7.883-2.612 8.848-4.198 1.54-2.545 1.471-5.828-.184-8.552-.85-1.407-2.505-2.568-4.366-2.322.23-.402.367-.826.413-1.295a2.937 2.937 0 0 0-.23-1.474c.437.045.874.067 1.333.067 1.862-.067 4-.469 6.022-1.786Zm-16.824 1.094a5.683 5.683 0 0 1-.069-1.675c.092-.781.368-1.831 1.241-2.433.207-.157.529-.246.85-.246.368 0 .76.134 1.012.469.46.625.253 1.451-.16 1.987-.553.692-1.564 1.384-2.874 1.898Zm6.16 3.148c-.391-.022-.736-.201-.989-.491s-.367-.647-.344-1.027.206-.714.505-.96c.253-.223.598-.335.92-.335h.115c.39.022.735.201.988.491s.368.648.345 1.027c-.023.38-.207.715-.506.96-.276.246-.644.358-1.034.335Zm3.631 1.943c.598 0 1.241.246 1.816.871a.208.208 0 0 1 .046.223c-.345.715-1.08 1.585-1.793 2.032a.282.282 0 0 0-.115.335c.046.134.207.201.345.179.574-.112 1.402-.425 2.091-.849.07-.045.115-.067.184-.112.115-.089.3-.022.345.112.299.826.437 1.675.414 2.501a.216.216 0 0 1-.161.201c-.736.246-1.609.379-2.298.268-.161-.022-.322.022-.368.178-.07.157.023.291.16.38a7.77 7.77 0 0 0 2.07.782c.137.022.229.178.16.29a5.59 5.59 0 0 1-.414.826 5.526 5.526 0 0 1-.896 1.139.249.249 0 0 1-.276.044 5.366 5.366 0 0 1-.965-.602.226.226 0 0 0-.322 0c-.092.067-.138.223-.069.335.115.223.322.513.552.826.069.111.046.245-.046.312a8.57 8.57 0 0 1-2.505 1.005c-.207.045-.345-.156-.253-.335 1.402-2.21 1.264-5.002.299-7.167-.759-1.697 0-3.015 1.034-3.506.23-.179.574-.268.965-.268Zm-2.16-6.788 11.997-9.021c-.023 2.188-.598 5.94-3.884 8.061-2.896 1.853-6.206 1.451-8.113.96Z" transform="translate(-1)"/></g></g></g><g id="ey6f5Gsnrpe34_to" transform="translate(387 269)"><g id="ey6f5Gsnrpe34_ts" transform="scale(0)"><g stroke="#47ecff" transform="translate(-387 -269)"><path fill="none" stroke-width="3" d="m392.055 251.722.243-.437-.243.437c.416.232.646.664.611 1.104l-.186 2.341a2.157 2.157 0 0 0 1.045 2.012l2.226 1.356c1.107.674 2.588.297 3.195-.848l.271-.511c.319-.601 1.118-.839 1.75-.487l2.184 1.217c1.413.788 2.146 2.331 1.858 3.852l-2.787 14.729c-.405 2.142-1.717 4.033-3.632 5.221l-10.426 6.464a2.209 2.209 0 0 1-2.297.012l-10.642-6.44c-1.994-1.207-3.348-3.172-3.73-5.392l-2.515-14.627c-.259-1.504.476-3.017 1.869-3.794l2.433-1.356c.632-.352 1.431-.114 1.75.488l.331.624c.608 1.145 2.089 1.522 3.196.848l2.225-1.356a2.16 2.16 0 0 0 1.046-2.012l-.198-2.483c-.034-.44.195-.871.611-1.103l2.83-1.577a4.022 4.022 0 0 1 3.899 0l3.083 1.718Zm-2.617 20.216c1.455-.799 2.449-2.313 2.449-4.06 0-2.598-2.187-4.669-4.841-4.669s-4.84 2.071-4.84 4.669c0 1.657.893 3.103 2.226 3.93v4.515c0 1.358 1.14 2.425 2.503 2.425s2.503-1.067 2.503-2.425v-4.385Z" filter="url(#ey6f5Gsnrpe36-filter)"/><path fill="#369fab" d="m392.055 251.722.243-.437-.243.437c.416.232.646.664.611 1.104l-.186 2.341a2.157 2.157 0 0 0 1.045 2.012l2.226 1.356c1.107.674 2.588.297 3.195-.848l.271-.511c.319-.601 1.118-.839 1.75-.487l2.184 1.217c1.413.788 2.146 2.331 1.858 3.852l-2.787 14.729c-.405 2.142-1.717 4.033-3.632 5.221l-10.426 6.464a2.209 2.209 0 0 1-2.297.012l-10.642-6.44c-1.994-1.207-3.348-3.172-3.73-5.392l-2.515-14.627c-.259-1.504.476-3.017 1.869-3.794l2.433-1.356c.632-.352 1.431-.114 1.75.488l.331.624c.608 1.145 2.089 1.522 3.196.848l2.225-1.356a2.16 2.16 0 0 0 1.046-2.012l-.198-2.483c-.034-.44.195-.871.611-1.103l2.83-1.577a4.022 4.022 0 0 1 3.899 0l3.083 1.718Zm-2.617 20.216c1.455-.799 2.449-2.313 2.449-4.06 0-2.598-2.187-4.669-4.841-4.669s-4.84 2.071-4.84 4.669c0 1.657.893 3.103 2.226 3.93v4.515c0 1.358 1.14 2.425 2.503 2.425s2.503-1.067 2.503-2.425v-4.385Z"/></g></g></g><g id="ey6f5Gsnrpe38_to" transform="translate(435.52 202.544)"><g id="ey6f5Gsnrpe38_ts"><g fill="#369fab" fill-rule="evenodd" stroke="#47ecff" stroke-linejoin="round" clip-rule="evenodd" transform="translate(-435.52 -202.544)"><g filter="url(#ey6f5Gsnrpe39-filter)"><path d="M423.719 191.684c0-.533.431-.965.963-.965h10.838c2.425 0 4.681.733 6.557 1.992.442.296.561.896.265 1.339s-.894.562-1.337.265a9.807 9.807 0 0 0-5.485-1.666h-10.838a.964.964 0 0 1-.963-.965Zm19.791 3.46a.963.963 0 0 1 1.352.173 11.793 11.793 0 0 1 2.46 7.227c0 4.697-2.733 8.752-6.687 10.66a.965.965 0 0 1-.836-1.739 9.898 9.898 0 0 0 5.596-8.921 9.855 9.855 0 0 0-2.058-6.046.967.967 0 0 1 .173-1.354Zm-19.791 18.26c0-.533.431-.965.963-.965h12.283a.965.965 0 0 1 0 1.93h-12.283a.964.964 0 0 1-.963-.965Z"/><path d="M425.645 196.028c0-.533.431-.966.963-.966h8.911a7.456 7.456 0 0 1 6.114 3.186.966.966 0 0 1-.235 1.345.962.962 0 0 1-1.342-.235 5.53 5.53 0 0 0-4.537-2.365h-8.911a.964.964 0 0 1-.963-.965Zm16.377 5.551c.532 0 .963.432.963.965 0 4.132-3.342 7.481-7.466 7.481h-8.911a.964.964 0 0 1 0-1.93h8.911c3.06 0 5.54-2.486 5.54-5.551 0-.533.431-.965.963-.965Z"/><path d="M427.091 200.131c0-.533.431-.965.963-.965h6.984c1.863 0 3.372 1.512 3.372 3.378s-1.509 3.379-3.372 3.379a.964.964 0 0 1-.963-.965c0-.534.431-.966.963-.966.799 0 1.446-.648 1.446-1.448s-.647-1.448-1.446-1.448h-6.984a.964.964 0 0 1-.963-.965Zm0 4.827c0-.534.431-.966.963-.966h3.372c.532 0 .963.432.963.966a.964.964 0 0 1-.963.965h-3.372a.964.964 0 0 1-.963-.965Z"/></g><g><path d="M423.719 191.684c0-.533.431-.965.963-.965h10.838c2.425 0 4.681.733 6.557 1.992.442.296.561.896.265 1.339s-.894.562-1.337.265a9.807 9.807 0 0 0-5.485-1.666h-10.838a.964.964 0 0 1-.963-.965Zm19.791 3.46a.963.963 0 0 1 1.352.173 11.793 11.793 0 0 1 2.46 7.227c0 4.697-2.733 8.752-6.687 10.66a.965.965 0 0 1-.836-1.739 9.898 9.898 0 0 0 5.596-8.921 9.855 9.855 0 0 0-2.058-6.046.967.967 0 0 1 .173-1.354Zm-19.791 18.26c0-.533.431-.965.963-.965h12.283a.965.965 0 0 1 0 1.93h-12.283a.964.964 0 0 1-.963-.965Z"/><path d="M425.645 196.028c0-.533.431-.966.963-.966h8.911a7.456 7.456 0 0 1 6.114 3.186.966.966 0 0 1-.235 1.345.962.962 0 0 1-1.342-.235 5.53 5.53 0 0 0-4.537-2.365h-8.911a.964.964 0 0 1-.963-.965Zm16.377 5.551c.532 0 .963.432.963.965 0 4.132-3.342 7.481-7.466 7.481h-8.911a.964.964 0 0 1 0-1.93h8.911c3.06 0 5.54-2.486 5.54-5.551 0-.533.431-.965.963-.965Z"/><path d="M427.091 200.131c0-.533.431-.965.963-.965h6.984c1.863 0 3.372 1.512 3.372 3.378s-1.509 3.379-3.372 3.379a.964.964 0 0 1-.963-.965c0-.534.431-.966.963-.966.799 0 1.446-.648 1.446-1.448s-.647-1.448-1.446-1.448h-6.984a.964.964 0 0 1-.963-.965Zm0 4.827c0-.534.431-.966.963-.966h3.372c.532 0 .963.432.963.966a.964.964 0 0 1-.963.965h-3.372a.964.964 0 0 1-.963-.965Z"/></g></g></g></g><g id="ey6f5Gsnrpe47_to" transform="translate(86.451 265.5)"><g id="ey6f5Gsnrpe47_ts" transform="scale(0)"><g fill-rule="evenodd" clip-rule="evenodd" transform="translate(-86.451 -265.5)"><path fill="url(#ey6f5Gsnrpe48-fill)" stroke="#47ecff" stroke-linecap="round" stroke-linejoin="round" d="M85.123 248.122c-.643 0-1.236.183-1.736.503-.22-.437-.468-.867-.748-1.286-.878-1.317-1.805-2.139-2.848-2.892-2.234-1.506-5.285-2.46-6.999-2.447s-1.926 3.09.15 3.012c4.103-.156 7.47.613 9.959 3.997-.648.62-1.047 1.518-1.047 2.535 0 1.698 1.112 3.062 2.635 3.362-.682.301-1.301.746-1.984 1.259-.032.03-.145.123-.326.271-1.735 1.424-9.676 7.941-11.713 12.914-2.155 5.158 1.37 9.747 1.865 10.393l.048.062c.61.817 2.075.727 2.475-.211l7.843-16.956a4.96 4.96 0 0 0 1.104.807c.571.493.919 1.179.919 1.735 0 .613-.217.77-1.183 1.471l-.15.11c-.059.042-.09.082-.1.119-1.299.925-2.216 2.421-2.417 4.21a1.937 1.937 0 0 0-.008.083c-.239 3.467-.264 8.732.904 12.616l.017.054c.477 1.426 1.044 2.633 1.723 3.517.672.873 1.627 1.64 2.85 1.64s2.177-.767 2.849-1.64c.675-.879 1.24-2.076 1.714-3.491 1.436-3.93 1.405-9.216 1.046-12.721a5.58 5.58 0 0 0-3.053-4.663c-.796-.565-.904-.744-.904-1.305 0-.635.815-1.429 1.56-1.951.046-.033.06-.064.047-.092.213-.149.412-.313.595-.49l7.84 16.947c.399.938 1.864 1.028 2.475.211l.046-.062h.001c.496-.646 4.02-5.235 1.865-10.393-2.111-5.153-10.441-11.918-11.862-13.071l-.14-.114c-.5-.41-1.217-.909-2.05-1.254 1.538-.288 2.664-1.659 2.664-3.367 0-1.025-.406-1.93-1.063-2.551 2.488-3.37 5.85-4.137 9.948-3.981 2.076.078 1.863-2.999.149-3.012-1.714-.013-4.765.941-6.999 2.447-1.042.753-1.97 1.575-2.848 2.892-.277.415-.524.84-.741 1.273a3.198 3.198 0 0 0-1.715-.49h-2.657Zm3.175 10.391-.141-.307c-.326-.544-.985-.938-1.699-.938-1.013 0-1.913.792-1.913 1.683v.693c0 .891.9 1.683 1.913 1.683s1.913-.792 1.913-1.683v-.693c0-.15-.025-.297-.073-.438Zm-15.02 11.893c.9-2.218 3.264-4.858 5.627-7.182l-5.626 12.251c-.45-1.373-.788-3.274 0-5.069Zm20.72-7.182c2.363 2.324 4.726 4.964 5.626 7.182.788 1.795.45 3.696 0 5.069L94 263.224Zm-9.011-12.296c-.226 0-.451.308-.451.616s.225.617.45.617h2.93c.225 0 .45-.309.45-.617s-.225-.616-.45-.616h-2.93Zm-.87 26.664a44.551 44.551 0 0 1-.073-3.176l1.69 1.136a1.28 1.28 0 0 0 1.436 0l1.683-1.132a33.956 33.956 0 0 1-.071 3.175l-2.33 1.566-2.335-1.569Zm.432 3.596c.101.518.22 1.013.358 1.477.407 1.211.812 1.985 1.15 2.424.137.178.237.27.298.316a1.67 1.67 0 0 0 .299-.316c.34-.442.749-1.225 1.159-2.452l.018-.052c.152-.414.285-.854.4-1.314l-1.061.714a1.28 1.28 0 0 1-1.436 0l-1.185-.797Zm1.903-8.46-2.244-1.508c.243-1.026 1.109-1.781 2.207-1.781 1.221 0 2.095.871 2.233 1.813l-2.196 1.476Z" filter="url(#ey6f5Gsnrpe48-filter)"/><path fill="url(#ey6f5Gsnrpe49-fill)" d="M85.123 248.122c-.643 0-1.236.183-1.736.503-.22-.437-.468-.867-.748-1.286-.878-1.317-1.805-2.139-2.848-2.892-2.234-1.506-5.285-2.46-6.999-2.447s-1.926 3.09.15 3.012c4.103-.156 7.47.613 9.959 3.997-.648.62-1.047 1.518-1.047 2.535 0 1.698 1.112 3.062 2.635 3.362-.682.301-1.301.746-1.984 1.259-.032.03-.145.123-.326.271-1.735 1.424-9.676 7.941-11.713 12.914-2.155 5.158 1.37 9.747 1.865 10.393l.048.062c.61.817 2.075.727 2.475-.211l7.843-16.956a4.96 4.96 0 0 0 1.104.807c.571.493.919 1.179.919 1.735 0 .613-.217.77-1.183 1.471l-.15.11c-.059.042-.09.082-.1.119-1.299.925-2.216 2.421-2.417 4.21a1.937 1.937 0 0 0-.008.083c-.239 3.467-.264 8.732.904 12.616l.017.054c.477 1.426 1.044 2.633 1.723 3.517.672.873 1.627 1.64 2.85 1.64s2.177-.767 2.849-1.64c.675-.879 1.24-2.076 1.714-3.491 1.436-3.93 1.405-9.216 1.046-12.721a5.58 5.58 0 0 0-3.053-4.663c-.796-.565-.904-.744-.904-1.305 0-.635.815-1.429 1.56-1.951.046-.033.06-.064.047-.092.213-.149.412-.313.595-.49l7.84 16.947c.399.938 1.864 1.028 2.475.211l.046-.062h.001c.496-.646 4.02-5.235 1.865-10.393-2.111-5.153-10.441-11.918-11.862-13.071l-.14-.114c-.5-.41-1.217-.909-2.05-1.254 1.538-.288 2.664-1.659 2.664-3.367 0-1.025-.406-1.93-1.063-2.551 2.488-3.37 5.85-4.137 9.948-3.981 2.076.078 1.863-2.999.149-3.012-1.714-.013-4.765.941-6.999 2.447-1.042.753-1.97 1.575-2.848 2.892-.277.415-.524.84-.741 1.273a3.198 3.198 0 0 0-1.715-.49h-2.657Zm3.175 10.391-.141-.307c-.326-.544-.985-.938-1.699-.938-1.013 0-1.913.792-1.913 1.683v.693c0 .891.9 1.683 1.913 1.683s1.913-.792 1.913-1.683v-.693c0-.15-.025-.297-.073-.438Zm-15.02 11.893c.9-2.218 3.264-4.858 5.627-7.182l-5.626 12.251c-.45-1.373-.788-3.274 0-5.069Zm20.72-7.182c2.363 2.324 4.726 4.964 5.626 7.182.788 1.795.45 3.696 0 5.069L94 263.224Zm-9.011-12.296c-.226 0-.451.308-.451.616s.225.617.45.617h2.93c.225 0 .45-.309.45-.617s-.225-.616-.45-.616h-2.93Zm-.87 26.664a44.551 44.551 0 0 1-.073-3.176l1.69 1.136a1.28 1.28 0 0 0 1.436 0l1.683-1.132a33.956 33.956 0 0 1-.071 3.175l-2.33 1.566-2.335-1.569Zm.432 3.596c.101.518.22 1.013.358 1.477.407 1.211.812 1.985 1.15 2.424.137.178.237.27.298.316a1.67 1.67 0 0 0 .299-.316c.34-.442.749-1.225 1.159-2.452l.018-.052c.152-.414.285-.854.4-1.314l-1.061.714a1.28 1.28 0 0 1-1.436 0l-1.185-.797Zm1.903-8.46-2.244-1.508c.243-1.026 1.109-1.781 2.207-1.781 1.221 0 2.095.871 2.233 1.813l-2.196 1.476Z"/><path fill="none" stroke="#47ecff" stroke-linecap="round" stroke-linejoin="round" d="M85.123 248.122c-.643 0-1.236.183-1.736.503-.22-.437-.468-.867-.748-1.286-.878-1.317-1.805-2.139-2.848-2.892-2.234-1.506-5.285-2.46-6.999-2.447s-1.926 3.09.15 3.012c4.103-.156 7.47.613 9.959 3.997-.648.62-1.047 1.518-1.047 2.535 0 1.698 1.112 3.062 2.635 3.362-.682.301-1.301.746-1.984 1.259-.032.03-.145.123-.326.271-1.735 1.424-9.676 7.941-11.713 12.914-2.155 5.158 1.37 9.747 1.865 10.393l.048.062c.61.817 2.075.727 2.475-.211l7.843-16.956a4.96 4.96 0 0 0 1.104.807c.571.493.919 1.179.919 1.735 0 .613-.217.77-1.183 1.471l-.15.11c-.059.042-.09.082-.1.119-1.299.925-2.216 2.421-2.417 4.21a1.937 1.937 0 0 0-.008.083c-.239 3.467-.264 8.732.904 12.616l.017.054c.477 1.426 1.044 2.633 1.723 3.517.672.873 1.627 1.64 2.85 1.64s2.177-.767 2.849-1.64c.675-.879 1.24-2.076 1.714-3.491 1.436-3.93 1.405-9.216 1.046-12.721a5.58 5.58 0 0 0-3.053-4.663c-.796-.565-.904-.744-.904-1.305 0-.635.815-1.429 1.56-1.951.046-.033.06-.064.047-.092.213-.149.412-.313.595-.49l7.84 16.947c.399.938 1.864 1.028 2.475.211l.046-.062h.001c.496-.646 4.02-5.235 1.865-10.393-2.111-5.153-10.441-11.918-11.862-13.071l-.14-.114c-.5-.41-1.217-.909-2.05-1.254 1.538-.288 2.664-1.659 2.664-3.367 0-1.025-.406-1.93-1.063-2.551 2.488-3.37 5.85-4.137 9.948-3.981 2.076.078 1.863-2.999.149-3.012-1.714-.013-4.765.941-6.999 2.447-1.042.753-1.97 1.575-2.848 2.892-.277.415-.524.84-.741 1.273a3.198 3.198 0 0 0-1.715-.49h-2.657Zm3.175 10.391-.141-.307c-.326-.544-.985-.938-1.699-.938-1.013 0-1.913.792-1.913 1.683v.693c0 .891.9 1.683 1.913 1.683s1.913-.792 1.913-1.683v-.693c0-.15-.025-.297-.073-.438Zm-15.02 11.893c.9-2.218 3.264-4.858 5.627-7.182l-5.626 12.251c-.45-1.373-.788-3.274 0-5.069Zm20.72-7.182c2.363 2.324 4.726 4.964 5.626 7.182.788 1.795.45 3.696 0 5.069L94 263.224Zm-9.011-12.296c-.226 0-.451.308-.451.616s.225.617.45.617h2.93c.225 0 .45-.309.45-.617s-.225-.616-.45-.616h-2.93Zm-.87 26.664a44.551 44.551 0 0 1-.073-3.176l1.69 1.136a1.28 1.28 0 0 0 1.436 0l1.683-1.132a33.956 33.956 0 0 1-.071 3.175l-2.33 1.566-2.335-1.569Zm.432 3.596c.101.518.22 1.013.358 1.477.407 1.211.812 1.985 1.15 2.424.137.178.237.27.298.316a1.67 1.67 0 0 0 .299-.316c.34-.442.749-1.225 1.159-2.452l.018-.052c.152-.414.285-.854.4-1.314l-1.061.714a1.28 1.28 0 0 1-1.436 0l-1.185-.797Zm1.903-8.46-2.244-1.508c.243-1.026 1.109-1.781 2.207-1.781 1.221 0 2.095.871 2.233 1.813l-2.196 1.476Z"/></g></g></g><g id="ey6f5Gsnrpe51_to" transform="translate(236 321.5)"><g transform="translate(-236 -321.5)"><path fill="#369fab" d="M204 321.534v.138c13.153 0 18.326 2.777 23.258 7.374 4.918 4.586 8.335 8.652 8.606 24.954H236c.203-15.339 3.332-19.798 8.151-24.53 4.823-4.737 10.29-8.004 23.849-7.798v-.138c-16.949.207-22.931-5.396-26.766-11.182C237.358 304.503 236 300.693 236 289h-.136c0 11.143-1.527 15.672-5.418 21.478-3.85 5.743-10.243 11.056-26.446 11.056Z"/><path fill="none" stroke="#47ecff" stroke-width="4" d="M204 321.034h-.5v1.138h.5c6.545 0 11.063.691 14.543 1.934 3.47 1.239 5.94 3.037 8.374 5.306 2.443 2.278 4.464 4.382 5.925 7.909 1.468 3.543 2.387 8.563 2.522 16.687l.009.492h1.12l.007-.493c.101-7.643.932-12.524 2.311-16.068 1.373-3.529 3.303-5.768 5.69-8.112 2.381-2.339 4.896-4.291 8.475-5.642 3.586-1.354 8.275-2.116 15.016-2.013l.508.008V321.028l-.506.006c-8.421.103-14.067-1.238-18.067-3.288-3.992-2.046-6.387-4.82-8.276-7.67-1.923-2.903-3.199-5.265-4.004-8.335-.807-3.083-1.147-6.907-1.147-12.741v-.5H235.364v.5c0 5.553-.381 9.421-1.233 12.611-.849 3.181-2.174 5.714-4.1 8.588-1.89 2.819-4.389 5.515-8.398 7.513-4.017 2.002-9.584 3.322-17.633 3.322Z" filter="url(#ey6f5Gsnrpe53-filter)"/><path fill="#369fab" stroke="#47ecff" d="M204.07 322.172c6.518.005 11.022.698 14.492 1.941 3.46 1.238 5.925 3.034 8.355 5.299 2.44 2.275 4.458 4.376 5.919 7.894 1.467 3.534 2.388 8.538 2.527 16.633a.57.57 0 0 0 1.138-.001c.105-7.615.937-12.481 2.316-16.015 1.372-3.52 3.3-5.756 5.684-8.096 2.377-2.335 4.888-4.284 8.456-5.635 3.577-1.353 8.25-2.118 14.966-2.021.304.004.577-.239.577-.568s-.273-.571-.576-.568c-8.394.095-14.024-1.249-18.013-3.298-3.982-2.045-6.374-4.815-8.26-7.661-1.92-2.897-3.194-5.256-3.999-8.317-.808-3.074-1.149-6.884-1.152-12.69a.568.568 0 1 0-1.136 0c-.003 5.527-.386 9.381-1.238 12.562-.85 3.172-2.173 5.7-4.095 8.568-1.887 2.815-4.382 5.507-8.381 7.505-4.006 2.001-9.557 3.323-17.58 3.33-.302.001-.57.243-.57.569s.268.569.57.569Z"/></g></g><g id="ey6f5Gsnrpe55_to" transform="translate(85 147.5)"><g id="ey6f5Gsnrpe55_ts"><g transform="translate(-85 -147.5)"><g><path fill="#369fab" fill-rule="evenodd" stroke="#47ecff" d="M85 135a4 4 0 0 1 4 4h2a6 6 0 0 1 6 6v9a6 6 0 0 1-6 6H79a6 6 0 0 1-6-6v-9a6 6 0 0 1 6-6h2a4 4 0 0 1 4-4Zm10 17v-5h-3.5a2.5 2.5 0 1 0 0 5H95Zm0-7h-3.5a4.5 4.5 0 0 0 0 9H95a4 4 0 0 1-4 4H79a4 4 0 0 1-4-4v-9a4 4 0 0 1 4-4h12a4 4 0 0 1 4 4Z" clip-rule="evenodd"/></g><g fill="#369fab" fill-rule="evenodd" stroke="#47ecff" clip-rule="evenodd"><path d="M85 135a4 4 0 0 1 4 4h2a6 6 0 0 1 6 6v9a6 6 0 0 1-6 6H79a6 6 0 0 1-6-6v-9a6 6 0 0 1 6-6h2a4 4 0 0 1 4-4Zm10 17v-5h-3.5a2.5 2.5 0 1 0 0 5H95Zm0-7h-3.5a4.5 4.5 0 0 0 0 9H95a4 4 0 0 1-4 4H79a4 4 0 0 1-4-4v-9a4 4 0 0 1 4-4h12a4 4 0 0 1 4 4Z" filter="url(#ey6f5Gsnrpe59-filter)"/><path stroke-width=".5" d="M85 135a4 4 0 0 1 4 4h2a6 6 0 0 1 6 6v9a6 6 0 0 1-6 6H79a6 6 0 0 1-6-6v-9a6 6 0 0 1 6-6h2a4 4 0 0 1 4-4Zm10 17v-5h-3.5a2.5 2.5 0 1 0 0 5H95Zm0-7h-3.5a4.5 4.5 0 0 0 0 9H95a4 4 0 0 1-4 4H79a4 4 0 0 1-4-4v-9a4 4 0 0 1 4-4h12a4 4 0 0 1 4 4Z"/></g></g></g></g><g id="ey6f5Gsnrpe61_to" transform="translate(324.654 300.5)"><g id="ey6f5Gsnrpe61_ts" transform="scale(0)"><g fill="#369fab" fill-rule="evenodd" stroke="#47ecff" stroke-linecap="round" stroke-miterlimit="10" clip-rule="evenodd" transform="translate(-279.749 -135.38)"><g filter="url(#ey6f5Gsnrpe62-filter)"><path d="M279.749 124a.72.72 0 0 1 .719.719v21.77c0 .747-.322 1.12-.719 1.12s-.719-.373-.719-1.12v-21.77a.72.72 0 0 1 .719-.719ZM291.587 130.49a.72.72 0 0 0-.931-.41l.261.671c-.261-.671-.262-.67-.262-.67h-.001l-.002.001-.006.002-.017.008-.057.023c-.047.021-.112.05-.192.089a7.555 7.555 0 0 0-.649.36 9.41 9.41 0 0 0-1.927 1.586c-1.408 1.508-2.781 3.949-2.781 7.674v2.557c0 .397-.032 1.307.342 1.12.373-.187.933-.933.933-2.614v-1.063c0-3.332 1.378-5.429 2.558-6.692a7.977 7.977 0 0 1 1.63-1.344 6.008 6.008 0 0 1 .66-.353l.03-.013.005-.002a.719.719 0 0 0 .406-.93ZM268.049 130.516a.72.72 0 0 1 .932-.41l-.262.671.262-.67h.001l.003.001.006.002.017.007.056.024c.047.021.112.05.193.089.161.079.384.196.649.36a9.437 9.437 0 0 1 1.927 1.586c1.408 1.508 2.781 3.949 2.781 7.674v2.557c0 .397.031 1.307-.342 1.12s-1.044-.934-1.044-2.614v-1.063c0-3.332-1.267-5.429-2.447-6.693a7.975 7.975 0 0 0-1.631-1.343 5.876 5.876 0 0 0-.659-.353l-.03-.013-.005-.002a.719.719 0 0 1-.407-.93ZM286.787 127.072c-.273-.288-.744-.284-1.032-.01-.083.081.031-.043-.164.171-.104.114-.248.28-.418.499a12.354 12.354 0 0 0-1.226 1.957c-.886 1.742-1.757 4.354-1.757 7.882 0 1.026.013 2.791.025 4.297l.017 1.945.008 1.556c.004.397-.044.82.324.746.933-.186 1.107-1.68 1.107-2.8-.005-.501-.011-.706-.017-1.459a598.46 598.46 0 0 1-.025-4.285c0-3.282.808-5.672 1.6-7.23a10.83 10.83 0 0 1 1.081-1.727c.145-.187.264-.324.343-.411.036-.04.073-.079.111-.116a.718.718 0 0 0 .023-1.015ZM272.849 127.072a.72.72 0 0 1 1.017-.026l-.496.521c.496-.521.497-.52.497-.52v0l.002.002.004.004.012.011.036.037a7.92 7.92 0 0 1 .542.631c.34.438.785 1.088 1.227 1.957.886 1.742 1.756 4.354 1.756 7.883a1031.239 1031.239 0 0 1-.042 6.241l-.008 1.556c-.004.397.045.82-.323.747-.934-.187-1.107-1.681-1.107-2.801.004-.501.011-.706.017-1.459.012-1.507.025-3.266.025-4.284 0-3.283-.808-5.673-1.6-7.231a10.904 10.904 0 0 0-1.081-1.727 6.497 6.497 0 0 0-.344-.411l-.088-.094-.019-.019-.003-.003a.72.72 0 0 1-.024-1.015Z"/></g><g stroke-linejoin="round" stroke-width=".5"><path d="M279.749 124a.72.72 0 0 1 .719.719v21.77c0 .747-.322 1.12-.719 1.12s-.719-.373-.719-1.12v-21.77a.72.72 0 0 1 .719-.719Z"/><path d="M291.587 130.49a.72.72 0 0 0-.931-.41l.261.671c-.261-.671-.262-.67-.262-.67h-.001l-.002.001-.006.002-.017.008-.057.023c-.047.021-.112.05-.192.089a7.555 7.555 0 0 0-.649.36 9.41 9.41 0 0 0-1.927 1.586c-1.408 1.508-2.781 3.949-2.781 7.674v2.557c0 .397-.032 1.307.342 1.12.373-.187.933-.933.933-2.614v-1.063c0-3.332 1.378-5.429 2.558-6.692a7.977 7.977 0 0 1 1.63-1.344 6.008 6.008 0 0 1 .66-.353l.03-.013.005-.002a.719.719 0 0 0 .406-.93Z" transform="matrix(1 0 0 1.15588 0 -21.32)"/><path d="M268.049 130.516a.72.72 0 0 1 .932-.41l-.262.671.262-.67h.001l.003.001.006.002.017.007.056.024c.047.021.112.05.193.089.161.079.384.196.649.36a9.437 9.437 0 0 1 1.927 1.586c1.408 1.508 2.781 3.949 2.781 7.674v2.557c0 .397.031 1.307-.342 1.12s-1.044-.934-1.044-2.614v-1.063c0-3.332-1.267-5.429-2.447-6.693a7.975 7.975 0 0 0-1.631-1.343 5.876 5.876 0 0 0-.659-.353l-.03-.013-.005-.002a.719.719 0 0 1-.407-.93ZM286.787 127.072c-.273-.288-.744-.284-1.032-.01-.083.081.031-.043-.164.171-.104.114-.248.28-.418.499a12.354 12.354 0 0 0-1.226 1.957c-.886 1.742-1.757 4.354-1.757 7.882 0 1.026.013 2.791.025 4.297l.017 1.945.008 1.556c.004.397-.044.82.324.746.933-.186 1.107-1.68 1.107-2.8-.005-.501-.011-.706-.017-1.459a598.46 598.46 0 0 1-.025-4.285c0-3.282.808-5.672 1.6-7.23a10.83 10.83 0 0 1 1.081-1.727c.145-.187.264-.324.343-.411.036-.04.073-.079.111-.116a.718.718 0 0 0 .023-1.015ZM272.849 127.072a.72.72 0 0 1 1.017-.026l-.496.521c.496-.521.497-.52.497-.52v0l.002.002.004.004.012.011.036.037a7.92 7.92 0 0 1 .542.631c.34.438.785 1.088 1.227 1.957.886 1.742 1.756 4.354 1.756 7.883a1031.239 1031.239 0 0 1-.042 6.241l-.008 1.556c-.004.397.045.82-.323.747-.934-.187-1.107-1.681-1.107-2.801.004-.501.011-.706.017-1.459.012-1.507.025-3.266.025-4.284 0-3.283-.808-5.673-1.6-7.231a10.904 10.904 0 0 0-1.081-1.727 6.497 6.497 0 0 0-.344-.411l-.088-.094-.019-.019-.003-.003a.72.72 0 0 1-.024-1.015Z"/></g></g></g></g><g id="ey6f5Gsnrpe74_to" transform="translate(145.342 300.5)"><g id="ey6f5Gsnrpe74_ts"><g fill-rule="evenodd" clip-rule="evenodd" transform="translate(-191 -135.5)"><g filter="url(#ey6f5Gsnrpe75-filter)"><path fill="#369fab" d="M194.962 124.849a6.378 6.378 0 0 0-6.359 0l-4.648 2.693c-1.834 1.062-2.955 2.964-2.955 5.015v5.886c0 2.051 1.121 3.953 2.955 5.015l4.648 2.693a6.378 6.378 0 0 0 6.359 0l4.648-2.693a6.08 6.08 0 0 0 1.185-.894c.28-.27.201-.715-.131-.921-.28-.174-.646-.114-.889.108-.25.228-.528.432-.831.608l-4.648 2.693a5.046 5.046 0 0 1-5.027 0l-4.648-2.693a4.723 4.723 0 0 1-1.417-1.253c-.112-.15-.054-.358.114-.445l1.717-.883a.352.352 0 0 1 .43.096c.3.366.67.683 1.099.932l3.099 1.795a4.255 4.255 0 0 0 4.239 0l3.099-1.795c.15-.088.294-.184.429-.287.327-.249.256-.724-.094-.941-.267-.166-.613-.12-.876.051a2.018 2.018 0 0 1-.126.077l-3.098 1.795a2.918 2.918 0 0 1-2.907 0l-3.098-1.795c-.835-.483-1.33-1.337-1.33-2.244v-3.924c0-.907.495-1.761 1.33-2.244l3.098-1.795a2.918 2.918 0 0 1 2.907 0l3.098 1.795c.063.036.124.074.182.115.267.182.622.233.895.06.34-.214.412-.675.1-.926a4.247 4.247 0 0 0-.51-.349l-3.099-1.795a4.182 4.182 0 0 0-1.299-.486.34.34 0 0 1-.283-.326v-1.925c0-.19.169-.339.36-.304.563.101 1.11.298 1.616.59l4.648 2.693c.315.183.604.397.861.636.244.227.616.288.899.109.326-.206.403-.643.129-.913a6.066 6.066 0 0 0-1.223-.931l-4.648-2.693Zm-5.693 1.099a5.035 5.035 0 0 1 1.369-.54.307.307 0 0 1 .375.302v1.928a.338.338 0 0 1-.265.322 4.218 4.218 0 0 0-1.085.439l-3.099 1.795c-1.223.709-1.97 1.977-1.97 3.344v3.924c0 .263.028.523.081.775a.336.336 0 0 1-.171.37l-1.669.859c-.184.095-.411 0-.45-.2a4.415 4.415 0 0 1-.078-.823v-5.886c0-1.59.869-3.079 2.314-3.916l4.648-2.693Z"/><path fill="#369fab" d="M190.909 132.032a2.079 2.079 0 0 1 2.07 0l1.513.877c.598.346.962.965.962 1.633v1.916c0 .668-.364 1.287-.962 1.633l-1.513.877a2.079 2.079 0 0 1-2.07 0l-1.514-.877a1.893 1.893 0 0 1-.962-1.633v-1.916c0-.668.365-1.287.962-1.633l1.514-.877Zm1.419 1.074 1.513.877a.65.65 0 0 1 .337.559v1.916a.648.648 0 0 1-.337.559l-1.513.877a.776.776 0 0 1-.769 0l-1.513-.877a.65.65 0 0 1-.336-.559v-1.916a.65.65 0 0 1 .336-.559l1.513-.877a.776.776 0 0 1 .769 0Z"/><path fill="none" stroke="#47ecff" d="M194.962 124.849a6.378 6.378 0 0 0-6.359 0l-4.648 2.693c-1.834 1.062-2.955 2.964-2.955 5.015v5.886c0 2.051 1.121 3.953 2.955 5.015l4.648 2.693a6.378 6.378 0 0 0 6.359 0l4.648-2.693a6.08 6.08 0 0 0 1.185-.894c.28-.27.201-.715-.131-.921-.28-.174-.646-.114-.889.108-.25.228-.528.432-.831.608l-4.648 2.693a5.046 5.046 0 0 1-5.027 0l-4.648-2.693a4.723 4.723 0 0 1-1.417-1.253c-.112-.15-.054-.358.114-.445l1.717-.883a.352.352 0 0 1 .43.096c.3.366.67.683 1.099.932l3.099 1.795a4.255 4.255 0 0 0 4.239 0l3.099-1.795c.15-.088.294-.184.429-.287.327-.249.256-.724-.094-.941-.267-.166-.613-.12-.876.051a2.018 2.018 0 0 1-.126.077l-3.098 1.795a2.918 2.918 0 0 1-2.907 0l-3.098-1.795c-.835-.483-1.33-1.337-1.33-2.244v-3.924c0-.907.495-1.761 1.33-2.244l3.098-1.795a2.918 2.918 0 0 1 2.907 0l3.098 1.795c.063.036.124.074.182.115.267.182.622.233.895.06.34-.214.412-.675.1-.926a4.247 4.247 0 0 0-.51-.349l-3.099-1.795a4.182 4.182 0 0 0-1.299-.486.34.34 0 0 1-.283-.326v-1.925c0-.19.169-.339.36-.304.563.101 1.11.298 1.616.59l4.648 2.693c.315.183.604.397.861.636.244.227.616.288.899.109.326-.206.403-.643.129-.913a6.066 6.066 0 0 0-1.223-.931l-4.648-2.693Zm-5.693 1.099a5.035 5.035 0 0 1 1.369-.54.307.307 0 0 1 .375.302v1.928a.338.338 0 0 1-.265.322 4.218 4.218 0 0 0-1.085.439l-3.099 1.795c-1.223.709-1.97 1.977-1.97 3.344v3.924c0 .263.028.523.081.775a.336.336 0 0 1-.171.37l-1.669.859c-.184.095-.411 0-.45-.2a4.415 4.415 0 0 1-.078-.823v-5.886c0-1.59.869-3.079 2.314-3.916l4.648-2.693Z"/><path fill="none" stroke="#47ecff" d="M190.909 132.032a2.079 2.079 0 0 1 2.07 0l1.513.877c.598.346.962.965.962 1.633v1.916c0 .668-.364 1.287-.962 1.633l-1.513.877a2.079 2.079 0 0 1-2.07 0l-1.514-.877a1.893 1.893 0 0 1-.962-1.633v-1.916c0-.668.365-1.287.962-1.633l1.514-.877Zm1.419 1.074 1.513.877a.65.65 0 0 1 .337.559v1.916a.648.648 0 0 1-.337.559l-1.513.877a.776.776 0 0 1-.769 0l-1.513-.877a.65.65 0 0 1-.336-.559v-1.916a.65.65 0 0 1 .336-.559l1.513-.877a.776.776 0 0 1 .769 0Z"/></g><g><path fill="#369fab" d="M194.962 124.849a6.378 6.378 0 0 0-6.359 0l-4.648 2.693c-1.834 1.062-2.955 2.964-2.955 5.015v5.886c0 2.051 1.121 3.953 2.955 5.015l4.648 2.693a6.378 6.378 0 0 0 6.359 0l4.648-2.693a6.08 6.08 0 0 0 1.185-.894c.28-.27.201-.715-.131-.921-.28-.174-.646-.114-.889.108-.25.228-.528.432-.831.608l-4.648 2.693a5.046 5.046 0 0 1-5.027 0l-4.648-2.693a4.723 4.723 0 0 1-1.417-1.253c-.112-.15-.054-.358.114-.445l1.717-.883a.352.352 0 0 1 .43.096c.3.366.67.683 1.099.932l3.099 1.795a4.255 4.255 0 0 0 4.239 0l3.099-1.795c.15-.088.294-.184.429-.287.327-.249.256-.724-.094-.941-.267-.166-.613-.12-.876.051a2.018 2.018 0 0 1-.126.077l-3.098 1.795a2.918 2.918 0 0 1-2.907 0l-3.098-1.795c-.835-.483-1.33-1.337-1.33-2.244v-3.924c0-.907.495-1.761 1.33-2.244l3.098-1.795a2.918 2.918 0 0 1 2.907 0l3.098 1.795c.063.036.124.074.182.115.267.182.622.233.895.06.34-.214.412-.675.1-.926a4.247 4.247 0 0 0-.51-.349l-3.099-1.795a4.182 4.182 0 0 0-1.299-.486.34.34 0 0 1-.283-.326v-1.925c0-.19.169-.339.36-.304.563.101 1.11.298 1.616.59l4.648 2.693c.315.183.604.397.861.636.244.227.616.288.899.109.326-.206.403-.643.129-.913a6.066 6.066 0 0 0-1.223-.931l-4.648-2.693Zm-5.693 1.099a5.035 5.035 0 0 1 1.369-.54.307.307 0 0 1 .375.302v1.928a.338.338 0 0 1-.265.322 4.218 4.218 0 0 0-1.085.439l-3.099 1.795c-1.223.709-1.97 1.977-1.97 3.344v3.924c0 .263.028.523.081.775a.336.336 0 0 1-.171.37l-1.669.859c-.184.095-.411 0-.45-.2a4.415 4.415 0 0 1-.078-.823v-5.886c0-1.59.869-3.079 2.314-3.916l4.648-2.693Z"/><path fill="#369fab" d="M190.909 132.032a2.079 2.079 0 0 1 2.07 0l1.513.877c.598.346.962.965.962 1.633v1.916c0 .668-.364 1.287-.962 1.633l-1.513.877a2.079 2.079 0 0 1-2.07 0l-1.514-.877a1.893 1.893 0 0 1-.962-1.633v-1.916c0-.668.365-1.287.962-1.633l1.514-.877Zm1.419 1.074 1.513.877a.65.65 0 0 1 .337.559v1.916a.648.648 0 0 1-.337.559l-1.513.877a.776.776 0 0 1-.769 0l-1.513-.877a.65.65 0 0 1-.336-.559v-1.916a.65.65 0 0 1 .336-.559l1.513-.877a.776.776 0 0 1 .769 0Z"/><path fill="none" stroke="#47ecff" stroke-width=".5" d="M194.962 124.849a6.378 6.378 0 0 0-6.359 0l-4.648 2.693c-1.834 1.062-2.955 2.964-2.955 5.015v5.886c0 2.051 1.121 3.953 2.955 5.015l4.648 2.693a6.378 6.378 0 0 0 6.359 0l4.648-2.693a6.08 6.08 0 0 0 1.185-.894c.28-.27.201-.715-.131-.921-.28-.174-.646-.114-.889.108-.25.228-.528.432-.831.608l-4.648 2.693a5.046 5.046 0 0 1-5.027 0l-4.648-2.693a4.723 4.723 0 0 1-1.417-1.253c-.112-.15-.054-.358.114-.445l1.717-.883a.352.352 0 0 1 .43.096c.3.366.67.683 1.099.932l3.099 1.795a4.255 4.255 0 0 0 4.239 0l3.099-1.795c.15-.088.294-.184.429-.287.327-.249.256-.724-.094-.941-.267-.166-.613-.12-.876.051a2.018 2.018 0 0 1-.126.077l-3.098 1.795a2.918 2.918 0 0 1-2.907 0l-3.098-1.795c-.835-.483-1.33-1.337-1.33-2.244v-3.924c0-.907.495-1.761 1.33-2.244l3.098-1.795a2.918 2.918 0 0 1 2.907 0l3.098 1.795c.063.036.124.074.182.115.267.182.622.233.895.06.34-.214.412-.675.1-.926a4.247 4.247 0 0 0-.51-.349l-3.099-1.795a4.182 4.182 0 0 0-1.299-.486.34.34 0 0 1-.283-.326v-1.925c0-.19.169-.339.36-.304.563.101 1.11.298 1.616.59l4.648 2.693c.315.183.604.397.861.636.244.227.616.288.899.109.326-.206.403-.643.129-.913a6.066 6.066 0 0 0-1.223-.931l-4.648-2.693Zm-5.693 1.099a5.035 5.035 0 0 1 1.369-.54.307.307 0 0 1 .375.302v1.928a.338.338 0 0 1-.265.322 4.218 4.218 0 0 0-1.085.439l-3.099 1.795c-1.223.709-1.97 1.977-1.97 3.344v3.924c0 .263.028.523.081.775a.336.336 0 0 1-.171.37l-1.669.859c-.184.095-.411 0-.45-.2a4.415 4.415 0 0 1-.078-.823v-5.886c0-1.59.869-3.079 2.314-3.916l4.648-2.693Z"/><path fill="none" stroke="#47ecff" stroke-width=".5" d="M190.909 132.032a2.079 2.079 0 0 1 2.07 0l1.513.877c.598.346.962.965.962 1.633v1.916c0 .668-.364 1.287-.962 1.633l-1.513.877a2.079 2.079 0 0 1-2.07 0l-1.514-.877a1.893 1.893 0 0 1-.962-1.633v-1.916c0-.668.365-1.287.962-1.633l1.514-.877Zm1.419 1.074 1.513.877a.65.65 0 0 1 .337.559v1.916a.648.648 0 0 1-.337.559l-1.513.877a.776.776 0 0 1-.769 0l-1.513-.877a.65.65 0 0 1-.336-.559v-1.916a.65.65 0 0 1 .336-.559l1.513-.877a.776.776 0 0 1 .769 0Z"/></g></g></g></g><g><g id="ey6f5Gsnrpe86_to" transform="translate(328.446 131.918)"><g id="ey6f5Gsnrpe86_ts"><g transform="translate(-328.446 -131.918)"><path fill="url(#ey6f5Gsnrpe87-fill)" d="M296.578 104.758h36.576c15 0 27.16 12.16 27.16 27.159 0 15.001-12.16 27.161-27.16 27.161h-36.576v-54.32Z"/><path fill="url(#ey6f5Gsnrpe88-fill)" d="M304.545 111.548h27.431c11.251 0 20.37 9.12 20.37 20.369 0 11.25-9.119 20.37-20.37 20.37h-27.431v-40.739Z"/></g></g></g><g id="ey6f5Gsnrpe89_to" transform="translate(151.002 131.918)"><g id="ey6f5Gsnrpe89_ts"><g transform="translate(-151.002 -131.918)"><path fill="url(#ey6f5Gsnrpe90-fill)" d="M182.87 104.758h-36.576c-14.999 0-27.159 12.16-27.159 27.159 0 15.001 12.16 27.161 27.16 27.161h36.575v-54.32Z"/><path fill="url(#ey6f5Gsnrpe91-fill)" d="M172.373 111.548h-27.431c-11.25 0-20.37 9.12-20.37 20.369 0 11.25 9.12 20.37 20.37 20.37h27.431v-40.739Z"/></g></g></g><path fill="url(#ey6f5Gsnrpe92-fill)" d="M239.247 216.531c54.262 0 98.251-42.232 98.251-94.327s-43.989-94.327-98.251-94.327-98.251 42.232-98.251 94.327 43.989 94.327 98.251 94.327Z" filter="url(#ey6f5Gsnrpe92-filter)"/><g><path fill="#cddeec" d="M239.245 207.117c51.862 0 93.903-39.572 93.903-88.386 0-48.814-42.041-88.386-93.903-88.386-51.861 0-93.903 39.572-93.903 88.386 0 48.814 42.042 88.386 93.903 88.386Z"/></g><g><path fill="url(#ey6f5Gsnrpe96-fill)" d="M250.194 26.66c40.341-1.057 61.877 23.999 71.995 57.388 10.118 33.389-11.467 52.272-53.968 53.469-42.501 1.198-73.312-11.243-79.344-41.356-6.033-30.113 20.974-68.445 61.317-69.501Z" transform="translate(0 5)"/></g><g id="ey6f5Gsnrpe97_to" transform="translate(240.14 140.552)"><g transform="translate(-240.14 -140.552)"><path fill="#fff" d="M178.753 112.867c.656-6.871 6.137-12.194 12.99-13.015 36.986-4.43 61.419-4.576 96.742-.06 6.666.853 12.004 5.993 12.755 12.669 1.954 17.389 2.053 37.983.01 55.874-.756 6.615-6.032 11.709-12.629 12.609-36.35 4.955-60.753 4.887-97.026.026-6.782-.909-12.145-6.243-12.792-13.055-1.65-17.401-1.713-37.636-.05-55.048Z"/><path fill="url(#ey6f5Gsnrpe99-fill)" d="M178.729 112.749c.663-6.867 6.159-12.168 13.012-12.97 36.989-4.335 61.422-4.477 96.749-.06 6.663.833 12.018 5.949 12.776 12.621 1.92 16.883 2.017 36.819.01 54.184-.763 6.61-6.057 11.683-12.653 12.563-36.35 4.846-60.753 4.78-97.023.026-6.785-.889-12.167-6.203-12.821-13.015-1.619-16.881-1.681-36.456-.05-53.349Z"/><g id="ey6f5Gsnrpe100_to" transform="translate(239.424 114.687)"><g id="ey6f5Gsnrpe100_ts"><g opacity=".28" transform="translate(-239.424 -114.687)"><path fill="url(#ey6f5Gsnrpe101-fill)" d="M243.773 127.402c-35.09-.022-60.425-5.879-59.343-11.644 1.082-5.766 26.712-13.517 60.11-13.78 33.4-.262 50.746 6.953 49.881 13.037-1.048 6.101-15.569 12.297-50.648 12.387Z"/></g></g></g><g id="ey6f5Gsnrpe102_to" transform="translate(237.087 157.912)"><g transform="translate(-237.087 -157.912)"><g><path fill="#354781" d="M194.251 155.495c-1.255 2.559-.316 5.747 2.279 7.111 2.555 1.253 5.74.309 7.106-2.291 1.255-2.559.316-5.747-2.28-7.111-2.553-1.253-5.774-.232-7.105 2.291Z"/><path fill="#385dd6" d="M201.707 160.354c-.038-1.058-1.289-1.829-2.933-1.737-1.531.024-2.802.966-2.763 2.025.038 1.058 1.289 1.828 2.933 1.736 1.644-.093 2.802-.966 2.763-2.024Z" opacity=".5"/><path fill="#9cb0cd" d="M200.005 161.1c-.028-.293-.528-.601-1.182-.659-.585.055-1.032.331-1.116.693.096.404.526.601 1.181.659.586-.054 1.144-.4 1.117-.693Z"/><path fill="#1a2a63" d="M196.453 158.36c-.739.303-1.755.161-1.836-.716.005-1.24.482-2.464 1.529-3.269 1.802-1.581 4.711-1.377 6.181.495.667.823 1.039 1.674 1.009 2.621.08.878-1.201 1.054-2.064.662-.681-.351-1.697-.493-2.575-.413-.765.012-1.573.204-2.244.62Z" opacity=".43"/></g><g><path fill="#354781" d="M270.538 155.495c-1.255 2.559-.316 5.747 2.279 7.111 2.554 1.253 5.739.309 7.106-2.291 1.255-2.559.316-5.747-2.28-7.111-2.554-1.253-5.775-.232-7.105 2.291Z"/><path fill="#385dd6" d="M277.994 160.354c-.038-1.058-1.289-1.829-2.933-1.737-1.532.024-2.802.966-2.764 2.025.038 1.058 1.29 1.828 2.932 1.736 1.644-.093 2.803-.966 2.765-2.024Z" opacity=".5"/><path fill="#9cb0cd" d="M276.292 161.1c-.026-.293-.527-.601-1.181-.659-.585.055-1.032.331-1.117.693.097.404.528.601 1.182.659.585-.054 1.143-.4 1.116-.693Z"/><path fill="#1a2a63" d="M272.738 158.36c-.739.303-1.755.161-1.836-.716.005-1.24.481-2.464 1.529-3.269 1.801-1.581 4.712-1.377 6.182.495.666.823 1.039 1.674 1.008 2.621.081.878-1.202 1.054-2.063.662-.681-.351-1.698-.493-2.575-.413-.767.012-1.575.204-2.245.62Z" opacity=".43"/></g></g></g></g></g><g opacity=".71"><path fill="url(#ey6f5Gsnrpe114-fill)" fill-rule="evenodd" d="M337.158 122.299c0 52.19-43.838 94.499-97.914 94.499s-97.912-42.309-97.912-94.499 43.836-94.498 97.912-94.498 97.914 42.309 97.914 94.498Zm-2.913.505c0 48.748-42.678 78.616-95.145 78.616s-94.856-29.868-94.856-78.616c0-48.746 42.533-88.264 95-88.264 52.468 0 95.001 39.518 95.001 88.264Z" clip-rule="evenodd" filter="url(#ey6f5Gsnrpe114-filter)"/></g><g filter="url(#ey6f5Gsnrpe115-filter)"><g opacity=".84"><path fill="#fff" d="M261.724 56.84c12.553 3.06 24.132-.216 25.862-7.315 1.731-7.1-7.042-15.336-19.596-18.395-12.553-3.06-24.132.216-25.862 7.315s7.043 15.336 19.596 18.395Z"/></g></g></g></g><clipPath id="ey6f5Gsnrpe118"><rect width="470" height="373" fill="#fff" rx="0" ry="0"/></clipPath></g></svg>