<svg xmlns="http://www.w3.org/2000/svg" id="ebOTaRVoNtP1" shape-rendering="geometricPrecision" text-rendering="geometricPrecision" viewBox="0 0 382 310"><style>@keyframes ebOTaRVoNtP2_to__to{0%{offset-distance:0;animation-timing-function:cubic-bezier(.445,.05,.55,.95)}18.571429%{offset-distance:43.032458%;animation-timing-function:cubic-bezier(.445,.05,.55,.95)}28.571429%{offset-distance:51.489947%;animation-timing-function:cubic-bezier(.445,.05,.55,.95)}50%{offset-distance:87.850433%;animation-timing-function:cubic-bezier(.445,.05,.55,.95)}71.428571%{offset-distance:93.925216%;animation-timing-function:cubic-bezier(.445,.05,.55,.95)}to{offset-distance:100%}}@keyframes ebOTaRVoNtP2_ts__ts{0%{transform:scale(1,1);animation-timing-function:cubic-bezier(.68,-.55,.265,1.55)}50%,to{transform:scale(1,1)}}@keyframes ebOTaRVoNtP6_to__to{0%{offset-distance:0;animation-timing-function:cubic-bezier(.445,.05,.55,.95)}20%{offset-distance:30.679992%;animation-timing-function:cubic-bezier(.445,.05,.55,.95)}28.571429%{offset-distance:36.299685%;animation-timing-function:cubic-bezier(.445,.05,.55,.95)}50%{offset-distance:72.991836%;animation-timing-function:cubic-bezier(.445,.05,.55,.95)}71.428571%{offset-distance:86.495918%;animation-timing-function:cubic-bezier(.445,.05,.55,.95)}to{offset-distance:100%}}@keyframes ebOTaRVoNtP6_ts__ts{0%{transform:scale(1,1);animation-timing-function:cubic-bezier(.68,-.55,.265,1.55)}50%,to{transform:scale(1,1)}}@keyframes ebOTaRVoNtP15_to__to{0%,50%{transform:translate(116.426998px,236.027px);animation-timing-function:cubic-bezier(.445,.05,.55,.95)}18.571429%{transform:translate(191px,179.131px);animation-timing-function:cubic-bezier(.445,.05,.55,.95)}28.571429%{transform:translate(191px,154.999999px);animation-timing-function:cubic-bezier(.445,.05,.55,.95)}71.428571%{transform:translate(116.426998px,248.947328px);animation-timing-function:cubic-bezier(.445,.05,.55,.95)}to{transform:translate(116.426998px,236.027px)}}@keyframes ebOTaRVoNtP15_ts__ts{0%{transform:scale(1,1);animation-timing-function:cubic-bezier(.68,-.55,.265,1.55)}50%,to{transform:scale(1,1)}}@keyframes ebOTaRVoNtP19_to__to{0%,50%{transform:translate(189.333496px,179.130997px);animation-timing-function:cubic-bezier(.445,.05,.55,.95)}28.571429%{transform:translate(189.333496px,155.000001px)}71.428571%{transform:translate(175.2195px,132.552503px);animation-timing-function:cubic-bezier(.445,.05,.55,.95)}to{transform:translate(189.333496px,179.130997px)}}@keyframes ebOTaRVoNtP19_ts__ts{0%{transform:scale(1,1);animation-timing-function:cubic-bezier(.68,-.55,.265,1.55)}50%,to{transform:scale(1,1)}}@keyframes ebOTaRVoNtP29_to__to{0%{offset-distance:0;animation-timing-function:cubic-bezier(.445,.05,.55,.95)}17.142857%{offset-distance:36.560559%;animation-timing-function:cubic-bezier(.445,.05,.55,.95)}28.571429%{offset-distance:42.615197%;animation-timing-function:cubic-bezier(.445,.05,.55,.95)}50%{offset-distance:75.177703%;animation-timing-function:cubic-bezier(.445,.05,.55,.95)}71.428571%{offset-distance:87.588852%;animation-timing-function:cubic-bezier(.445,.05,.55,.95)}to{offset-distance:100%}}@keyframes ebOTaRVoNtP29_ts__ts{0%{transform:scale(1,1);animation-timing-function:cubic-bezier(.68,-.55,.265,1.55)}50%,to{transform:scale(1,1)}}@keyframes ebOTaRVoNtP43_to__to{0%{offset-distance:0;animation-timing-function:cubic-bezier(.445,.05,.55,.95)}20%{offset-distance:35.336822%;animation-timing-function:cubic-bezier(.445,.05,.55,.95)}28.571429%{offset-distance:40.701885%;animation-timing-function:cubic-bezier(.445,.05,.55,.95)}50%{offset-distance:78.802659%;animation-timing-function:cubic-bezier(.445,.05,.55,.95)}71.428571%{offset-distance:89.401329%;animation-timing-function:cubic-bezier(.445,.05,.55,.95)}to{offset-distance:100%}}@keyframes ebOTaRVoNtP43_ts__ts{0%{transform:scale(1,1);animation-timing-function:cubic-bezier(.68,-.55,.265,1.55)}50%,to{transform:scale(1,1)}}@keyframes ebOTaRVoNtP47_to__to{0%{offset-distance:0;animation-timing-function:cubic-bezier(.445,.05,.55,.95)}14.285714%{offset-distance:33.87461%;animation-timing-function:cubic-bezier(.445,.05,.55,.95)}28.571429%{offset-distance:39.46701%;animation-timing-function:cubic-bezier(.445,.05,.55,.95)}50%{offset-distance:77.139447%;animation-timing-function:cubic-bezier(.445,.05,.55,.95)}71.428571%{offset-distance:88.569724%;animation-timing-function:cubic-bezier(.445,.05,.55,.95)}to{offset-distance:100%}}@keyframes ebOTaRVoNtP47_ts__ts{0%{transform:scale(1,1);animation-timing-function:cubic-bezier(.68,-.55,.265,1.55)}8.571429%{transform:scale(1.3,1.3);animation-timing-function:cubic-bezier(.68,-.55,.265,1.55)}20%{transform:scale(2,2);animation-timing-function:cubic-bezier(.68,-.55,.265,1.55)}50%,to{transform:scale(1,1)}}@keyframes ebOTaRVoNtP51_tr__tr{0%{transform:translate(289.315px,81.315px) rotate(0deg)}14.285714%,7.142857%{transform:translate(289.315px,81.315px) rotate(0deg);animation-timing-function:cubic-bezier(.445,.05,.55,.95)}28.571429%,to{transform:translate(289.315px,81.315px) rotate(360deg)}}@keyframes ebOTaRVoNtP53_ts__ts{0%,35.714286%,to{transform:translate(288.26001px,79.016699px) scale(1,1)}7.142857%{transform:translate(288.26001px,79.016699px) scale(1,1);animation-timing-function:cubic-bezier(.445,.05,.55,.95)}14.285714%,28.571429%{transform:translate(288.26001px,79.016699px) scale(0,0);animation-timing-function:cubic-bezier(.445,.05,.55,.95)}}#ebOTaRVoNtP2_to{animation:ebOTaRVoNtP2_to__to 8641.975308641975ms linear infinite normal forwards}#ebOTaRVoNtP2_ts{animation:ebOTaRVoNtP2_ts__ts 8641.975308641975ms linear infinite normal forwards}#ebOTaRVoNtP6_to{animation:ebOTaRVoNtP6_to__to 8641.975308641975ms linear infinite normal forwards}#ebOTaRVoNtP6_ts{animation:ebOTaRVoNtP6_ts__ts 8641.975308641975ms linear infinite normal forwards}#ebOTaRVoNtP15_to{animation:ebOTaRVoNtP15_to__to 8641.975308641975ms linear infinite normal forwards}#ebOTaRVoNtP15_ts{animation:ebOTaRVoNtP15_ts__ts 8641.975308641975ms linear infinite normal forwards}#ebOTaRVoNtP19_to{animation:ebOTaRVoNtP19_to__to 8641.975308641975ms linear infinite normal forwards}#ebOTaRVoNtP19_ts{animation:ebOTaRVoNtP19_ts__ts 8641.975308641975ms linear infinite normal forwards}#ebOTaRVoNtP29_to{animation:ebOTaRVoNtP29_to__to 8641.975308641975ms linear infinite normal forwards}#ebOTaRVoNtP29_ts{animation:ebOTaRVoNtP29_ts__ts 8641.975308641975ms linear infinite normal forwards}#ebOTaRVoNtP43_to{animation:ebOTaRVoNtP43_to__to 8641.975308641975ms linear infinite normal forwards}#ebOTaRVoNtP43_ts{animation:ebOTaRVoNtP43_ts__ts 8641.975308641975ms linear infinite normal forwards}#ebOTaRVoNtP47_to{animation:ebOTaRVoNtP47_to__to 8641.975308641975ms linear infinite normal forwards}#ebOTaRVoNtP47_ts{animation:ebOTaRVoNtP47_ts__ts 8641.975308641975ms linear infinite normal forwards}#ebOTaRVoNtP51_tr{animation:ebOTaRVoNtP51_tr__tr 8641.975308641975ms linear infinite normal forwards}#ebOTaRVoNtP53_ts{animation:ebOTaRVoNtP53_ts__ts 8641.975308641975ms linear infinite normal forwards}</style><defs><linearGradient id="ebOTaRVoNtP3-fill" x1="164.52" x2="184.652" y1="50.8" y2="74.029" gradientUnits="userSpaceOnUse" spreadMethod="pad"><stop id="ebOTaRVoNtP3-fill-0" offset="0%" stop-color="#369fab"/><stop id="ebOTaRVoNtP3-fill-1" offset="100%" stop-color="rgba(0,224,202,0)"/></linearGradient><linearGradient id="ebOTaRVoNtP4-fill" x1="165.54" x2="171.98" y1="51.676" y2="58.543" gradientUnits="userSpaceOnUse" spreadMethod="pad"><stop id="ebOTaRVoNtP4-fill-0" offset="0%" stop-color="#00e0ca"/><stop id="ebOTaRVoNtP4-fill-1" offset="100%" stop-color="rgba(0,224,202,0)"/></linearGradient><linearGradient id="ebOTaRVoNtP5-fill" x1="182.539" x2="185.355" y1="50.519" y2="64.596" gradientUnits="userSpaceOnUse" spreadMethod="pad"><stop id="ebOTaRVoNtP5-fill-0" offset="0%" stop-color="#00e0ca"/><stop id="ebOTaRVoNtP5-fill-1" offset="100%" stop-color="rgba(0,224,202,0)"/></linearGradient><linearGradient id="ebOTaRVoNtP7-fill" x1="274.749" x2="315.501" y1="222.207" y2="266" gradientUnits="userSpaceOnUse" spreadMethod="pad"><stop id="ebOTaRVoNtP7-fill-0" offset="0%" stop-color="#00e0ca"/><stop id="ebOTaRVoNtP7-fill-1" offset="100%" stop-color="#145f57"/></linearGradient><linearGradient id="ebOTaRVoNtP8-fill" x1="276.417" x2="286.935" y1="223.639" y2="234.854" gradientUnits="userSpaceOnUse" spreadMethod="pad"><stop id="ebOTaRVoNtP8-fill-0" offset="0%" stop-color="#00e0ca"/><stop id="ebOTaRVoNtP8-fill-1" offset="100%" stop-color="rgba(0,224,202,0)"/></linearGradient><linearGradient id="ebOTaRVoNtP9-fill" x1="304.18" x2="308.778" y1="221.748" y2="244.741" gradientUnits="userSpaceOnUse" spreadMethod="pad"><stop id="ebOTaRVoNtP9-fill-0" offset="0%" stop-color="#00e0ca"/><stop id="ebOTaRVoNtP9-fill-1" offset="100%" stop-color="rgba(0,224,202,0)"/></linearGradient><linearGradient id="ebOTaRVoNtP16-fill" x1="108.581" x2="123.344" y1="227.561" y2="244.596" gradientUnits="userSpaceOnUse" spreadMethod="pad"><stop id="ebOTaRVoNtP16-fill-0" offset="0%" stop-color="#00e0ca"/><stop id="ebOTaRVoNtP16-fill-1" offset="100%" stop-color="rgba(0,224,202,0)"/></linearGradient><linearGradient id="ebOTaRVoNtP17-fill" x1="109.329" x2="114.052" y1="228.204" y2="233.239" gradientUnits="userSpaceOnUse" spreadMethod="pad"><stop id="ebOTaRVoNtP17-fill-0" offset="0%" stop-color="#00e0ca"/><stop id="ebOTaRVoNtP17-fill-1" offset="100%" stop-color="rgba(0,224,202,0)"/></linearGradient><linearGradient id="ebOTaRVoNtP18-fill" x1="121.796" x2="123.861" y1="227.355" y2="237.679" gradientUnits="userSpaceOnUse" spreadMethod="pad"><stop id="ebOTaRVoNtP18-fill-0" offset="0%" stop-color="#00e0ca"/><stop id="ebOTaRVoNtP18-fill-1" offset="100%" stop-color="rgba(0,224,202,0)"/></linearGradient><linearGradient id="ebOTaRVoNtP20-fill" x1="162.746" x2="222" y1="150.445" y2="216.5" gradientUnits="userSpaceOnUse" spreadMethod="pad"><stop id="ebOTaRVoNtP20-fill-0" offset="0%" stop-color="#145f57"/><stop id="ebOTaRVoNtP20-fill-1" offset="100%" stop-color="#00e0ca"/></linearGradient><linearGradient id="ebOTaRVoNtP22-fill" x1="165.285" x2="181.287" y1="152.623" y2="169.686" gradientUnits="userSpaceOnUse" spreadMethod="pad"><stop id="ebOTaRVoNtP22-fill-0" offset="0%" stop-color="#00e0ca"/><stop id="ebOTaRVoNtP22-fill-1" offset="100%" stop-color="rgba(0,224,202,0)"/></linearGradient><linearGradient id="ebOTaRVoNtP23-fill" x1="207.526" x2="214.523" y1="149.745" y2="184.728" gradientUnits="userSpaceOnUse" spreadMethod="pad"><stop id="ebOTaRVoNtP23-fill-0" offset="0%" stop-color="#00e0ca"/><stop id="ebOTaRVoNtP23-fill-1" offset="100%" stop-color="rgba(0,224,202,0)"/></linearGradient><linearGradient id="ebOTaRVoNtP30-fill" x1="32.905" x2="124.916" y1="88.085" y2="111.026" gradientUnits="userSpaceOnUse" spreadMethod="pad"><stop id="ebOTaRVoNtP30-fill-0" offset="0%" stop-color="#369fab"/><stop id="ebOTaRVoNtP30-fill-1" offset="100%" stop-color="#145f57"/></linearGradient><linearGradient id="ebOTaRVoNtP32-fill" x1="51.009" x2="70.875" y1="66.429" y2="87.612" gradientUnits="userSpaceOnUse" spreadMethod="pad"><stop id="ebOTaRVoNtP32-fill-0" offset="0%" stop-color="#00e0ca"/><stop id="ebOTaRVoNtP32-fill-1" offset="100%" stop-color="rgba(0,224,202,0)"/></linearGradient><linearGradient id="ebOTaRVoNtP33-fill" x1="103.45" x2="112.136" y1="62.857" y2="106.287" gradientUnits="userSpaceOnUse" spreadMethod="pad"><stop id="ebOTaRVoNtP33-fill-0" offset="0%" stop-color="#00e0ca"/><stop id="ebOTaRVoNtP33-fill-1" offset="100%" stop-color="rgba(0,224,202,0)"/></linearGradient><linearGradient id="ebOTaRVoNtP44-fill" x1="26.726" x2="99.704" y1="254.751" y2="259.944" gradientUnits="userSpaceOnUse" spreadMethod="pad"><stop id="ebOTaRVoNtP44-fill-0" offset="0%" stop-color="#14cabf"/><stop id="ebOTaRVoNtP44-fill-1" offset="100%" stop-color="#145f57"/></linearGradient><linearGradient id="ebOTaRVoNtP45-fill" x1="29.919" x2="52.314" y1="254.505" y2="255.218" gradientUnits="userSpaceOnUse" spreadMethod="pad"><stop id="ebOTaRVoNtP45-fill-0" offset="0%" stop-color="#00e0ca"/><stop id="ebOTaRVoNtP45-fill-1" offset="100%" stop-color="rgba(0,224,202,0)"/></linearGradient><linearGradient id="ebOTaRVoNtP46-fill" x1="56.572" x2="85.01" y1="223.941" y2="242.888" gradientUnits="userSpaceOnUse" spreadMethod="pad"><stop id="ebOTaRVoNtP46-fill-0" offset="0%" stop-color="#00e0ca"/><stop id="ebOTaRVoNtP46-fill-1" offset="100%" stop-color="rgba(0,224,202,0)"/></linearGradient><linearGradient id="ebOTaRVoNtP48-fill" x1="249.015" x2="324.843" y1="37.833" y2="125.328" gradientUnits="userSpaceOnUse" spreadMethod="pad"><stop id="ebOTaRVoNtP48-fill-0" offset="0%" stop-color="#14cabf"/><stop id="ebOTaRVoNtP48-fill-1" offset="100%" stop-color="#145f57"/></linearGradient><linearGradient id="ebOTaRVoNtP50-fill" x1="252.863" x2="277.118" y1="41.134" y2="66.997" gradientUnits="userSpaceOnUse" spreadMethod="pad"><stop id="ebOTaRVoNtP50-fill-0" offset="0%" stop-color="#00e0ca"/><stop id="ebOTaRVoNtP50-fill-1" offset="100%" stop-color="rgba(0,224,202,0)"/></linearGradient><linearGradient id="ebOTaRVoNtP51-fill" x1="316.889" x2="327.494" y1="36.772" y2="89.799" gradientUnits="userSpaceOnUse" spreadMethod="pad"><stop id="ebOTaRVoNtP51-fill-0" offset="0%" stop-color="#00e0ca"/><stop id="ebOTaRVoNtP51-fill-1" offset="100%" stop-color="rgba(0,224,202,0)"/></linearGradient></defs><g id="ebOTaRVoNtP2_to" style="offset-path:path('M175.219498,62.34395C152.821525,81.854505,171.96587,141.555859,189.536774,179.28805L189.536774,155C169.959314,120.796616,143.200607,92.100635,175.219498,62.34395L175.971891,44.914737L175.219498,62.34395');offset-rotate:0deg"><g id="ebOTaRVoNtP2_ts"><g opacity=".2" transform="translate(-175.22 -62.344)"><path fill="url(#ebOTaRVoNtP3-fill)" d="M188.312 62.344c0 7.23-5.862 13.092-13.093 13.092-7.23 0-13.092-5.861-13.092-13.092 0-7.23 5.862-13.093 13.092-13.093 7.231 0 13.093 5.862 13.093 13.093Z"/><path fill="url(#ebOTaRVoNtP4-fill)" d="M182.914 54.286a10.981 10.981 0 1 0-14.971 15.87l2.658-3.558a6.53 6.53 0 0 1-2.603-4.674 6.551 6.551 0 0 1 1.759-5.053 6.53 6.53 0 0 1 4.942-2.05 6.54 6.54 0 0 1 4.818 2.325l3.397-2.86Z"/><path fill="url(#ebOTaRVoNtP5-fill)" d="M185.799 59.373c.446-.12.714-.579.561-1.014a10.98 10.98 0 0 0-4.163-5.425c-.381-.26-.894-.12-1.124.279-.231.4-.092.908.286 1.173a9.309 9.309 0 0 1 3.381 4.407c.159.433.614.7 1.059.58Z"/></g></g></g><g id="ebOTaRVoNtP6_to" style="offset-path:path('M292.224503,241.062492C285.964565,211.03101,228.473918,188.768301,189.944999,177.818647L189.944999,155C235.872361,162.94232,306.125761,193.141191,292.224503,241.062492L248.487275,274.133882L292.224503,241.062492');offset-rotate:0deg"><g id="ebOTaRVoNtP6_ts"><g opacity=".5" transform="translate(-292.225 -241.062)"><path fill="url(#ebOTaRVoNtP7-fill)" d="M313.609 241.062c0 11.811-9.575 21.385-21.385 21.385s-21.384-9.574-21.384-21.385c0-11.81 9.574-21.384 21.384-21.384s21.385 9.574 21.385 21.384Z"/><path fill="url(#ebOTaRVoNtP8-fill)" d="M304.794 227.902a17.927 17.927 0 0 0-20.591-5.016 17.923 17.923 0 0 0-10.068 10.672 17.931 17.931 0 0 0 6.207 20.264l4.34-5.811a10.682 10.682 0 1 1 14.563-15.438l5.549-4.671Z"/><path fill="url(#ebOTaRVoNtP9-fill)" d="M309.505 236.21c.728-.195 1.165-.945.915-1.657a17.933 17.933 0 0 0-6.798-8.86c-.622-.425-1.461-.197-1.837.456-.377.652-.149 1.482.467 1.916a15.206 15.206 0 0 1 5.523 7.198c.26.707 1.002 1.142 1.73.947Z"/><g style="mix-blend-mode:color-dodge"><g style="mix-blend-mode:color-dodge"><path fill="#909fbe" fill-rule="evenodd" d="M297.979 231.095h-10.958v20.808h10.958v-20.808Zm-9.715 19.514v-18.22h1.928c.12.355.316.68.577.951.46.476 1.082.744 1.731.744s1.271-.268 1.731-.744c.261-.271.457-.596.577-.951h1.928v18.22h-8.472Z" clip-rule="evenodd"/></g><g style="mix-blend-mode:color-dodge"><path fill="#909fbe" fill-rule="evenodd" d="M286.203 228.999c-.663 0-1.203.558-1.203 1.25v22.5c0 .692.54 1.25 1.203 1.25h12.594c.663 0 1.203-.558 1.203-1.25v-22.5c0-.692-.54-1.25-1.203-1.25h-12.594Zm.04 23.706v-22.412h12.514v22.412h-12.514Z" clip-rule="evenodd"/></g></g></g></g></g><g id="ebOTaRVoNtP15_to" transform="translate(116.427 236.027)"><g id="ebOTaRVoNtP15_ts"><g opacity=".1" transform="translate(-116.427 -236.027)"><path fill="url(#ebOTaRVoNtP16-fill)" fill-opacity=".7" d="M126.028 236.027a9.6 9.6 0 0 1-9.601 9.601c-5.302 0-9.601-4.298-9.601-9.601s4.299-9.601 9.601-9.601a9.6 9.6 0 0 1 9.601 9.601Z"/><path fill="url(#ebOTaRVoNtP17-fill)" d="M122.07 230.118a8.055 8.055 0 0 0-9.245-2.252 8.06 8.06 0 0 0-4.52 4.792 8.055 8.055 0 0 0 2.786 9.098l1.949-2.609a4.798 4.798 0 0 1-.619-7.134 4.792 4.792 0 0 1 5.573-1.028 4.807 4.807 0 0 1 1.585 1.23l2.491-2.097Z"/><path fill="url(#ebOTaRVoNtP18-fill)" d="M124.187 233.848a.577.577 0 0 0 .411-.743 8.049 8.049 0 0 0-3.052-3.978c-.28-.191-.656-.089-.825.204s-.067.666.21.86a6.836 6.836 0 0 1 2.48 3.232c.116.318.449.513.776.425Z"/></g></g></g><g id="ebOTaRVoNtP19_to" transform="translate(189.333 179.131)"><g id="ebOTaRVoNtP19_ts"><g opacity=".72" transform="translate(-189.333 -179.131)"><path fill="url(#ebOTaRVoNtP20-fill)" d="M221.868 179.131c0 17.969-14.566 32.535-32.534 32.535-17.969 0-32.535-14.566-32.535-32.535 0-17.968 14.566-32.535 32.535-32.535 17.968 0 32.534 14.567 32.534 32.535Z"/><path fill="#369fab" fill-opacity=".2" fill-rule="evenodd" d="M189.334 210.666c17.416 0 31.534-14.118 31.534-31.535 0-17.416-14.118-31.535-31.534-31.535-17.417 0-31.535 14.119-31.535 31.535 0 17.417 14.118 31.535 31.535 31.535Zm0 1c17.968 0 32.534-14.566 32.534-32.535 0-17.968-14.566-32.535-32.534-32.535-17.969 0-32.535 14.567-32.535 32.535 0 17.969 14.566 32.535 32.535 32.535Z" clip-rule="evenodd"/><path fill="url(#ebOTaRVoNtP22-fill)" d="M208.458 159.108a27.275 27.275 0 0 0-20.103-9.702 27.282 27.282 0 0 0-26.542 18.308 27.287 27.287 0 0 0 9.443 30.831l6.603-8.842a16.243 16.243 0 0 1-6.466-11.616 16.254 16.254 0 0 1 16.65-17.65 16.26 16.26 0 0 1 11.974 5.778l8.441-7.107Z"/><path fill="url(#ebOTaRVoNtP23-fill)" d="M203.103 200.539c.538 1.012 1.8 1.404 2.769.791a27.287 27.287 0 0 0 11.741-30.198c-.301-1.106-1.496-1.67-2.576-1.287-1.081.384-1.637 1.569-1.352 2.68a23.13 23.13 0 0 1-9.768 25.125c-.961.627-1.352 1.876-.814 2.889Z"/><g style="mix-blend-mode:color-dodge"><g style="mix-blend-mode:color-dodge"><path fill="#909fbe" fill-rule="evenodd" d="m189.289 158.639-17.6 17.81 1.928 1.285c.486.324.779.87.779 1.455v15.739a1.05 1.05 0 0 1-2.099 0v-15.551l-2.125-1.417a1.75 1.75 0 0 1-.274-2.685l18.147-18.363a1.749 1.749 0 0 1 2.488 0l18.103 18.319a1.748 1.748 0 0 1-.376 2.748l-2.529 1.445v15.504a1.05 1.05 0 0 1-2.099 0v-15.707c0-.628.336-1.208.882-1.519l2.309-1.319-17.534-17.744Zm17.854 18.068v-.001.001Zm-35.807-.493-.194.291.194-.291Z" clip-rule="evenodd"/></g><g style="mix-blend-mode:color-dodge"><path fill="#0fc1b7" fill-rule="evenodd" d="M191.798 176.382a4.18 4.18 0 0 0-6.638 4.794l3.813 8.489 3.814-8.489a4.18 4.18 0 0 0-.989-4.794Zm-4.498 2.76a1.673 1.673 0 1 1 3.346 0 1.673 1.673 0 0 1-3.346 0Z" clip-rule="evenodd"/></g></g></g></g></g><g id="ebOTaRVoNtP29_to" style="offset-path:path('M80.86475,99.338002C88.301707,143.922437,144.940726,181.829812,191,179.288L191,155C140.876076,142.787696,79.275403,130.436723,80.86475,99.338002L71.829442,50.377773L80.86475,99.338002');offset-rotate:0deg"><g id="ebOTaRVoNtP29_ts"><g transform="translate(-80.865 -99.338)"><path fill="url(#ebOTaRVoNtP30-fill)" d="M121.255 99.338c0 22.307-18.083 40.39-40.39 40.39-22.307 0-40.39-18.083-40.39-40.39 0-22.307 18.083-40.39 40.39-40.39 22.307 0 40.39 18.083 40.39 40.39Z"/><path fill="#369fab" fill-opacity=".2" fill-rule="evenodd" d="M80.865 138.728c21.755 0 39.39-17.635 39.39-39.39 0-21.754-17.635-39.39-39.39-39.39s-39.39 17.636-39.39 39.39c0 21.755 17.635 39.39 39.39 39.39Zm0 1c22.307 0 40.39-18.083 40.39-40.39 0-22.307-18.083-40.39-40.39-40.39-22.307 0-40.39 18.083-40.39 40.39 0 22.307 18.083 40.39 40.39 40.39Z" clip-rule="evenodd"/><path fill="url(#ebOTaRVoNtP32-fill)" d="M104.607 74.48a33.877 33.877 0 0 0-59.664 24.745 33.879 33.879 0 0 0 13.478 24.214l8.198-10.976a20.179 20.179 0 0 1-6.982-22.796 20.177 20.177 0 0 1 34.49-6.363l10.48-8.823Z"/><path fill="url(#ebOTaRVoNtP33-fill)" d="M113.278 107.19c1.364.406 2.81-.37 3.11-1.762a33.876 33.876 0 0 0-16.504-36.68c-1.241-.697-2.78-.13-3.382 1.16-.602 1.29-.036 2.814 1.195 3.528a28.72 28.72 0 0 1 13.732 30.52c-.281 1.395.484 2.829 1.849 3.234Z"/><g style="mix-blend-mode:color-dodge"><g style="mix-blend-mode:color-dodge"><path fill="#0fc1b7" d="M67.604 105.17a1 1 0 0 1-.948.682h-.067a1 1 0 0 1-.944-1.332l3.3-9.37a.999.999 0 0 1 .943-.668h1.127a1 1 0 0 1 .943.667l3.303 9.371a1 1 0 0 1-.943 1.332h-.067a1 1 0 0 1-.948-.681l-2.793-8.315a.062.062 0 0 0-.117 0l-2.79 8.314Zm-.157-2.949c0-.457.37-.827.828-.827h4.341a.827.827 0 1 1 0 1.655h-4.341a.828.828 0 0 1-.828-.828Z"/></g><g style="mix-blend-mode:color-dodge"><path fill="#0fc1b7" d="M85.05 98.113c-.438 0-.809-.298-1.036-.673a2.654 2.654 0 0 0-.085-.132 2.484 2.484 0 0 0-.577-.617 2.33 2.33 0 0 0-.766-.383 3.19 3.19 0 0 0-.944-.133c-.61 0-1.155.154-1.632.46s-.854.76-1.128 1.356c-.27.592-.405 1.314-.405 2.165 0 .859.135 1.586.405 2.182s.646 1.049 1.127 1.36c.482.307 1.04.461 1.677.461.578 0 1.077-.111 1.5-.333.425-.222.753-.537.982-.944.224-.401.339-.869.344-1.405 0-.02.018-.036.039-.033.04.007.036.067-.005.067h-2.434a.22.22 0 0 1-.22-.221v-.584c0-.445.36-.805.805-.805h2.808a1 1 0 0 1 1 1v.365c0 .974-.207 1.816-.621 2.527a4.252 4.252 0 0 1-1.71 1.643c-.726.381-1.559.572-2.499.572-1.047 0-1.967-.235-2.76-.705-.788-.474-1.404-1.146-1.848-2.016-.44-.873-.66-1.91-.66-3.109 0-.918.129-1.738.388-2.46.263-.721.629-1.334 1.1-1.837a4.682 4.682 0 0 1 1.654-1.155 5.26 5.26 0 0 1 2.065-.4c.63 0 1.216.093 1.76.278.544.18 1.027.44 1.45.777a4.342 4.342 0 0 1 1.264 1.617c.25.559-.228 1.115-.84 1.115h-.198Z"/></g><g style="mix-blend-mode:color-dodge"><path fill="#0fc1b7" d="M89.498 105.852a1 1 0 0 1-1-1v-9.37a1 1 0 0 1 1-1h5.532a.863.863 0 1 1 0 1.726h-3.472a1 1 0 0 0-1 1v1.087a1 1 0 0 0 1 1h3.089a.864.864 0 0 1 0 1.727h-3.09a1 1 0 0 0-1 1v1.104a1 1 0 0 0 1 1h3.517a.863.863 0 1 1 0 1.726h-5.576Z"/></g><g style="mix-blend-mode:color-dodge"><path fill="#909fbe" d="M103.414 94.118c.866-.2 1.411-1.067 1.154-1.919a24.756 24.756 0 1 0-14.413 30.085c.824-.334 1.158-1.302.772-2.102-.387-.801-1.347-1.131-2.175-.805a21.536 21.536 0 1 1 12.672-26.449c.264.849 1.123 1.391 1.99 1.19Z"/></g></g></g></g></g><g id="ebOTaRVoNtP43_to" style="offset-path:path('M64.162569,256.162506C112.733508,266.838327,173.577357,224.701572,190.505841,179.131L190.505841,155C139.234527,158.596852,68.623931,211.847025,64.162569,256.162506L75.663366,209.899872L64.162569,256.162506');offset-rotate:0deg"><g id="ebOTaRVoNtP43_ts"><g transform="translate(-64.163 -256.163)"><path fill="url(#ebOTaRVoNtP44-fill)" d="M86.192 234.121c12.173 12.167 12.178 31.898.012 44.071s-31.898 12.178-44.07.012c-12.174-12.167-12.18-31.898-.013-44.071s31.898-12.178 44.071-.012Z"/><path fill="url(#ebOTaRVoNtP45-fill)" d="M63.546 229.648a26.14 26.14 0 0 0-26.382 16.057 26.133 26.133 0 0 0 7.344 29.998 26.143 26.143 0 0 0 20.565 5.852l-1.519-10.461a15.55 15.55 0 0 1-6.496-.433 15.55 15.55 0 0 1-9.751-8.19 15.561 15.561 0 0 1 3.316-18.092 15.57 15.57 0 0 1 12.022-4.199l.901-10.532Z"/><path fill="url(#ebOTaRVoNtP46-fill)" d="M86.126 242.758c.965-.524 1.33-1.736.734-2.659A26.136 26.136 0 0 0 57.842 229.1c-1.057.297-1.588 1.446-1.212 2.478.376 1.032 1.516 1.554 2.578 1.272a22.16 22.16 0 0 1 24.144 9.152c.608.915 1.808 1.279 2.773.756Z"/></g></g></g><g id="ebOTaRVoNtP47_to" style="offset-path:path('M289.315003,81.315003C232.746642,116.760549,162.263099,170.370609,191,180.116949L191,154.999999C124.629635,135.69825,205.090336,110.985416,289.315003,81.315003L292.499999,132.552505L289.315003,81.315003');offset-rotate:0deg"><g id="ebOTaRVoNtP47_ts"><g transform="translate(-289.315 -81.315)"><path fill="url(#ebOTaRVoNtP48-fill)" d="M338.63 81.315c0 27.236-22.079 49.315-49.315 49.315S240 108.551 240 81.315C240 54.079 262.079 32 289.315 32s49.315 22.079 49.315 49.315Z"/><path fill="#369fab" fill-opacity=".2" fill-rule="evenodd" d="M289.315 129.63c26.684 0 48.315-21.632 48.315-48.315C337.63 54.63 315.999 33 289.315 33S241 54.631 241 81.315c0 26.683 21.631 48.315 48.315 48.315Zm0 1c27.236 0 49.315-22.079 49.315-49.315C338.63 54.079 316.551 32 289.315 32S240 54.079 240 81.315c0 27.236 22.079 49.315 49.315 49.315Z" clip-rule="evenodd"/><path fill="url(#ebOTaRVoNtP50-fill)" d="M318.303 50.965a41.359 41.359 0 0 0-72.846 30.212 41.36 41.36 0 0 0 16.456 29.565l10.009-13.403a24.633 24.633 0 0 1 5.304-42.49 24.632 24.632 0 0 1 28.281 6.888l12.796-10.772Z"/><g id="ebOTaRVoNtP51_tr" transform="translate(289.315 81.315)"><path fill="url(#ebOTaRVoNtP51-fill)" d="M329.169 70.125c1.679-.45 2.687-2.18 2.111-3.82a41.363 41.363 0 0 0-15.679-20.434c-1.435-.98-3.368-.455-4.237 1.05s-.343 3.42 1.078 4.42a35.063 35.063 0 0 1 12.737 16.599c.599 1.632 2.311 2.635 3.99 2.185Z" transform="translate(-289.315 -81.315)"/></g><g style="mix-blend-mode:color-dodge"><g id="ebOTaRVoNtP53_ts" transform="translate(288.26 79.017)"><g style="mix-blend-mode:color-dodge" transform="translate(-288.26 -79.017)"><path fill="#909fbe" fill-rule="evenodd" d="M285.163 47.609c.259-.061.524-.093.791-.093h6.15c.167 0 .333.013.498.037l-.388 2.64.388-2.64c5.635.828 8.779 4.775 10.305 8.855l-2.554.955 2.554-.955c1.108 2.96 1.471 6.198 1.427 9.002a5.963 5.963 0 0 1 1.544 1.899c.697 1.341.914 2.911.688 4.423-.226 1.51-.894 2.951-1.963 4.027l-1.893-1.88 1.893 1.88a5.96 5.96 0 0 1-1.793 1.243c-.678 2.514-1.655 4.85-2.947 6.867a76.446 76.446 0 0 0 .017 7.705l12.168 2.634a3.447 3.447 0 0 1 2.712 3.372v9.488c0 1.825-1.46 3.449-3.437 3.449h-46.127c-1.976 0-3.436-1.624-3.436-3.449V97.58a3.446 3.446 0 0 1 2.712-3.372l12.708-2.752c.177-1.963.259-4.214-.021-6.91-1.549-2.205-2.692-4.842-3.455-7.694a6.014 6.014 0 0 1-1.479-1.093c-1.069-1.076-1.737-2.516-1.964-4.027-.226-1.512-.009-3.082.688-4.423a5.97 5.97 0 0 1 1.559-1.91l-.016-1.016v-.002l-.009-.62c-.205-1.876-.291-4.115.084-6.431.572-3.527 3.471-5.762 5.659-7.023 2.373-1.368 5.052-2.25 6.937-2.698Zm-9.683 15.963.012.763c.015.911.03 1.887.031 2.939-.039.003-.079.009-.118.015-.796.126-1.417.678-1.793 1.403-.377.724-.526 1.646-.384 2.596.143.95.554 1.782 1.125 2.357.51.513 1.165.835 1.866.808.731 3.535 2.028 6.638 3.829 8.957.373 2.968.339 5.46.181 7.584a65.386 65.386 0 0 1-.304 2.992.438.438 0 0 0-.212-.01l-14.606 3.164a.447.447 0 0 0-.347.44v9.488c0 .248.195.449.436.449h46.127a.443.443 0 0 0 .437-.449V97.58a.447.447 0 0 0-.347-.44l-14.338-3.105c-.36-3.187-.374-7.732-.162-11.156 1.6-2.255 2.757-5.163 3.423-8.454l.018.003c.796.126 1.549-.208 2.121-.783.57-.575.982-1.407 1.124-2.357.142-.95-.007-1.872-.383-2.596-.377-.725-.998-1.277-1.793-1.403a2.32 2.32 0 0 0-.191-.022c.038-.403.066-.823.084-1.254.111-2.661-.186-5.795-1.219-8.554-1.281-3.425-3.718-6.319-7.931-6.938a.431.431 0 0 0-.062-.005h-6.15a.44.44 0 0 0-.099.012c-1.692.402-4.079 1.195-6.131 2.378-2.026 1.168-3.853 2.79-4.195 4.904-.326 2.009-.248 4.007-.049 5.762Z" clip-rule="evenodd"/></g></g></g></g></g></g></svg>