<svg xmlns="http://www.w3.org/2000/svg" id="edJBSNwzrRk1" shape-rendering="geometricPrecision" text-rendering="geometricPrecision" viewBox="0 0 1400 1200"><style>@keyframes edJBSNwzrRk5_to__to{0%{transform:translate(164.935623px,190.523522px);animation-timing-function:cubic-bezier(.445,.05,.55,.95)}50%{transform:translate(164.935623px,167.967261px);animation-timing-function:cubic-bezier(.445,.05,.55,.95)}to{transform:translate(164.935623px,190.523522px)}}@keyframes edJBSNwzrRk12_tr__tr{0%{transform:translate(231.69499px,229.934906px) rotate(0deg);animation-timing-function:cubic-bezier(.445,.05,.55,.95)}50%{transform:translate(231.69499px,229.934906px) rotate(-11.760969deg);animation-timing-function:cubic-bezier(.445,.05,.55,.95)}to{transform:translate(231.69499px,229.934906px) rotate(0deg)}}@keyframes edJBSNwzrRk13_to__to{0%{transform:translate(276.145554px,180.511024px);animation-timing-function:cubic-bezier(.445,.05,.55,.95)}50%{transform:translate(266.035107px,166.942112px);animation-timing-function:cubic-bezier(.445,.05,.55,.95)}to{transform:translate(276.145554px,180.511024px)}}@keyframes edJBSNwzrRk13_tr__tr{0%{transform:rotate(0deg);animation-timing-function:cubic-bezier(.445,.05,.55,.95)}50%{transform:rotate(-26.677478deg);animation-timing-function:cubic-bezier(.445,.05,.55,.95)}to{transform:rotate(0deg)}}@keyframes edJBSNwzrRk17_tr__tr{0%{transform:translate(97.790448px,223.79px) rotate(0deg);animation-timing-function:cubic-bezier(.445,.05,.55,.95)}50%{transform:translate(97.790448px,223.79px) rotate(12.070068deg);animation-timing-function:cubic-bezier(.445,.05,.55,.95)}to{transform:translate(97.790448px,223.79px) rotate(0deg)}}@keyframes edJBSNwzrRk18_to__to{0%{transform:translate(53.725586px,180.511024px);animation-timing-function:cubic-bezier(.445,.05,.55,.95)}50%{transform:translate(62.629489px,166.892182px);animation-timing-function:cubic-bezier(.445,.05,.55,.95)}to{transform:translate(53.725586px,180.511024px)}}@keyframes edJBSNwzrRk18_tr__tr{0%{transform:rotate(0deg);animation-timing-function:cubic-bezier(.445,.05,.55,.95)}50%{transform:rotate(24.563509deg);animation-timing-function:cubic-bezier(.445,.05,.55,.95)}to{transform:rotate(0deg)}}@keyframes edJBSNwzrRk47_to__to{0%{transform:translate(165.107002px,176.053001px);animation-timing-function:cubic-bezier(.445,.05,.55,.95)}50%{transform:translate(165.107002px,205.121009px);animation-timing-function:cubic-bezier(.445,.05,.55,.95)}to{transform:translate(165.107002px,176.053001px)}}@keyframes edJBSNwzrRk88_to__to{0%{transform:translate(104.334503px,58.560947px);animation-timing-function:cubic-bezier(.445,.05,.55,.95)}56%{transform:translate(91.405295px,68.08771px);animation-timing-function:cubic-bezier(.445,.05,.55,.95)}to{transform:translate(104.334503px,58.560947px)}}@keyframes edJBSNwzrRk98_to__to{0%{transform:translate(213.035499px,53.564052px);animation-timing-function:cubic-bezier(.42,0,.58,1)}44%{transform:translate(224.669232px,68.386573px);animation-timing-function:cubic-bezier(.42,0,.58,1)}to{transform:translate(213.035499px,53.564052px)}}@keyframes edJBSNwzrRk108_to__to{0%{transform:translate(58.726px,141.782494px);animation-timing-function:cubic-bezier(.445,.05,.55,.95)}54%{transform:translate(66.822284px,126.149964px);animation-timing-function:cubic-bezier(.445,.05,.55,.95)}to{transform:translate(58.726px,141.782494px)}}@keyframes edJBSNwzrRk115_to__to{0%{transform:translate(111.690994px,136.638535px);animation-timing-function:cubic-bezier(.445,.05,.55,.95)}50%{transform:translate(130.054649px,121.345416px);animation-timing-function:cubic-bezier(.445,.05,.55,.95)}to{transform:translate(111.690994px,136.638535px)}}@keyframes edJBSNwzrRk120_to__to{0%{transform:translate(236.480995px,88.036003px);animation-timing-function:cubic-bezier(.445,.05,.55,.95)}44%{transform:translate(272.085942px,101.60293px);animation-timing-function:cubic-bezier(.445,.05,.55,.95)}to{transform:translate(236.480995px,88.036003px)}}@keyframes edJBSNwzrRk122_to__to{0%{transform:translate(90.239px,293.674px);animation-timing-function:cubic-bezier(.445,.05,.55,.95)}46%{transform:translate(90.239px,271.117739px);animation-timing-function:cubic-bezier(.445,.05,.55,.95)}to{transform:translate(90.239px,293.674px)}}@keyframes edJBSNwzrRk124_to__to{0%{transform:translate(-12.3354px,130.036px);animation-timing-function:cubic-bezier(.445,.05,.55,.95)}54%{transform:translate(-12.3354px,107.479739px);animation-timing-function:cubic-bezier(.445,.05,.55,.95)}to{transform:translate(-12.3354px,130.036px)}}@keyframes edJBSNwzrRk125_to__to{0%{transform:translate(215.954002px,103.470703px);animation-timing-function:cubic-bezier(.445,.05,.55,.95)}50%{transform:translate(211.052917px,88.611482px);animation-timing-function:cubic-bezier(.445,.05,.55,.95)}to{transform:translate(215.954002px,103.470703px)}}@keyframes edJBSNwzrRk130_to__to{0%{transform:translate(258.301506px,108.380348px);animation-timing-function:cubic-bezier(.425,.12,.575,.79)}48%{transform:translate(271.623433px,109.286696px);animation-timing-function:cubic-bezier(.425,.12,.575,.79)}to{transform:translate(258.301506px,108.380348px)}}#edJBSNwzrRk5_to{animation:edJBSNwzrRk5_to__to 5000ms linear infinite normal forwards}#edJBSNwzrRk12_tr{animation:edJBSNwzrRk12_tr__tr 5000ms linear infinite normal forwards}#edJBSNwzrRk13_to{animation:edJBSNwzrRk13_to__to 5000ms linear infinite normal forwards}#edJBSNwzrRk13_tr{animation:edJBSNwzrRk13_tr__tr 5000ms linear infinite normal forwards}#edJBSNwzrRk17_tr{animation:edJBSNwzrRk17_tr__tr 5000ms linear infinite normal forwards}#edJBSNwzrRk18_to{animation:edJBSNwzrRk18_to__to 5000ms linear infinite normal forwards}#edJBSNwzrRk18_tr{animation:edJBSNwzrRk18_tr__tr 5000ms linear infinite normal forwards}#edJBSNwzrRk47_to{animation:edJBSNwzrRk47_to__to 5000ms linear infinite normal forwards}#edJBSNwzrRk88_to{animation:edJBSNwzrRk88_to__to 5000ms linear infinite normal forwards}#edJBSNwzrRk98_to{animation:edJBSNwzrRk98_to__to 5000ms linear infinite normal forwards}#edJBSNwzrRk108_to{animation:edJBSNwzrRk108_to__to 5000ms linear infinite normal forwards}#edJBSNwzrRk115_to{animation:edJBSNwzrRk115_to__to 5000ms linear infinite normal forwards}#edJBSNwzrRk120_to{animation:edJBSNwzrRk120_to__to 5000ms linear infinite normal forwards}#edJBSNwzrRk122_to{animation:edJBSNwzrRk122_to__to 5000ms linear infinite normal forwards}#edJBSNwzrRk124_to{animation:edJBSNwzrRk124_to__to 5000ms linear infinite normal forwards}#edJBSNwzrRk125_to{animation:edJBSNwzrRk125_to__to 5000ms linear infinite normal forwards}#edJBSNwzrRk130_to{animation:edJBSNwzrRk130_to__to 5000ms linear infinite normal forwards}</style><defs><linearGradient id="edJBSNwzrRk12-fill" x1="246.171" x2="246.171" y1="178.761" y2="236.123" gradientUnits="userSpaceOnUse" spreadMethod="pad"><stop id="edJBSNwzrRk12-fill-0" offset="0%" stop-color="#002d6d"/><stop id="edJBSNwzrRk12-fill-1" offset="100%" stop-color="#00162e"/></linearGradient><linearGradient id="edJBSNwzrRk15-fill" x1="164.937" x2="164.937" y1="147.952" y2="268.462" gradientUnits="userSpaceOnUse" spreadMethod="pad"><stop id="edJBSNwzrRk15-fill-0" offset="0%" stop-color="#cddeec"/><stop id="edJBSNwzrRk15-fill-1" offset="100%" stop-color="#aec9da"/></linearGradient><linearGradient id="edJBSNwzrRk16-fill" x1="97.723" x2="155.679" y1="240.025" y2="280.176" gradientUnits="userSpaceOnUse" spreadMethod="pad"><stop id="edJBSNwzrRk16-fill-0" offset="0%" stop-color="#002150"/><stop id="edJBSNwzrRk16-fill-1" offset="100%" stop-color="#00162f"/></linearGradient><linearGradient id="edJBSNwzrRk17-fill" x1="83.7" x2="83.7" y1="178.761" y2="236.123" gradientUnits="userSpaceOnUse" spreadMethod="pad"><stop id="edJBSNwzrRk17-fill-0" offset="0%" stop-color="#002d6d"/><stop id="edJBSNwzrRk17-fill-1" offset="100%" stop-color="#00162e"/></linearGradient><linearGradient id="edJBSNwzrRk20-fill" x1="165.431" x2="165.431" y1="147.952" y2="218.526" gradientUnits="userSpaceOnUse" spreadMethod="pad"><stop id="edJBSNwzrRk20-fill-0" offset="0%" stop-color="#001121"/><stop id="edJBSNwzrRk20-fill-1" offset="100%" stop-color="#003075"/></linearGradient><linearGradient id="edJBSNwzrRk21-fill" x1="163.036" x2="163.036" y1="137.77" y2="153.651" gradientUnits="userSpaceOnUse" spreadMethod="pad"><stop id="edJBSNwzrRk21-fill-0" offset="0%" stop-color="#b5cbde"/><stop id="edJBSNwzrRk21-fill-1" offset="100%" stop-color="#cddeec"/></linearGradient><linearGradient id="edJBSNwzrRk22-fill" x1="250.151" x2="153.862" y1="251.108" y2="271.819" gradientUnits="userSpaceOnUse" spreadMethod="pad"><stop id="edJBSNwzrRk22-fill-0" offset="0%" stop-color="#001c40"/><stop id="edJBSNwzrRk22-fill-1" offset="100%" stop-color="#002555"/></linearGradient><linearGradient id="edJBSNwzrRk24-fill" x1="237.513" x2="167.063" y1="237.558" y2="267.85" gradientUnits="userSpaceOnUse" spreadMethod="pad"><stop id="edJBSNwzrRk24-fill-0" offset="0%" stop-color="#1a6d9a"/><stop id="edJBSNwzrRk24-fill-1" offset="100%" stop-color="rgba(26,109,154,0)"/></linearGradient><linearGradient id="edJBSNwzrRk25-stroke" x1="245.822" x2="174.16" y1="243.097" y2="266.119" gradientUnits="userSpaceOnUse" spreadMethod="pad"><stop id="edJBSNwzrRk25-stroke-0" offset="0%" stop-color="#06f"/><stop id="edJBSNwzrRk25-stroke-1" offset="100%" stop-color="rgba(0,102,255,0)"/></linearGradient><linearGradient id="edJBSNwzrRk34-fill" x1="176.708" x2="157.483" y1="84.773" y2="128.978" gradientUnits="userSpaceOnUse" spreadMethod="pad"><stop id="edJBSNwzrRk34-fill-0" offset="0%" stop-color="#00101f"/><stop id="edJBSNwzrRk34-fill-1" offset="100%" stop-color="#003483"/></linearGradient><linearGradient id="edJBSNwzrRk39-fill" x1="196.881" x2="199.93" y1="114.346" y2="130.648" gradientUnits="userSpaceOnUse" spreadMethod="pad"><stop id="edJBSNwzrRk39-fill-0" offset="0%" stop-color="#cddeec"/><stop id="edJBSNwzrRk39-fill-1" offset="100%" stop-color="#b9cee0"/></linearGradient><linearGradient id="edJBSNwzrRk50-fill" x1="165.466" x2="165.466" y1="165.9" y2="185.178" gradientUnits="userSpaceOnUse" spreadMethod="pad"><stop id="edJBSNwzrRk50-fill-0" offset="0%" stop-color="#3df7e5"/><stop id="edJBSNwzrRk50-fill-1" offset="100%" stop-color="#12b4aa"/></linearGradient><linearGradient id="edJBSNwzrRk51-fill" x1="165.795" x2="165.795" y1="169.953" y2="168.479" gradientUnits="userSpaceOnUse" spreadMethod="pad"><stop id="edJBSNwzrRk51-fill-0" offset="3.125%" stop-color="#34e8d8"/><stop id="edJBSNwzrRk51-fill-1" offset="100%" stop-color="#47fcea"/></linearGradient><linearGradient id="edJBSNwzrRk52-fill" x1="164.84" x2="164.866" y1="164.191" y2="167.598" gradientUnits="userSpaceOnUse" spreadMethod="pad"><stop id="edJBSNwzrRk52-fill-0" offset="0%" stop-color="#fff"/><stop id="edJBSNwzrRk52-fill-1" offset="100%" stop-color="rgba(255,255,255,0)"/></linearGradient><linearGradient id="edJBSNwzrRk53-fill" x1="165.306" x2="165.306" y1="185.248" y2="181.316" gradientUnits="userSpaceOnUse" spreadMethod="pad"><stop id="edJBSNwzrRk53-fill-0" offset="3.125%" stop-color="#37d2ca"/><stop id="edJBSNwzrRk53-fill-1" offset="100%" stop-color="#47fcea"/></linearGradient><linearGradient id="edJBSNwzrRk54-fill" x1="165.306" x2="165.306" y1="173.804" y2="184.914" gradientUnits="userSpaceOnUse" spreadMethod="pad"><stop id="edJBSNwzrRk54-fill-0" offset="0%" stop-color="#fff"/><stop id="edJBSNwzrRk54-fill-1" offset="100%" stop-color="rgba(255,255,255,0)"/></linearGradient><linearGradient id="edJBSNwzrRk55-fill" x1="173.848" x2="172.385" y1="182.822" y2="179.147" gradientUnits="userSpaceOnUse" spreadMethod="pad"><stop id="edJBSNwzrRk55-fill-0" offset="0%" stop-color="#00e0ca"/><stop id="edJBSNwzrRk55-fill-1" offset="42.749%" stop-color="#00e0ca"/><stop id="edJBSNwzrRk55-fill-2" offset="100%" stop-color="#03959b"/></linearGradient><linearGradient id="edJBSNwzrRk57-fill" x1="175.262" x2="173.163" y1="183.95" y2="178.674" gradientUnits="userSpaceOnUse" spreadMethod="pad"><stop id="edJBSNwzrRk57-fill-0" offset="0%" stop-color="rgba(255,255,255,0.49)"/><stop id="edJBSNwzrRk57-fill-1" offset="100%" stop-color="rgba(255,255,255,0)"/></linearGradient><linearGradient id="edJBSNwzrRk58-fill" x1="162.676" x2="161.358" y1="181.244" y2="184.988" gradientUnits="userSpaceOnUse" spreadMethod="pad"><stop id="edJBSNwzrRk58-fill-0" offset="0%" stop-color="#03959b"/><stop id="edJBSNwzrRk58-fill-1" offset="44.139%" stop-color="#1dd2c7"/></linearGradient><linearGradient id="edJBSNwzrRk59-fill" x1="156.28" x2="158.336" y1="183.418" y2="179.898" gradientUnits="userSpaceOnUse" spreadMethod="pad"><stop id="edJBSNwzrRk59-fill-0" offset="0%" stop-color="rgba(255,255,255,0.54)"/><stop id="edJBSNwzrRk59-fill-1" offset="100%" stop-color="rgba(255,255,255,0)"/></linearGradient><linearGradient id="edJBSNwzrRk62-fill" x1="167.695" x2="168.099" y1="171.183" y2="174.232" gradientUnits="userSpaceOnUse" spreadMethod="pad"><stop id="edJBSNwzrRk62-fill-0" offset="0%" stop-color="#008c95"/><stop id="edJBSNwzrRk62-fill-1" offset="100%" stop-color="rgba(0,140,149,0)"/></linearGradient><linearGradient id="edJBSNwzrRk63-fill" x1="163.452" x2="171.192" y1="176.361" y2="173.01" gradientUnits="userSpaceOnUse" spreadMethod="pad"><stop id="edJBSNwzrRk63-fill-0" offset="0%" stop-color="rgba(71,252,234,0.42)"/><stop id="edJBSNwzrRk63-fill-1" offset="100%" stop-color="rgba(15,193,183,0)"/></linearGradient><linearGradient id="edJBSNwzrRk65-fill" x1="162.918" x2="162.514" y1="171.183" y2="174.232" gradientUnits="userSpaceOnUse" spreadMethod="pad"><stop id="edJBSNwzrRk65-fill-0" offset="0%" stop-color="#008c95"/><stop id="edJBSNwzrRk65-fill-1" offset="100%" stop-color="rgba(0,140,149,0)"/></linearGradient><linearGradient id="edJBSNwzrRk66-fill" x1="167.161" x2="159.422" y1="176.361" y2="173.01" gradientUnits="userSpaceOnUse" spreadMethod="pad"><stop id="edJBSNwzrRk66-fill-0" offset="0%" stop-color="rgba(71,252,234,0.42)"/><stop id="edJBSNwzrRk66-fill-1" offset="100%" stop-color="rgba(15,193,183,0)"/></linearGradient><linearGradient id="edJBSNwzrRk68-fill" x1="171.116" x2="172.345" y1="174.842" y2="165.901" gradientUnits="userSpaceOnUse" spreadMethod="pad"><stop id="edJBSNwzrRk68-fill-0" offset="0%" stop-color="#00e0ca"/><stop id="edJBSNwzrRk68-fill-1" offset="100%" stop-color="#47fcea"/></linearGradient><linearGradient id="edJBSNwzrRk69-fill" x1="167.212" x2="175.601" y1="170.968" y2="168.284" gradientUnits="userSpaceOnUse" spreadMethod="pad"><stop id="edJBSNwzrRk69-fill-0" offset="0%" stop-color="#47fcea"/><stop id="edJBSNwzrRk69-fill-1" offset="100%" stop-color="rgba(255,255,255,0)"/></linearGradient><linearGradient id="edJBSNwzrRk74-fill" x1="170.293" x2="171.18" y1="170.892" y2="188.797" gradientUnits="userSpaceOnUse" spreadMethod="pad"><stop id="edJBSNwzrRk74-fill-0" offset="0%" stop-color="#12ddcc"/><stop id="edJBSNwzrRk74-fill-1" offset="100%" stop-color="rgba(18,221,204,0)"/></linearGradient><linearGradient id="edJBSNwzrRk75-fill" x1="163.903" x2="165.774" y1="182.67" y2="178.376" gradientUnits="userSpaceOnUse" spreadMethod="pad"><stop id="edJBSNwzrRk75-fill-0" offset="0%" stop-color="#47fcea"/><stop id="edJBSNwzrRk75-fill-1" offset="100%" stop-color="rgba(255,255,255,0)"/></linearGradient><linearGradient id="edJBSNwzrRk76-fill" x1="165.307" x2="170.897" y1="181.352" y2="181.806" gradientUnits="userSpaceOnUse" spreadMethod="pad"><stop id="edJBSNwzrRk76-fill-0" offset="0%" stop-color="#0fb2af"/><stop id="edJBSNwzrRk76-fill-1" offset="100%" stop-color="rgba(24,202,191,0)"/></linearGradient><linearGradient id="edJBSNwzrRk77-fill" x1="165.307" x2="170.897" y1="181.352" y2="181.806" gradientUnits="userSpaceOnUse" spreadMethod="pad"><stop id="edJBSNwzrRk77-fill-0" offset="0%" stop-color="#0fb2af"/><stop id="edJBSNwzrRk77-fill-1" offset="100%" stop-color="rgba(24,202,191,0)"/></linearGradient><linearGradient id="edJBSNwzrRk79-fill" x1="165.323" x2="165.323" y1="170.993" y2="167.14" gradientUnits="userSpaceOnUse" spreadMethod="pad"><stop id="edJBSNwzrRk79-fill-0" offset="0%" stop-color="#00e0ca"/><stop id="edJBSNwzrRk79-fill-1" offset="100%" stop-color="#2af7ea"/></linearGradient><linearGradient id="edJBSNwzrRk83-fill" x1="165.218" x2="165.218" y1="177.487" y2="182.906" gradientUnits="userSpaceOnUse" spreadMethod="pad"><stop id="edJBSNwzrRk83-fill-0" offset="0%" stop-color="rgba(15,193,183,0)"/><stop id="edJBSNwzrRk83-fill-1" offset="100%" stop-color="#47fcea"/></linearGradient><linearGradient id="edJBSNwzrRk84-fill" x1="170.491" x2="173.343" y1="170.993" y2="168.376" gradientUnits="userSpaceOnUse" spreadMethod="pad"><stop id="edJBSNwzrRk84-fill-0" offset="0%" stop-color="#0ba8a8"/><stop id="edJBSNwzrRk84-fill-1" offset="100%" stop-color="rgba(11,168,168,0)"/></linearGradient><linearGradient id="edJBSNwzrRk85-fill" x1="160.218" x2="157.382" y1="170.993" y2="168.314" gradientUnits="userSpaceOnUse" spreadMethod="pad"><stop id="edJBSNwzrRk85-fill-0" offset="0%" stop-color="#0ba8a8"/><stop id="edJBSNwzrRk85-fill-1" offset="100%" stop-color="rgba(11,168,168,0)"/></linearGradient><linearGradient id="edJBSNwzrRk90-fill" x1="109.092" x2="125.431" y1="44.344" y2="51.421" gradientUnits="userSpaceOnUse" spreadMethod="pad"><stop id="edJBSNwzrRk90-fill-0" offset="0%" stop-color="#3b6597"/><stop id="edJBSNwzrRk90-fill-1" offset="100%" stop-color="rgba(59,101,151,0)"/></linearGradient><linearGradient id="edJBSNwzrRk91-fill" x1="109.092" x2="121.324" y1="44.344" y2="42.827" gradientUnits="userSpaceOnUse" spreadMethod="pad"><stop id="edJBSNwzrRk91-fill-0" offset="0%" stop-color="#0f9eb8"/><stop id="edJBSNwzrRk91-fill-1" offset="100%" stop-color="rgba(59,101,151,0)"/></linearGradient><linearGradient id="edJBSNwzrRk92-fill" x1="111.381" x2="103.936" y1="65.191" y2="29.52" gradientUnits="userSpaceOnUse" spreadMethod="pad"><stop id="edJBSNwzrRk92-fill-0" offset="0%" stop-color="#3b6597"/><stop id="edJBSNwzrRk92-fill-1" offset="100%" stop-color="rgba(59,101,151,0)"/></linearGradient><linearGradient id="edJBSNwzrRk93-fill" x1="81.636" x2="91.454" y1="62.875" y2="63.369" gradientUnits="userSpaceOnUse" spreadMethod="pad"><stop id="edJBSNwzrRk93-fill-0" offset="0%" stop-color="#3b6597"/><stop id="edJBSNwzrRk93-fill-1" offset="100%" stop-color="rgba(59,101,151,0)"/></linearGradient><linearGradient id="edJBSNwzrRk94-fill" x1="94.834" x2="106.463" y1="44.795" y2="54.545" gradientUnits="userSpaceOnUse" spreadMethod="pad"><stop id="edJBSNwzrRk94-fill-0" offset="0%" stop-color="#5cffef"/><stop id="edJBSNwzrRk94-fill-1" offset="100%" stop-color="rgba(23,225,213,0)"/></linearGradient><linearGradient id="edJBSNwzrRk95-fill" x1="143.36" x2="94.11" y1="4.435" y2="82.516" gradientUnits="userSpaceOnUse" spreadMethod="pad"><stop id="edJBSNwzrRk95-fill-0" offset="0%" stop-color="#3b6597"/><stop id="edJBSNwzrRk95-fill-1" offset="100%" stop-color="rgba(59,101,151,0)"/></linearGradient><linearGradient id="edJBSNwzrRk96-fill" x1="118.865" x2="118.158" y1="35.181" y2="60.846" gradientUnits="userSpaceOnUse" spreadMethod="pad"><stop id="edJBSNwzrRk96-fill-0" offset="0%" stop-color="#3b6597"/><stop id="edJBSNwzrRk96-fill-1" offset="100%" stop-color="rgba(59,101,151,0)"/></linearGradient><linearGradient id="edJBSNwzrRk97-fill" x1="99.998" x2="101.363" y1="90.14" y2="78.541" gradientUnits="userSpaceOnUse" spreadMethod="pad"><stop id="edJBSNwzrRk97-fill-0" offset="0%" stop-color="#3b6597"/><stop id="edJBSNwzrRk97-fill-1" offset="100%" stop-color="rgba(59,101,151,0)"/></linearGradient><linearGradient id="edJBSNwzrRk100-fill" x1="223.325" x2="218.267" y1="56.956" y2="68.812" gradientUnits="userSpaceOnUse" spreadMethod="pad"><stop id="edJBSNwzrRk100-fill-0" offset="0%" stop-color="#3b6597"/><stop id="edJBSNwzrRk100-fill-1" offset="100%" stop-color="rgba(59,101,151,0)"/></linearGradient><linearGradient id="edJBSNwzrRk101-fill" x1="223.325" x2="224.472" y1="56.956" y2="65.804" gradientUnits="userSpaceOnUse" spreadMethod="pad"><stop id="edJBSNwzrRk101-fill-0" offset="0%" stop-color="#0f9eb8"/><stop id="edJBSNwzrRk101-fill-1" offset="100%" stop-color="rgba(59,101,151,0)"/></linearGradient><linearGradient id="edJBSNwzrRk102-fill" x1="208.244" x2="234.035" y1="58.697" y2="53.165" gradientUnits="userSpaceOnUse" spreadMethod="pad"><stop id="edJBSNwzrRk102-fill-0" offset="0%" stop-color="#3b6597"/><stop id="edJBSNwzrRk102-fill-1" offset="100%" stop-color="rgba(59,101,151,0)"/></linearGradient><linearGradient id="edJBSNwzrRk103-fill" x1="209.802" x2="209.483" y1="37.155" y2="44.264" gradientUnits="userSpaceOnUse" spreadMethod="pad"><stop id="edJBSNwzrRk103-fill-0" offset="0%" stop-color="#3b6597"/><stop id="edJBSNwzrRk103-fill-1" offset="100%" stop-color="rgba(59,101,151,0)"/></linearGradient><linearGradient id="edJBSNwzrRk104-fill" x1="222.942" x2="215.931" y1="46.638" y2="55.094" gradientUnits="userSpaceOnUse" spreadMethod="pad"><stop id="edJBSNwzrRk104-fill-0" offset="0%" stop-color="#5cffef"/><stop id="edJBSNwzrRk104-fill-1" offset="100%" stop-color="rgba(23,225,213,0)"/></linearGradient><linearGradient id="edJBSNwzrRk105-fill" x1="252.35" x2="195.632" y1="81.601" y2="46.263" gradientUnits="userSpaceOnUse" spreadMethod="pad"><stop id="edJBSNwzrRk105-fill-0" offset="0%" stop-color="#3b6597"/><stop id="edJBSNwzrRk105-fill-1" offset="100%" stop-color="rgba(59,101,151,0)"/></linearGradient><linearGradient id="edJBSNwzrRk106-fill" x1="229.998" x2="211.417" y1="63.995" y2="63.586" gradientUnits="userSpaceOnUse" spreadMethod="pad"><stop id="edJBSNwzrRk106-fill-0" offset="0%" stop-color="#3b6597"/><stop id="edJBSNwzrRk106-fill-1" offset="100%" stop-color="rgba(59,101,151,0)"/></linearGradient><linearGradient id="edJBSNwzrRk107-fill" x1="190.139" x2="198.541" y1="50.557" y2="51.498" gradientUnits="userSpaceOnUse" spreadMethod="pad"><stop id="edJBSNwzrRk107-fill-0" offset="0%" stop-color="#3b6597"/><stop id="edJBSNwzrRk107-fill-1" offset="100%" stop-color="rgba(59,101,151,0)"/></linearGradient><linearGradient id="edJBSNwzrRk110-fill" x1="69.2" x2="62.265" y1="130.982" y2="136.546" gradientUnits="userSpaceOnUse" spreadMethod="pad"><stop id="edJBSNwzrRk110-fill-0" offset="0%" stop-color="#41f9e7"/><stop id="edJBSNwzrRk110-fill-1" offset="100%" stop-color="rgba(65,249,231,0.91)"/></linearGradient><linearGradient id="edJBSNwzrRk111-fill" x1="66.61" x2="51.733" y1="139.125" y2="142.028" gradientUnits="userSpaceOnUse" spreadMethod="pad"><stop id="edJBSNwzrRk111-fill-0" offset="0%" stop-color="#3b6597"/><stop id="edJBSNwzrRk111-fill-1" offset="100%" stop-color="rgba(59,101,151,0)"/></linearGradient><linearGradient id="edJBSNwzrRk112-fill" x1="67.356" x2="63.647" y1="143.781" y2="149.224" gradientUnits="userSpaceOnUse" spreadMethod="pad"><stop id="edJBSNwzrRk112-fill-0" offset="0%" stop-color="#3b6597"/><stop id="edJBSNwzrRk112-fill-1" offset="100%" stop-color="rgba(59,101,151,0)"/></linearGradient><linearGradient id="edJBSNwzrRk113-fill" x1="78.151" x2="68.303" y1="151.011" y2="137.818" gradientUnits="userSpaceOnUse" spreadMethod="pad"><stop id="edJBSNwzrRk113-fill-0" offset="0%" stop-color="#3b6597"/><stop id="edJBSNwzrRk113-fill-1" offset="100%" stop-color="rgba(59,101,151,0)"/></linearGradient><linearGradient id="edJBSNwzrRk114-fill" x1="69.557" x2="69.586" y1="137.831" y2="145.488" gradientUnits="userSpaceOnUse" spreadMethod="pad"><stop id="edJBSNwzrRk114-fill-0" offset="0%" stop-color="#8cfff4"/><stop id="edJBSNwzrRk114-fill-1" offset="100%" stop-color="#3bf0df"/></linearGradient><linearGradient id="edJBSNwzrRk132-fill" x1="269.158" x2="263.96" y1="128.326" y2="115.719" gradientUnits="userSpaceOnUse" spreadMethod="pad"><stop id="edJBSNwzrRk132-fill-0" offset="0%" stop-color="#41f9e7"/><stop id="edJBSNwzrRk132-fill-1" offset="100%" stop-color="rgba(65,249,231,0.91)"/></linearGradient><linearGradient id="edJBSNwzrRk133-fill" x1="258.289" x2="260.433" y1="121.002" y2="97.851" gradientUnits="userSpaceOnUse" spreadMethod="pad"><stop id="edJBSNwzrRk133-fill-0" offset="0%" stop-color="#3b6597"/><stop id="edJBSNwzrRk133-fill-1" offset="100%" stop-color="rgba(59,101,151,0)"/></linearGradient><linearGradient id="edJBSNwzrRk134-fill" x1="251.112" x2="244.7" y1="120.092" y2="112.284" gradientUnits="userSpaceOnUse" spreadMethod="pad"><stop id="edJBSNwzrRk134-fill-0" offset="0%" stop-color="#3b6597"/><stop id="edJBSNwzrRk134-fill-1" offset="100%" stop-color="rgba(59,101,151,0)"/></linearGradient><linearGradient id="edJBSNwzrRk135-fill" x1="235.815" x2="259.484" y1="132.865" y2="124.06" gradientUnits="userSpaceOnUse" spreadMethod="pad"><stop id="edJBSNwzrRk135-fill-0" offset="0%" stop-color="#3b6597"/><stop id="edJBSNwzrRk135-fill-1" offset="100%" stop-color="rgba(59,101,151,0)"/></linearGradient><linearGradient id="edJBSNwzrRk136-fill" x1="258.921" x2="247.636" y1="125.898" y2="122.637" gradientUnits="userSpaceOnUse" spreadMethod="pad"><stop id="edJBSNwzrRk136-fill-0" offset="0%" stop-color="#8cfff4"/><stop id="edJBSNwzrRk136-fill-1" offset="100%" stop-color="#3bf0df"/></linearGradient><radialGradient id="edJBSNwzrRk49-fill" cx="0" cy="0" r="1" gradientTransform="matrix(0 23.7613 -23.215 0 0 0)" gradientUnits="userSpaceOnUse" spreadMethod="pad"><stop id="edJBSNwzrRk49-fill-0" offset="42.995%" stop-color="#45e7dd"/><stop id="edJBSNwzrRk49-fill-1" offset="100%" stop-color="rgba(15,76,235,0)"/></radialGradient><radialGradient id="edJBSNwzrRk56-fill" cx="0" cy="0" r="1" gradientTransform="matrix(-2.17583 -.43288 .27148 -1.36459 172.851 182.858)" gradientUnits="userSpaceOnUse" spreadMethod="pad"><stop id="edJBSNwzrRk56-fill-0" offset="0%" stop-color="#40f9e7"/><stop id="edJBSNwzrRk56-fill-1" offset="100%" stop-color="rgba(98,248,254,0)"/></radialGradient><radialGradient id="edJBSNwzrRk71-fill" cx="0" cy="0" r="1" gradientTransform="matrix(-7.59916 -.49688 .06981 -1.06773 162.236 182.29)" gradientUnits="userSpaceOnUse" spreadMethod="pad"><stop id="edJBSNwzrRk71-fill-0" offset="0%" stop-color="#47fcea"/><stop id="edJBSNwzrRk71-fill-1" offset="100%" stop-color="rgba(255,255,255,0)"/></radialGradient><radialGradient id="edJBSNwzrRk72-fill" cx="0" cy="0" r="1" gradientTransform="matrix(9.57201 -3.41961 .26609 .74482 156.317 180.975)" gradientUnits="userSpaceOnUse" spreadMethod="pad"><stop id="edJBSNwzrRk72-fill-0" offset="0%" stop-color="rgba(0,140,149,0.38)"/><stop id="edJBSNwzrRk72-fill-1" offset="100%" stop-color="rgba(0,224,202,0)"/></radialGradient><radialGradient id="edJBSNwzrRk73-fill" cx="0" cy="0" r="1" gradientTransform="matrix(4.82254 6.51772 -2.23698 1.65517 160.409 173.814)" gradientUnits="userSpaceOnUse" spreadMethod="pad"><stop id="edJBSNwzrRk73-fill-0" offset="0%" stop-color="#41f9e7"/><stop id="edJBSNwzrRk73-fill-1" offset="100%" stop-color="rgba(27,231,215,0)"/></radialGradient><radialGradient id="edJBSNwzrRk78-fill" cx="0" cy="0" r="1" gradientTransform="matrix(0 4.30535 -6.66552 0 165.321 174.324)" gradientUnits="userSpaceOnUse" spreadMethod="pad"><stop id="edJBSNwzrRk78-fill-0" offset="0%" stop-color="rgba(71,252,234,0.33)"/><stop id="edJBSNwzrRk78-fill-1" offset="100%" stop-color="rgba(71,252,234,0)"/></radialGradient><radialGradient id="edJBSNwzrRk80-fill" cx="0" cy="0" r="1" gradientTransform="matrix(0 2.13071 -7.78011 0 165.397 168.833)" gradientUnits="userSpaceOnUse" spreadMethod="pad"><stop id="edJBSNwzrRk80-fill-0" offset="0%" stop-color="rgba(24,234,213,0)"/><stop id="edJBSNwzrRk80-fill-1" offset="100%" stop-color="#15c8bd"/></radialGradient><radialGradient id="edJBSNwzrRk81-fill" cx="0" cy="0" r="1" gradientTransform="matrix(0 -1.51777 8.0108 0 165.323 171.343)" gradientUnits="userSpaceOnUse" spreadMethod="pad"><stop id="edJBSNwzrRk81-fill-0" offset="0%" stop-color="rgba(71,252,234,0.68)"/><stop id="edJBSNwzrRk81-fill-1" offset="100%" stop-color="rgba(255,255,255,0)"/></radialGradient><radialGradient id="edJBSNwzrRk117-fill" cx="0" cy="0" r="1" gradientTransform="rotate(90 .058 .058) scale(4.61854)" gradientUnits="userSpaceOnUse" spreadMethod="pad"><stop id="edJBSNwzrRk117-fill-0" offset="29.167%" stop-color="#9dfff9"/><stop id="edJBSNwzrRk117-fill-1" offset="100%" stop-color="rgba(162,199,255,0)"/></radialGradient><radialGradient id="edJBSNwzrRk122-fill" cx="0" cy="0" r="1" gradientTransform="rotate(90 .088 .088) scale(6.93754)" gradientUnits="userSpaceOnUse" spreadMethod="pad"><stop id="edJBSNwzrRk122-fill-0" offset="29.167%" stop-color="#9dfff9"/><stop id="edJBSNwzrRk122-fill-1" offset="100%" stop-color="rgba(162,199,255,0)"/></radialGradient><radialGradient id="edJBSNwzrRk127-fill" cx="0" cy="0" r="1" gradientTransform="rotate(90 .033 .033) scale(2.53303)" gradientUnits="userSpaceOnUse" spreadMethod="pad"><stop id="edJBSNwzrRk127-fill-0" offset="29.167%" stop-color="#9dfff9"/><stop id="edJBSNwzrRk127-fill-1" offset="100%" stop-color="rgba(162,199,255,0)"/></radialGradient><filter id="edJBSNwzrRk23-filter" width="400%" height="400%" x="-150%" y="-150%"><feGaussianBlur id="edJBSNwzrRk23-filter-blur-0" result="result" stdDeviation="2,2"/></filter><filter id="edJBSNwzrRk26-filter" width="400%" height="400%" x="-150%" y="-150%"><feGaussianBlur id="edJBSNwzrRk26-filter-blur-0" result="result" stdDeviation="2,2"/></filter><filter id="edJBSNwzrRk44-filter" width="400%" height="400%" x="-150%" y="-150%"><feGaussianBlur id="edJBSNwzrRk44-filter-blur-0" result="result" stdDeviation="2,2"/></filter><filter id="edJBSNwzrRk48-filter" width="400%" height="400%" x="-150%" y="-150%"><feGaussianBlur id="edJBSNwzrRk48-filter-blur-0" result="result" stdDeviation="2,2"/></filter></defs><g clip-path="url(#edJBSNwzrRk137)" transform="matrix(3.76096 0 0 3.76095 66.261 -42.773)"><g transform="translate(3.565)"><g id="edJBSNwzrRk5_to" transform="translate(164.936 190.524)"><g transform="translate(-164.936 -190.524)"><path fill="#b5cede" d="M81.641 223.79c-13.587.763-18.37 21.946-4.236 25.762l67.834 11.17c7.76 1.285-1.794-22.798-9.364-27.085-20.419-6.31-34.031-9.834-54.234-9.847Z"/><path fill="#b6cedf" d="M245.648 232.711c17.829 3.808 23.136 28.206 9.001 32.023-29.85 6.728-48.293 4.327-77.871-4.012-17.678-5.335-6.254-20.568 8.806-25.934 20.419-6.31 42.235-5.885 60.064-2.077Z"/><g><path fill="#c2d7e9" d="M136.767 158.732c-12.582 18.88-32.726 48.681-41.39 59.24-2.877 3.4 1.308 16.216 7.681 14.942 7.518-7.849 39.296-57.401 41.751-61.497 5.305-9.834-4.455-17.723-8.042-12.685Z"/></g><g><path fill="#c8dae9" d="M194.458 159.905c12.288 18.438 30.56 48.107 39.021 58.419 2.809 3.321-1.278 15.836-7.501 14.593-7.343-7.666-39.068-60.255-41.465-64.255-7.044-14.417 5.172-16.838 9.945-8.757Z"/><g id="edJBSNwzrRk12_tr" transform="translate(231.695 229.935)"><path fill="url(#edJBSNwzrRk12-fill)" d="M225.733 219.149c9.014-13.517 27.985-34.132 33.608-38.709 5.623-4.576 12.71 1.13 8.893 6.016 0 0-22.626 41.479-33.478 48.908-5.73 3.283-16.866-4.455-9.023-16.215Z" transform="translate(-231.695 -229.935)"/></g><g id="edJBSNwzrRk13_to" transform="translate(276.146 180.511)"><g id="edJBSNwzrRk13_tr"><path fill="#cddeec" fill-rule="evenodd" d="m281.021 182.383.015.176c3.688-.443 9.211-.929 11.439-.167 2.628.899 3.416 3.277.676 3.25-3.269-.03-9.407.358-12.114.644-.01.099-.022.197-.034.294 2.819-.336 6.247-.601 7.653-.155 2.022.641 2.657 2.913.597 2.941-2.813.035-9.131.601-10.589.862l-.055.008-.046.006c-1.589.229-3.045.489-4.382.727-5.761 1.028-13.882.331-16.315-3.584-3.052-4.802 3.586-11.753 5.922-12.885.836-.404 1.944-.7 3.115-1.013 2.104-.562 4.409-1.178 5.685-2.572 2.739-2.967 4.497-.124 3.564 1.693-.693 1.397-2.233 2.101-3.483 2.671-.857.392-1.578.721-1.793 1.169-.528 1.101.113 2.194 2.271 2.084 1.971-.094 4.756-1.736 6.183-2.738-1.114-.63-2.777-2.055-2.728-4.312.018-1.574 2.043-2.586 3.242-.65 1.015 1.64 2.047 2.479 3.438 3.611.252.204.515.419.792.649 1.003 1.016.397 2.207-.556 3.2 3.442-.469 7.567-.841 9.447-.282 2.661.79 3.155 3.201.42 3.257-3.409.097-9.838.724-12.364 1.116Z" clip-rule="evenodd" transform="translate(-276.139 -180.563)"/></g></g></g><g><path fill="url(#edJBSNwzrRk15-fill)" d="M134.423 233.485c3.874-13.68-1.116-60.301 2.078-73.176 4.414-17.772 52.822-15.126 57.096 0 3.562 12.582.278 59.133 3.324 71.178 3.045 12.045-11.074 30.163-20.751 34.609s-25.306 1.995-29.466-2.166c-4.148-4.172-16.155-16.765-12.281-30.445Z"/><path fill="url(#edJBSNwzrRk16-fill)" d="M93.363 226.763c14.109 4.135 48.835 26.402 80.665 35.155 2.998.908 4.587 1.323 10.991 11.536 7.097 11.943 8.225 18.936 3.725 23.436-4.501 4.501-10.461-.216-16.351-5.814-6.717-6.386-8.903-6.722-13.99-8.539-12.4-4.726-61.41-9.926-80.664-25.616s-4.133-35.947 15.624-30.158Z"/><g id="edJBSNwzrRk17_tr" transform="translate(97.79 223.79)"><path fill="url(#edJBSNwzrRk17-fill)" d="M104.138 219.149c-9.014-13.517-27.985-34.132-33.608-38.709-5.623-4.576-12.71 1.13-8.893 6.016 0 0 22.626 41.479 33.478 48.908 5.73 3.283 16.866-4.455 9.023-16.215Z" transform="translate(-97.79 -223.79)"/></g><g id="edJBSNwzrRk18_to" transform="translate(53.726 180.511)"><g id="edJBSNwzrRk18_tr"><path fill="#cddeec" fill-rule="evenodd" d="m48.85 182.383-.015.176c-3.688-.443-9.211-.929-11.44-.167-2.627.899-3.415 3.277-.675 3.25 3.27-.03 9.407.358 12.114.644.01.099.022.197.034.294-2.818-.336-6.247-.601-7.653-.155-2.022.641-2.657 2.913-.596 2.941 2.812.035 9.13.601 10.588.862l.055.008.046.006c1.59.229 3.045.489 4.382.727 5.76 1.028 13.882.331 16.315-3.584 3.052-4.802-3.585-11.753-5.922-12.885-.835-.404-1.944-.7-3.115-1.013-2.104-.562-4.41-1.178-5.685-2.572-2.738-2.967-4.497-.124-3.564 1.693.693 1.397 2.234 2.101 3.483 2.671.858.392 1.578.721 1.793 1.169.528 1.101-.113 2.194-2.271 2.084-1.97-.094-4.756-1.736-6.183-2.738 1.114-.63 2.777-2.055 2.728-4.312-.018-1.574-2.043-2.586-3.242-.65-1.015 1.64-2.047 2.479-3.438 3.611-.252.204-.515.419-.792.649-1.003 1.016-.397 2.207.556 3.2-3.442-.469-7.567-.841-9.447-.282-2.661.79-3.154 3.201-.42 3.257 3.409.097 9.838.724 12.364 1.116Z" clip-rule="evenodd" transform="translate(-53.726 -180.511)"/></g></g><path fill="#edf6fd" d="M191.736 157.046c-3.187-.061-6.366.492-8.566 5.877-1.9 4.652-5.338 37.249-6.583 49.547-.3 2.962-1.885 5.747-4.712 6.51-6.122 1.65-14.028.6-18.035-.934-1.719-.659-2.458-2.435-2.558-4.303-.813-15.19-.685-30.718-2.444-45.892-1.145-9.884-6.65-11.635-9.711-12.209 10.185-11.394 43.745-9.456 52.609 1.404Z"/><path fill="url(#edJBSNwzrRk20-fill)" d="M191.736 156.882c-3.187-.059-6.366.484-8.566 5.773-1.9 4.568-5.338 36.58-6.583 48.657-.3 2.909-1.885 5.645-4.712 6.393-6.122 1.621-14.028.59-18.035-.917-1.719-.647-2.458-2.391-2.558-4.226-.813-14.917-.685-30.166-2.444-45.068-1.145-9.707-6.65-11.426-9.711-11.99 10.185-11.189 43.745-9.286 52.609 1.378Z"/><path fill="url(#edJBSNwzrRk21-fill)" d="M182.665 138.115c-5.628 1.743-8.007 2.56-7.916 4.739.092 2.178.1 5.536 2.195 6.89 1.337.851 4.337 1.917 5.572 2.648 7.757 4.602-41.719 3.511-34.212-1.259 2.809-1.785 5.864-2.041 7.733-4.018 1.393-1.474 1.51-4.407.229-6.053-1.282-1.646-5.717-3.552-12.903-6.197s44.929 1.507 39.302 3.25Z"/><path fill="url(#edJBSNwzrRk22-fill)" d="M243.949 235.647c-14.385 1.954-52.326 12.35-84.157 21.102-8.855 2.43-12.636 3.658-15.406 9.197-2.769 5.539-5.712 20.252-4.328 26.311 1.385 6.058 7.439 9.405 13.329 3.808 5.886-6.578 7.27-16.445 15.06-17.829 7.789-1.385 70.948.577 89.955-14.105 12.938-9.999 5.277-30.052-14.453-28.484Z"/><g filter="url(#edJBSNwzrRk23-filter)"><path fill="url(#edJBSNwzrRk24-fill)" d="M245.475 251.233c-16.444 4.673-55.938 9.924-66.296 10.905s-16.542 1.967-12.628-.913c3.914-2.879 51.921-16.397 73.212-20.032 15.196-2.595 24.953 4.571 5.712 10.04Z"/><path fill="none" stroke="url(#edJBSNwzrRk25-stroke)" stroke-width=".941" d="M245.475 251.233c-16.444 4.673-55.938 9.924-66.296 10.905s-16.542 1.967-12.628-.913c3.914-2.879 51.921-16.397 73.212-20.032 15.196-2.595 24.953 4.571 5.712 10.04Z"/></g><g filter="url(#edJBSNwzrRk26-filter)" opacity=".44"><g><ellipse fill="#43ddd1" rx="5.301" ry="5.333" transform="translate(147.566 290.839)"/><path fill="none" stroke="#06f" stroke-width="1.882" d="M151.927 290.841c-.001 2.431-1.96 4.391-4.362 4.39-2.403-.001-4.36-1.963-4.359-4.394s1.96-4.391 4.362-4.39c2.403.001 4.36 1.963 4.359 4.394Z"/></g><g><ellipse fill="#43ddd1" rx="3.409" ry="3.429" transform="translate(154.503 280.799)"/><path fill="none" stroke="#06f" stroke-width="1.882" d="M156.971 280.8a2.478 2.478 0 0 1-2.469 2.487 2.48 2.48 0 0 1-2.467-2.489 2.48 2.48 0 0 1 2.469-2.488 2.478 2.478 0 0 1 2.467 2.49Z"/></g></g><path fill="#fff" stroke="#000" stroke-miterlimit="10" stroke-width=".941" d="M143.788 123.695c-1.73-.114-3.384-.458-4.949-1.068-1.399-.547-2.239-2.036-1.997-3.588.611-4.096 1.679-8.536 3.053-13.205.458-1.54 1.883-2.545 3.423-2.405a18.02 18.02 0 0 1 4.681 1.056c1.425.522 2.278 2.01 2.061 3.575-.661 4.669-1.628 9.122-2.989 13.307-.471 1.463-1.82 2.418-3.283 2.328Z"/><path fill="url(#edJBSNwzrRk34-fill)" d="M142.885 126.408c10.486 4.112 30.202 5.411 37.935 5.551 8.891.187 18.298-8.327 18.71-23.747-.229-4.211-.649-10.86-2.647-13.57-9.974-13.485-33.705-16.895-48.651-6.183-3.218 2.303-5.598 8.622-7.413 11.675-2.867 7.975-4.42 23.752 2.066 26.274Z"/><path fill="#87aac0" d="M139.29 122.897c-1.575.159-3.086.096-4.521-.228-1.284-.29-2.078-1.533-1.891-3.001.47-3.869 1.348-8.125 2.5-12.638.384-1.489 1.658-2.633 3.061-2.739 1.483-.109 2.913-.032 4.278.257 1.306.262 2.112 1.504 1.948 2.979-.503 4.405-1.289 8.656-2.439 12.722-.398 1.421-1.604 2.506-2.936 2.648Z"/><path fill="#fff" d="M147.32 125.906c-1.56-.61-2.529-1.957-2.453-3.405.227-4.741.563-12.039-.107-14.907-.59-2.659-1.64-5.177-3.156-6.894a.893.893 0 0 0-1.47.196c-5.4 10.549-7.501 24.416-6.597 27.28 1.236 3.917 10.982 8.215 25.491 10.477 10.92 1.715 19.402.508 31.609-2.682 4.65-1.207 6.498-5.858 6.952-9.48.872-8.093 1.847-14.741 1.95-17.46a.922.922 0 0 0-1.031-.955c-4.481.51-11.381 1.583-15.581 4.143-2.959 1.799-5.829 8.098-8.323 13.571l-.703 1.54c-.652 1.41-2.287 2.351-4.09 2.313-7.679-.14-16.569-1.411-22.491-3.737Z"/><path fill="#cddeec" d="M148.079 125.935c-1.571-.611-2.547-1.96-2.471-3.41.229-4.745.567-12.052-.106-14.923-.596-2.666-2.366-5.186-3.895-6.905a.894.894 0 0 0-1.468.196c-5.441 10.562-6.85 24.446-5.939 27.314 1.244 3.921 11.059 8.223 25.669 10.488 10.996 1.717 19.537.509 31.83-2.685 4.682-1.208 6.542-5.864 7-9.49.878-8.104 1.252-14.837 1.356-17.558a.923.923 0 0 0-1.031-.955c-4.513.511-10.858 1.661-15.089 4.226-2.98 1.8-5.87 8.106-8.382 13.585-.239.523-.476 1.038-.708 1.541-.656 1.413-2.303 2.354-4.118 2.316-7.732-.14-16.685-1.412-22.648-3.74Z"/><path fill="#edf6fd" d="M197.329 131.116c-1.527.182-3.377-.074-4.776-.362-1.252-.26-2.046-1.453-1.89-2.882.388-3.766 1.166-7.915 2.204-12.319.347-1.453 1.565-2.586 2.925-2.715 1.439-.131 2.456-.054 3.787.202 1.273.232 2.791 2.042 2.616 3.579-.411 4.286-1.017 7.904-2.062 11.873-.36 1.387-1.513 2.463-2.804 2.624Z"/><path fill="url(#edJBSNwzrRk39-fill)" d="M197.667 131.069a10.598 10.598 0 0 1-3.722-.107c-1.055-.24-1.704-1.335-1.561-2.66.38-3.496 1.203-8.095 2.151-12.181.305-1.344 1.365-2.404 2.51-2.524a11.568 11.568 0 0 1 3.526.144c1.077.211 1.738 1.316 1.607 2.651-.406 3.985-1.159 8.583-2.101 12.266-.332 1.254-1.324 2.267-2.41 2.411Z"/><g><path fill="#16e1d5" d="M178.456 102.66c1.972 2.977 3.836 2.628 6.533 1.254.407-.203.801.319.56.751-2.214 4.084-7.488 3.059-7.895-1.674-.038-.509.522-.738.802-.331Z"/></g><g><path fill="#16e1d5" d="M149.663 98.85c.858 3.07 2.648 2.559 4.33 1.336.254-.18.432.36.253.778-1.709 3.351-5.91 1.581-5.075-1.828.025-.51.377-.706.492-.286Z"/></g><g filter="url(#edJBSNwzrRk44-filter)"><ellipse fill="#cddeec" rx="9.774" ry="3.774" transform="rotate(-16.945 382.73 -496.84)"/><path fill="none" stroke="#06f" stroke-width="1.882" d="M169.867 87.402c.048.159.045.434-.216.874-.261.441-.732.955-1.425 1.497-1.38 1.081-3.483 2.151-5.983 2.913-2.499.761-4.841 1.045-6.59.918-.878-.064-1.555-.228-2.017-.448-.462-.22-.619-.447-.667-.606-.049-.159-.045-.434.216-.875.261-.44.732-.954 1.424-1.496 1.381-1.081 3.484-2.151 5.983-2.913 2.5-.761 4.842-1.046 6.591-.918.877.064 1.554.228 2.017.448.462.22.619.447.667.606Z"/></g><g id="edJBSNwzrRk47_to" transform="translate(165.107 176.053)"><g transform="translate(-165.107 -176.053)"><g filter="url(#edJBSNwzrRk48-filter)"><ellipse fill="url(#edJBSNwzrRk49-fill)" rx="24.183" ry="23.48" transform="translate(165.107 176.053)"/></g><path fill="url(#edJBSNwzrRk50-fill)" d="m160.883 167.175-5.338 3.767.059 10.054 4.894 2.966 4.775 1.216 4.893-1.246 5.22-3.144v-9.846l-4.804-3.797-4.805-1.245-4.894 1.275Z"/><path fill="url(#edJBSNwzrRk51-fill)" d="m163.521 166.474-2.568.678 4.768 2.801 4.842-2.801-2.568-.678-2.237-.561-2.237.561Z"/><path fill="url(#edJBSNwzrRk52-fill)" d="m163.521 166.474-2.568.678 4.768 2.801 4.842-2.801-2.568-.678-2.237-.561-2.237.561Z"/><path fill="url(#edJBSNwzrRk53-fill)" d="m165.234 185.212 4.786-1.286-4.75-1.636-4.678 1.636 4.642 1.286Z"/><path fill="url(#edJBSNwzrRk54-fill)" d="m165.234 185.212 4.786-1.286-4.75-1.636-4.678 1.636 4.642 1.286Z"/><path fill="url(#edJBSNwzrRk55-fill)" d="m170.128 183.94 5.171-3.03-9.973 1.324v.059l4.802 1.647Z"/><path fill="url(#edJBSNwzrRk56-fill)" d="m170.128 183.94 5.171-3.03-9.973 1.324v.059l4.802 1.647Z"/><path fill="url(#edJBSNwzrRk57-fill)" d="m170.128 183.94 5.171-3.03-9.973 1.324v.059l4.802 1.647Z"/><path fill="url(#edJBSNwzrRk58-fill)" d="m160.628 183.949-5.115-3.03 9.792 1.324v.059l-4.677 1.647Z"/><path fill="url(#edJBSNwzrRk59-fill)" d="m160.628 183.949-5.115-3.03 9.792 1.324v.059l-4.677 1.647Z"/><path fill="#0fc1b7" d="M158.414 170.892h13.962l-7.055 9.018-6.907-9.018Z"/><g><path fill="url(#edJBSNwzrRk62-fill)" d="M170.037 170.892h2.341l-7.024 9.018-1.317-1.775 6-7.243Z"/><path fill="url(#edJBSNwzrRk63-fill)" d="M170.037 170.892h2.341l-7.024 9.018-1.317-1.775 6-7.243Z"/></g><g><path fill="url(#edJBSNwzrRk65-fill)" d="M160.577 170.892h-2.341l7.023 9.018 1.317-1.775-5.999-7.243Z"/><path fill="url(#edJBSNwzrRk66-fill)" d="M160.577 170.892h-2.341l7.023 9.018 1.317-1.775-5.999-7.243Z"/></g><path fill="#41f9e7" d="m155.587 181.064 2.867-10.137 2.499-3.787-5.439 3.787.073 10.137Z"/><path fill="url(#edJBSNwzrRk68-fill)" d="m175.314 180.931-2.94-9.97-1.808-3.808 4.748 3.756v10.022Z"/><path fill="url(#edJBSNwzrRk69-fill)" d="m175.314 180.931-2.94-9.97-1.808-3.808 4.748 3.756v10.022Z"/><path fill="#00e0ca" d="m165.305 179.981-6.942-9.089-2.849 10.171 9.791 1.227v-2.309Z"/><path fill="url(#edJBSNwzrRk71-fill)" d="m165.305 179.981-6.942-9.089-2.849 10.171 9.791 1.227v-2.309Z"/><path fill="url(#edJBSNwzrRk72-fill)" d="m165.305 179.981-6.942-9.089-2.849 10.171 9.791 1.227v-2.309Z"/><path fill="url(#edJBSNwzrRk73-fill)" d="m165.305 179.981-6.942-9.089-2.849 10.171 9.791 1.227v-2.309Z"/><path fill="url(#edJBSNwzrRk74-fill)" d="m165.307 179.981 7.091-9.089 2.881 10.054-9.972 1.344v-2.309Z"/><path fill="url(#edJBSNwzrRk75-fill)" d="m165.307 179.981 7.091-9.089 2.881 10.054-9.972 1.344v-2.309Z"/><path fill="url(#edJBSNwzrRk76-fill)" d="m165.307 179.981 7.091-9.089 2.881 10.054-9.972 1.344v-2.309Z"/><path fill="url(#edJBSNwzrRk77-fill)" d="m165.307 179.981 7.091-9.089 2.881 10.054-9.972 1.344v-2.309Z"/><path fill="url(#edJBSNwzrRk78-fill)" d="M158.414 170.892h13.962l-7.055 9.018-6.907-9.018Z"/><path fill="url(#edJBSNwzrRk79-fill)" d="m160.841 167.14-2.425 3.824h13.962l-1.812-3.813-4.834 2.726-4.891-2.737Z"/><path fill="url(#edJBSNwzrRk80-fill)" d="m160.841 167.14-2.425 3.824h13.962l-1.812-3.813-4.834 2.726-4.891-2.737Z"/><path fill="url(#edJBSNwzrRk81-fill)" d="m160.841 167.14-2.425 3.824h13.962l-1.812-3.813-4.834 2.726-4.891-2.737Z"/><g><path fill="url(#edJBSNwzrRk83-fill)" d="m161.589 176.574-4.263 1.114 7.917 4.602 8.039-4.602-4.263-1.114-3.715-.921-3.715.921Z"/></g><path fill="url(#edJBSNwzrRk84-fill)" d="m172.361 170.963-1.799-3.823 4.533 3.823h-2.734Z" opacity=".3"/><path fill="url(#edJBSNwzrRk85-fill)" d="m158.307 170.964 2.646-3.824-5.439 3.824h2.793Z" opacity=".5"/></g></g></g></g></g><g id="edJBSNwzrRk88_to" transform="translate(104.335 58.56)"><g transform="translate(-104.335 -58.56)"><path fill="#00e0ca" d="m122.308 64.19 7.914-21.04-4.715-17.009-30.755 19.58-11.165 30.41 4.255 16.99 12.995-5.165 21.471-23.765Z"/><path fill="url(#edJBSNwzrRk90-fill)" d="m114.934 41.317 10.648-15.27 4.826 17.353-7.819 20.66-7.655-22.743Z"/><path fill="url(#edJBSNwzrRk91-fill)" d="m114.934 41.317 10.648-15.27 4.826 17.353-7.819 20.66-7.655-22.743Z"/><path fill="url(#edJBSNwzrRk92-fill)" d="m114.933 41.317 10.647-15.27-30.557 19.888 19.91-4.618Z"/><path fill="url(#edJBSNwzrRk93-fill)" d="m99.447 59.177-15.95 17.345 10.976-30.668 4.974 13.323Z"/><path fill="url(#edJBSNwzrRk94-fill)" d="m99.447 59.177 15.43-17.716-20.133 4.607 4.703 13.109Z"/><path fill="url(#edJBSNwzrRk95-fill)" d="m99.446 59.176-15.95 17.346 2.316 19.254 14.971-7.815-1.337-28.784Z"/><path fill="url(#edJBSNwzrRk96-fill)" d="m99.445 59.177 23.309 6.685-8.223-24.37-15.086 17.685Z"/><path fill="url(#edJBSNwzrRk97-fill)" d="m99.447 59.178 22.648 5.286-21.286 23.01-1.362-28.296Z"/></g></g><g id="edJBSNwzrRk98_to" transform="translate(213.035 53.564)"><g transform="translate(-213.035 -53.564)"><path fill="#00e0ca" d="m209.01 66.603 15.262 5.644 12.293-3.48-14.296-22.185-22.058-7.96-12.28 3.148 3.79 9.386 17.289 15.447Z"/><path fill="url(#edJBSNwzrRk100-fill)" d="m225.539 61.173 11.097 7.646-12.543 3.563-14.985-5.577 16.431-5.632Z"/><path fill="url(#edJBSNwzrRk101-fill)" d="m225.539 61.173 11.097 7.646-12.543 3.563-14.985-5.577 16.431-5.632Z"/><path fill="url(#edJBSNwzrRk102-fill)" d="m225.54 61.172 11.096 7.647-14.519-22.04 3.423 14.393Z"/><path fill="url(#edJBSNwzrRk103-fill)" d="m212.55 50.033-12.62-11.476 22.244 7.822-9.624 3.654Z"/><path fill="url(#edJBSNwzrRk104-fill)" d="m212.55 50.034 12.885 11.099-3.415-14.555-9.47 3.456Z"/><path fill="url(#edJBSNwzrRk105-fill)" d="m212.549 50.032-12.62-11.476-13.928 1.753 5.717 10.806 20.831-1.083Z"/><path fill="url(#edJBSNwzrRk106-fill)" d="m212.55 50.033-4.746 16.9 17.608-6.05-12.862-10.85Z"/><path fill="url(#edJBSNwzrRk107-fill)" d="m212.55 50.034-3.736 16.415-16.741-15.315 20.477-1.1Z"/></g></g><g id="edJBSNwzrRk108_to" transform="translate(58.726 141.782)"><g transform="translate(-58.726 -141.782)"><path fill="#17e1d5" d="m66.301 134.805-8.553-2.608-14.205-1.876 14.94 15.912 12.364 3.661 6.912-.693-1.91-6.467-9.548-7.929Z"/><path fill="url(#edJBSNwzrRk110-fill)" d="m64.429 144.236-20.948-14 14.585 2.117 8.398 2.581-2.035 9.302Z"/><path fill="url(#edJBSNwzrRk111-fill)" d="m64.13 144.177-20.498-13.531L58.57 146.12l5.56-1.943Z"/><path fill="url(#edJBSNwzrRk112-fill)" d="m64.037 144.023 6.966 5.898-12.472-3.58 5.506-2.318Z"/><path fill="url(#edJBSNwzrRk113-fill)" d="m64.037 144.022 6.966 5.899 6.738-.721-1.893-6.445-11.81 1.267Z"/><path fill="url(#edJBSNwzrRk114-fill)" d="m64.038 144.022 2.37-9.139 9.24 7.874-11.61 1.265Z"/></g></g><g id="edJBSNwzrRk115_to" transform="translate(111.691 136.639)"><g transform="translate(-111.691 -136.639)"><g><circle r="4.506" fill="url(#edJBSNwzrRk117-fill)" transform="rotate(-75 144.88 -4.46)"/></g><g><circle r="1.607" fill="#fff" transform="rotate(-30 310.817 -140.099)"/></g></g></g><g id="edJBSNwzrRk120_to" transform="translate(236.481 88.036)"><g transform="translate(-236.481 -88.036)"><g><g id="edJBSNwzrRk122_to" transform="translate(90.239 293.674)"><circle r="6.768" fill="url(#edJBSNwzrRk122-fill)" transform="rotate(-75 -60.875 -198.112)"/></g></g><g><g id="edJBSNwzrRk124_to" transform="translate(-12.335 130.036)"><circle r="2.413" fill="#fff" transform="rotate(-30 46.036 -485.3)"/></g></g></g></g><g id="edJBSNwzrRk125_to" transform="translate(215.954 103.47)"><g transform="translate(-215.954 -103.47)"><g><circle r="2.471" fill="url(#edJBSNwzrRk127-fill)" transform="rotate(-75 175.4 -88.983)"/></g><g><circle r=".881" fill="#fff" transform="rotate(-30 301.054 -351.24)"/></g></g></g><g id="edJBSNwzrRk130_to" transform="translate(258.302 108.38)"><g transform="translate(-258.302 -108.38)"><path fill="#17e1d5" d="m264.779 122.409 7.529-11.465 8.889-20.1-29.867 15.126-10.723 16.62-1.96 10.474 10.342-.022 15.79-10.633Z"/><path fill="url(#edJBSNwzrRk132-fill)" d="m251.706 115.586 29.645-24.797-9.409 20.557-7.421 11.248-12.815-7.008Z"/><path fill="url(#edJBSNwzrRk133-fill)" d="m251.922 115.172 28.759-24.335-29.221 15.313.462 9.022Z"/><path fill="url(#edJBSNwzrRk134-fill)" d="m252.188 115.102-11.687 7.709 10.649-16.814 1.038 9.105Z"/><path fill="url(#edJBSNwzrRk135-fill)" d="m252.191 115.104-11.687 7.71-1.845 10.228 10.302-.006 3.23-17.932Z"/><path fill="url(#edJBSNwzrRk136-fill)" d="m252.187 115.104 12.431 7.432-15.577 10.204 3.146-17.636Z"/></g></g></g></g></svg>